<?xml version="1.0" encoding="utf-8"?>
<!-- Generator: Adobe Illustrator 19.0.0, SVG Export Plug-In . SVG Version: 6.00 Build 0)  -->
<svg version="1.1" id="Layer_1" xmlns="http://www.w3.org/2000/svg" xmlns:xlink="http://www.w3.org/1999/xlink" x="0px" y="0px"
	 viewBox="0 0 1404 523" style="enable-background:new 0 0 1404 523;" xml:space="preserve">
<style type="text/css">
	.st0{fill:#E2E2E2;}
	.st1{fill:#26B56D;}
	.st2{fill:url(#XMLID_9_);}
	.st3{fill:#FFFFFF;}
</style>
<g id="XMLID_1_">
	<g id="XMLID_96_">
		<g id="XMLID_587_">
			<path id="XMLID_588_" class="st0" d="M604.8,259.6v-96.3h42.9c16.8,0,27,10.1,27,24.6c0,12.1-8.1,20.2-16.9,22.1
				c10.3,1.6,18.8,12.1,18.8,23.7c0,15.5-10.3,26-27.9,26H604.8z M662.3,189.5c0-8.7-5.8-15.6-16.6-15.6h-28.9V205h28.9
				C656.5,205,662.3,198.3,662.3,189.5z M664.2,232.3c0-8.8-6.1-16.6-17.8-16.6h-29.6v33.2h29.6
				C657.5,248.9,664.2,242.5,664.2,232.3z"/>
			<path id="XMLID_592_" class="st0" d="M793.3,259.6l-8.5-21.5h-48l-8.5,21.5h-13.7l38.9-96.3h14.9l38.7,96.3H793.3z M760.8,175.5
				l-20.4,52h40.9L760.8,175.5z"/>
			<path id="XMLID_595_" class="st0" d="M846.9,259.6v-96.3h12v85.7h44.8v10.7H846.9z"/>
			<path id="XMLID_597_" class="st1" d="M1017.4,259.6l-8.5-21.5h-48l-8.5,21.5h-13.7l38.9-96.3h14.9l38.7,96.3H1017.4z
				 M984.9,175.5l-20.4,52h40.9L984.9,175.5z"/>
			<path id="XMLID_600_" class="st0" d="M1140.7,259.6l-56.2-76.8v76.8h-12v-96.3h12.3l55.5,75.3v-75.3h12v96.3H1140.7z"/>
			<path id="XMLID_602_" class="st0" d="M1199.8,211.5c0-29.6,21.8-49.8,49.5-49.8c17,0,28.9,8.1,36.5,19.1l-10,5.6
				c-5.5-8.2-15.6-14-26.6-14c-21.1,0-37.1,16-37.1,39.1c0,22.8,16,39.1,37.1,39.1c11,0,21.1-5.9,26.6-14l10.1,5.5
				c-8.1,11.1-19.6,19.2-36.7,19.2C1221.6,261.3,1199.8,241.1,1199.8,211.5z"/>
			<path id="XMLID_604_" class="st0" d="M1330.2,259.6v-96.3h63.1v10.7h-51.1V205h50.1v10.7h-50.1v33.2h51.1v10.7H1330.2z"/>
		</g>
		<g id="XMLID_545_">
			<path id="XMLID_548_" class="st1" d="M693.8,344.8c-0.3,0.2-0.5,0.2-0.6,0.2v1.1c-0.2,1.3-0.8,3.2-2,5.6c-1.1,2.4-2.6,5.1-4.4,8
				c3.6-1.5,7.1-3,10.5-4.3c3.4-1.3,6.7-2.6,9.9-3.9l7.4-2.9c1-0.2,1.5,0.1,1.5,1c-0.2,0.5-0.7,1-1.5,1.5l-3.4,1.3
				c-4.1,1.5-8.3,3.2-12.8,5c-4.4,1.8-9,3.7-13.6,5.6l0.1-0.2c-1.5,2.4-3,4.8-4.7,7.2c-1.6,2.4-3.2,4.7-4.8,7
				c-1.5,2.2-3,4.3-4.4,6.2c-1.4,1.9-2.6,3.4-3.6,4.7c-1.2,1.5-2.8,3.4-4.7,5.6c-1.9,2.2-3.9,4.5-6.2,6.9c-2.2,2.4-4.6,4.8-7.1,7.2
				c-2.5,2.4-5,4.6-7.5,6.4c-2.5,1.9-4.9,3.4-7.4,4.6c-2.4,1.2-4.6,1.8-6.6,1.8c-1.8,0-3.4-0.5-4.8-1.6c-1.9-1.5-2.9-3.6-2.9-6.3
				c0-1.5,0.3-3.1,0.9-4.8c0.6-1.8,1.4-3.6,2.4-5.4c1-1.8,2.3-3.7,3.7-5.5c1.5-1.8,3.1-3.6,4.8-5.2c3.2-3,6.8-5.9,10.8-8.6
				c4-2.8,8.2-5.4,12.5-7.9c4.4-2.5,8.9-4.9,13.5-7.2c4.6-2.3,9.3-4.4,13.9-6.4l-0.1,0.2c1.5-2.5,3-5,4.3-7.4
				c1.3-2.4,2.3-4.3,2.8-5.7l-0.1,0.1l-1.5,1.2h0.1c-1.2,1.1-2.9,2.5-4.9,4.1c-2.1,1.7-4.2,3.3-6.3,4.9c-2.1,1.6-4.2,2.9-6,3.9
				c-1.9,1-3.3,1.4-4.2,1.2c-1-0.5-1.4-1.2-1.3-2.2c0.1-1,0.5-2.2,1.2-3.4c0.7-1.3,1.6-2.5,2.6-3.9c1-1.3,2-2.4,2.8-3.2
				c2.8-2.8,5.5-5,8-6.7c2.5-1.7,4.7-3,6.7-3.9c2-0.8,3.6-1.3,5.1-1.4c1.4-0.1,2.5,0.1,3.2,0.5c0.8,0.5,1.2,1.2,1,2.1
				C696.1,342.7,695.2,343.7,693.8,344.8z M675.6,373.1c0.4-0.6,1.1-1.7,2.1-3.2c1-1.5,2.1-3.2,3.2-5.1c-8.1,3.6-16.1,7.6-24,12
				c-7.9,4.4-14.8,9.2-20.9,14.4c-4.4,3.8-7.5,7.4-9.5,11c-2,3.6-3,6.7-3,9.3c0,1.9,0.5,3.4,1.4,4.5c1,1.1,2.3,1.6,4.1,1.6
				c2.8,0,6-1.3,9.8-3.8c3.3-2.3,6.7-5.1,10.1-8.5c3.4-3.4,6.8-6.9,10.1-10.7c3.3-3.8,6.3-7.5,9.2-11.3
				C671.1,379.4,673.6,376,675.6,373.1z M688.6,346.7c0.5-0.5,1-0.9,1.6-1.4c0.6-0.5,1.1-0.8,1.7-1c0-0.5,0.3-0.9,0.8-1.3
				c0.5-0.5,0.6-1,0.2-1.3c-0.5-0.2-1.4-0.1-2.5,0.1c-1.1,0.2-2.5,0.7-4,1.5c-1.6,0.8-3.4,1.9-5.4,3.3c-2,1.5-4.2,3.3-6.6,5.6
				c-0.5,0.5-1.1,1.2-1.9,2.1c-0.8,0.9-1.5,1.8-2.2,2.7c-0.7,0.9-1.1,1.8-1.5,2.6c-0.3,0.8-0.3,1.3,0.1,1.6c0.6,0,1.6-0.5,3-1.4
				c1.4-1,3-2.1,4.7-3.4c1.7-1.3,3.5-2.7,5.2-4.1c1.8-1.4,3.2-2.6,4.4-3.6l1.5-1.3l-0.1,0.1L688.6,346.7z"/>
			<path id="XMLID_552_" class="st1" d="M717.4,349c0.8,0.4,1.5,0.9,2,1.6c0.5,0.7,0.4,1.9-0.2,3.6c-0.3,0.8-0.9,1.9-1.8,3.3
				c-0.9,1.3-1.8,2.7-2.7,4.2c-1.1,1.5-2,3-2.9,4.4c-0.8,1.4-1.3,2.5-1.3,3.3c0,0.8,1.1,0.9,3.3,0.3c2.1-0.7,4.6-1.9,7.5-3.6
				c3-1.7,6-3.6,9-5.7c3.1-2.1,6-4.1,8.8-6.2c2.8-2,5.1-3.7,6.8-5.1c0.4-0.2,0.8-0.4,1.1-0.5c0.4-0.1,0.7,0,0.8,0.4v-0.1
				c0.5,0.5,0.4,1-0.1,1.5c-2,1.5-4.6,3.5-7.9,5.9c-3.3,2.4-6.6,4.7-10.1,7.1c-3.5,2.3-6.9,4.4-10.1,6.2c-3.3,1.8-5.9,2.9-7.9,3.2
				c-2.1,0.3-3.4,0.2-4-0.5c-0.6-0.6-0.7-1.5-0.3-2.7c0.4-1.2,1.1-2.5,2-4.1c1-1.5,2-3.1,3-4.6c0.6-0.8,1.2-1.7,1.7-2.6
				c0.5-0.9,1-1.7,1.4-2.6c0.7-1.6,0.9-2.6,0.6-3c-0.3-0.4-0.7-0.8-1.3-1.1l-1.4-0.9c-0.7-0.6-0.8-1.6-0.5-2.8c0.4-1.3,1-2.5,2-3.9
				c0.9-1.3,2-2.4,3.2-3.4c1.2-1,2.3-1.5,3.3-1.6c1.3-0.1,2,0.3,2,1c0,0.7-0.3,1.6-1,2.6c-0.7,1-1.6,2.1-2.6,3.3
				c-1.1,1.2-2,2.2-2.9,2.9L717.4,349z M720.6,341.7c-0.4,0.1-0.8,0.3-1.3,0.7c-0.5,0.4-1,0.8-1.4,1.4c-0.5,0.5-0.9,1.1-1.3,1.7
				c-0.4,0.6-0.7,1.2-0.7,1.7c0.5-0.5,1.1-1.1,1.7-1.8c0.6-0.7,1.2-1.3,1.7-1.8c0.5-0.6,0.9-1,1.2-1.4
				C720.7,341.8,720.7,341.7,720.6,341.7z"/>
			<path id="XMLID_555_" class="st1" d="M751.1,355.4c-2.1,1.5-4,2.6-5.9,3.3c-1.9,0.7-3.7,1.2-5.6,1.4c-0.8,1.3-1.4,2.5-1.8,3.7
				c-0.4,1.2-0.6,2.2-0.6,3.2c0,1.4,0.4,2.3,1.3,2.6c0.8,0.4,1.9,0.5,3.3,0.4c1.5-0.1,3.4-0.6,5.7-1.6c3.8-1.4,7.9-3.3,12.3-5.8
				c4.4-2.5,8.8-5,13-7.6c3.3-2.1,6.4-4.1,9.3-6c0.4-0.3,0.8-0.4,1.2-0.4c0.4,0,0.7,0.2,0.8,0.4c0.2,0.6-0.1,1.2-0.9,1.8l-3.1,2
				c-1.1,0.6-2.1,1.3-3.1,2c-1,0.7-2,1.4-3.1,2c-2.2,1.4-4.5,2.8-6.8,4.1s-4.6,2.7-6.9,4c-2.3,1.3-4.5,2.4-6.6,3.4
				c-2.1,1-4.1,1.9-5.9,2.6c-3.2,1.2-5.9,1.7-8,1.7c-1.8,0-3.1-0.4-4.1-1.3c-0.9-0.8-1.4-1.9-1.4-3.4c0-1.8,0.7-4.1,2.1-6.8
				c0.5-1,1.3-2.2,2.3-3.6c1-1.4,2.1-2.8,3.3-4.1c1.5-1.8,3.2-3.4,5-5.1c1.8-1.6,3.5-2.8,5-3.4c1.9-0.8,3.4-1.1,4.4-0.7
				c1,0.4,1.5,1.1,1.4,2.2c0,1.1-0.6,2.5-1.7,4C754.8,352.2,753.2,353.7,751.1,355.4z M743.8,354.4c-1.2,1.2-2,2.2-2.4,2.9
				c1.8-0.4,3.5-1,5.3-1.8c1.8-0.8,3.5-2,5.2-3.5c1.1-1.1,1.8-2,2.2-2.9c0.4-0.8,0.6-1.5,0.4-1.8c-0.5-0.5-1.6-0.2-3.5,0.7
				C749.1,349,746.7,351.1,743.8,354.4z"/>
			<path id="XMLID_558_" class="st1" d="M787,355.4c-2.1,1.5-4,2.6-5.9,3.3c-1.9,0.7-3.7,1.2-5.6,1.4c-0.8,1.3-1.4,2.5-1.8,3.7
				c-0.4,1.2-0.6,2.2-0.6,3.2c0,1.4,0.4,2.3,1.3,2.6c0.8,0.4,1.9,0.5,3.3,0.4c1.5-0.1,3.4-0.6,5.7-1.6c3.8-1.4,7.9-3.3,12.3-5.8
				c4.4-2.5,8.8-5,13-7.6c3.3-2.1,6.4-4.1,9.3-6c0.4-0.3,0.8-0.4,1.2-0.4c0.4,0,0.7,0.2,0.8,0.4c0.2,0.6-0.1,1.2-0.9,1.8l-3.1,2
				c-1.1,0.6-2.1,1.3-3.1,2c-1,0.7-2,1.4-3.1,2c-2.2,1.4-4.5,2.8-6.8,4.1s-4.6,2.7-6.9,4c-2.3,1.3-4.5,2.4-6.6,3.4
				c-2.1,1-4.1,1.9-5.9,2.6c-3.2,1.2-5.9,1.7-8,1.7c-1.8,0-3.1-0.4-4.1-1.3c-0.9-0.8-1.4-1.9-1.4-3.4c0-1.8,0.7-4.1,2.1-6.8
				c0.5-1,1.3-2.2,2.3-3.6c1-1.4,2.1-2.8,3.3-4.1c1.5-1.8,3.2-3.4,5-5.1c1.8-1.6,3.5-2.8,5-3.4c1.9-0.8,3.4-1.1,4.4-0.7
				c1,0.4,1.5,1.1,1.4,2.2c0,1.1-0.6,2.5-1.7,4C790.8,352.2,789.2,353.7,787,355.4z M779.8,354.4c-1.2,1.2-2,2.2-2.4,2.9
				c1.8-0.4,3.5-1,5.3-1.8c1.8-0.8,3.5-2,5.2-3.5c1.1-1.1,1.8-2,2.2-2.9c0.4-0.8,0.6-1.5,0.4-1.8c-0.5-0.5-1.6-0.2-3.5,0.7
				C785.1,349,782.7,351.1,779.8,354.4z"/>
			<path id="XMLID_561_" class="st1" d="M820.3,349.8c-1.1,1.7-2.5,3.8-4.1,6.4c-1.7,2.6-3.3,5.2-4.8,8l3.4-4.1
				c1-1.1,1.9-2.3,2.8-3.3c0.8-1.1,1.6-2,2.3-2.8l0.7-0.8c1.1-1.2,2.5-2.8,4.4-4.7c1.8-1.9,3.7-3.7,5.7-5.3c2-1.6,3.8-2.8,5.6-3.6
				c1.8-0.8,3.1-0.7,4,0.4c0.7,0.8,0.9,2.1,0.7,4c-0.2,1.9-0.6,3.9-1,6.2c-0.3,1.3-0.6,2.7-0.9,4.1c-0.3,1.4-0.4,2.7-0.4,3.7
				c0,1.1,0.2,2,0.6,2.6c0.4,0.7,1.1,1,2.1,1c0.4,0,0.9-0.1,1.6-0.3c0.7-0.2,1.3-0.4,2-0.6c1.3-0.5,2.7-1.2,4.3-2.1
				c1.5-0.8,3.1-1.7,4.6-2.6c1.5-0.9,3-1.9,4.5-2.8c1.5-1,2.8-1.9,4-2.7l2.1-1.4c1-0.6,1.6-0.5,2,0.2c0,0.2-0.1,0.5-0.2,0.9
				c-0.2,0.3-0.4,0.6-0.8,0.7l-3.1,2.1c-1.9,1.3-3.8,2.6-5.7,3.8c-1.9,1.2-3.8,2.4-5.8,3.4c-2.5,1.5-4.7,2.5-6.4,3.1
				c-1.8,0.6-3.2,0.9-4.3,0.9c-1.6,0-2.7-0.5-3.3-1.4c-0.6-1-0.9-2.2-0.9-3.7c0-1.3,0.1-2.7,0.4-4.1c0.3-1.5,0.6-2.9,1-4.4
				c0.4-1.8,0.7-3.4,1-4.9c0.3-1.5,0.2-2.6-0.2-3.4c-0.3-0.7-1-0.8-2.1-0.2c-1.1,0.5-2.4,1.5-4,2.9c-1.5,1.4-3.2,3-5,4.9
				c-1.8,1.9-3.6,3.9-5.4,5.9c-1.8,2-3.5,3.9-5,5.8c-1.5,1.9-2.8,3.4-3.9,4.7V366l-2.3,2.9l-0.2,0.2c-0.3,0.4-0.7,0.8-1.1,1.3
				c-0.4,0.5-0.8,0.9-1.3,1.3c-0.4,0.4-0.9,0.7-1.3,0.9c-0.5,0.2-0.8,0.1-1.1-0.1c-0.2-0.2-0.1-0.8,0.3-1.9c0.5-1.1,1.1-2.5,2-4
				c0.9-1.6,1.9-3.3,3-5.2c1.1-1.9,2.2-3.6,3.2-5.3c1-1.6,2-3.1,2.8-4.4s1.3-2.1,1.6-2.5c0.5-0.7,1.1-1,1.7-1
				C820.6,348.2,820.9,348.8,820.3,349.8z"/>
			<path id="XMLID_563_" class="st1" d="M970,345.1c0.2,0.5,0.1,1.2-0.3,2c-0.3,0.8-0.6,1.5-0.9,2.1v-0.1l-0.2,0.7
				c-1.6,4.1-2.4,7.1-2.4,9.2c0,1.8,0.8,2.6,2.4,2.6c2.4,0,7.2-2,14.5-6v0.1c2-1.1,3.9-2.2,5.7-3.3c1.8-1.1,3.8-2.3,5.7-3.5
				c0.4-0.2,0.8-0.3,1.1-0.3c0.4,0,0.7,0.2,0.8,0.5c0.2,0.4,0.1,0.7-0.2,1c-0.3,0.3-0.6,0.5-0.9,0.6c-1.9,1.2-4.1,2.5-6.7,4
				c-2.5,1.5-5.1,3-7.7,4.4c-2.6,1.4-5.1,2.5-7.5,3.5c-2.4,1-4.4,1.4-6,1.4c-1.6,0-2.8-0.5-3.6-1.5c-0.8-1-1-2.7-0.6-5.2
				c0.2-0.8,0.6-2,1.1-3.4c0.5-1.5,1-2.8,1.4-4l-0.2,0.2c-1.5,1.6-3.3,3.4-5.2,5.5c-1.9,2-3.9,4.1-6,6.1c-2.1,2-4.1,3.9-6.1,5.6
				c-2,1.7-3.8,3-5.4,3.9c-0.7,0.4-1.5,0.7-2.4,0.9c-0.9,0.2-1.6,0.2-2.3-0.1c-0.7-0.2-1.1-0.7-1.4-1.5c-0.3-0.8-0.2-1.8,0.2-3.2
				c0.3-0.9,0.7-1.9,1.3-3c0.5-1.1,1.1-2.2,1.8-3.2c0.7-1,1.3-2,2-2.9c0.7-0.9,1.3-1.7,1.8-2.4c2.7-3.2,5.3-5.9,7.8-8
				c2.5-2.1,4.9-3.9,7.1-5.2c2.2-1.3,4.2-2.3,6-2.8c1.8-0.5,3.3-0.8,4.5-0.8c1.2,0,2.1,0.2,2.8,0.7c0.6,0.5,0.9,1,0.9,1.7
				c0,1.1-0.8,2.2-2.4,3.4L970,345.1z M969.5,343c0.8-0.5,1-1,0.8-1.4c-0.2-0.4-0.8-0.6-1.8-0.5c-1,0-2.3,0.3-3.9,0.9
				c-1.6,0.6-3.5,1.5-5.5,2.8c-1.6,1-3.4,2.5-5.5,4.4c-2.1,2-4.1,4-6,6.2c-2,2.2-3.7,4.4-5.1,6.6c-1.5,2.2-2.4,4-2.8,5.5
				c-0.2,0.8-0.1,1.3,0.3,1.7c0.5,0.4,1.1,0.4,1.8,0.1c1.1-0.5,2.4-1.5,3.9-2.8c1.5-1.3,3.2-2.8,4.9-4.5c1.8-1.7,3.5-3.5,5.3-5.3
				c1.8-1.8,3.4-3.6,4.9-5.2c1.8-1.9,3.3-3.5,4.6-4.8c1.3-1.3,2-2,2.2-2.1c0.5-0.2,0.7-0.2,0.8-0.2c0-0.2,0.1-0.5,0.2-0.8
				C968.9,343.4,969.1,343.2,969.5,343z"/>
			<path id="XMLID_566_" class="st1" d="M996.8,349.8c-1.1,1.7-2.5,3.8-4.1,6.4c-1.7,2.6-3.3,5.2-4.8,8l3.4-4.1
				c1-1.1,1.9-2.3,2.8-3.3c0.8-1.1,1.6-2,2.3-2.8l0.7-0.8c1.1-1.2,2.5-2.8,4.4-4.7c1.8-1.9,3.7-3.7,5.7-5.3c2-1.6,3.8-2.8,5.6-3.6
				c1.8-0.8,3.1-0.7,4,0.4c0.7,0.8,0.9,2.1,0.7,4c-0.2,1.9-0.6,3.9-1,6.2c-0.3,1.3-0.6,2.7-0.9,4.1c-0.3,1.4-0.4,2.7-0.4,3.7
				c0,1.1,0.2,2,0.6,2.6c0.4,0.7,1.1,1,2.1,1c0.4,0,0.9-0.1,1.6-0.3c0.7-0.2,1.3-0.4,2-0.6c1.3-0.5,2.7-1.2,4.3-2.1
				c1.5-0.8,3.1-1.7,4.6-2.6c1.5-0.9,3-1.9,4.5-2.8c1.5-1,2.8-1.9,4-2.7l2.1-1.4c1-0.6,1.6-0.5,2,0.2c0,0.2-0.1,0.5-0.2,0.9
				c-0.2,0.3-0.4,0.6-0.8,0.7l-3.1,2.1c-1.9,1.3-3.8,2.6-5.7,3.8c-1.9,1.2-3.8,2.4-5.8,3.4c-2.5,1.5-4.7,2.5-6.4,3.1
				c-1.8,0.6-3.2,0.9-4.3,0.9c-1.6,0-2.7-0.5-3.3-1.4c-0.6-1-0.9-2.2-0.9-3.7c0-1.3,0.1-2.7,0.4-4.1c0.3-1.5,0.6-2.9,1-4.4
				c0.4-1.8,0.7-3.4,1-4.9c0.3-1.5,0.2-2.6-0.2-3.4c-0.3-0.7-1-0.8-2.1-0.2c-1.1,0.5-2.4,1.5-4,2.9c-1.5,1.4-3.2,3-5,4.9
				c-1.8,1.9-3.6,3.9-5.4,5.9c-1.8,2-3.5,3.9-5,5.8c-1.5,1.9-2.8,3.4-3.9,4.7V366l-2.3,2.9l-0.2,0.2c-0.3,0.4-0.7,0.8-1.1,1.3
				c-0.4,0.5-0.8,0.9-1.3,1.3c-0.4,0.4-0.9,0.7-1.3,0.9c-0.5,0.2-0.8,0.1-1.1-0.1c-0.2-0.2-0.1-0.8,0.3-1.9c0.5-1.1,1.1-2.5,2-4
				c0.9-1.6,1.9-3.3,3-5.2c1.1-1.9,2.2-3.6,3.2-5.3c1-1.6,2-3.1,2.8-4.4s1.3-2.1,1.6-2.5c0.5-0.7,1.1-1,1.7-1
				C997.1,348.2,997.4,348.8,996.8,349.8z"/>
			<path id="XMLID_568_" class="st1" d="M1118.7,299.2c-0.7,2.6-2.2,5.5-4.7,8.6c-2.4,3.1-5.4,6.3-8.9,9.5
				c-3.5,3.3-7.4,6.5-11.7,9.8c-4.3,3.3-8.5,6.4-12.8,9.4c-4.3,3-8.4,5.8-12.4,8.3c-3.9,2.6-7.4,4.8-10.4,6.6
				c-2.1,3.7-3.6,6.7-4.5,9.2c-0.9,2.5-1.4,4.4-1.4,6c0,2.1,1.1,3.2,3.2,3.2c1.6,0,3.6-0.5,6-1.4c2.4-1,5.1-2.3,8.1-4
				s6.2-3.8,9.8-6.1c3.5-2.3,7.2-4.9,10.9-7.6l2.2-1.6c0.2-0.3,0.6-0.5,1-0.5c0.4,0,0.7,0.1,1,0.4c0.2,0.2,0.2,0.4,0.1,0.8
				c-0.1,0.4-0.4,0.7-0.7,0.9c-2.3,1.8-4.8,3.6-7.5,5.6c-2.7,2-5.5,3.9-8.4,5.7c-2.9,1.8-5.7,3.5-8.5,5.1c-2.8,1.6-5.4,2.9-7.8,3.9
				h0.1c-1.5,0.6-2.9,1.1-4.1,1.3c-1.2,0.3-2.3,0.4-3.2,0.4c-1.8,0-3-0.5-3.8-1.4c-0.8-0.9-1.2-2.1-1.2-3.6c0-1.8,0.5-3.9,1.4-6.3
				c0.9-2.5,1.9-4.8,3-7c-1.5,1.1-3.1,2.2-4.8,3.3c-1.6,1.2-3.3,2.2-4.9,3.1c-1.6,0.9-3.2,1.7-4.7,2.2c-1.5,0.6-2.7,0.9-3.8,1
				c-1.7,0.2-2.7-0.3-2.9-1.3c-0.3-1,0-2.3,0.7-3.9c0.7-1.6,1.9-3.4,3.4-5.3c1.6-2,3.4-3.9,5.3-5.7c1.5-1.3,3-2.5,4.6-3.7
				c1.6-1.2,3.2-2.2,4.8-3c1.6-0.8,3.1-1.4,4.5-1.8c1.5-0.4,2.8-0.5,4-0.2c1.2,0.3,1.9,1,2.1,2.1c2.4-3.5,5.1-7.4,8.2-11.6
				c3.1-4.2,6.3-8.4,9.6-12.5c3.3-4.1,6.7-8,10-11.6c3.3-3.6,6.5-6.6,9.5-8.9c2.1-1.5,4.2-2.7,6.4-3.5c2.2-0.8,4.2-1.2,6-1.2
				c2.4,0,4.3,0.6,5.7,1.9C1118.7,295,1119.2,296.9,1118.7,299.2z M1058.6,346.2c-0.8,0.4-1.2,0.4-1.4,0c-0.6-0.5-0.5-1.1,0.5-1.8
				c0.5-0.4,0.9-0.9,1-1.4c0.1-0.6,0-0.9-0.4-1.1c-0.9-0.2-2,0-3.2,0.3c-1.2,0.4-2.5,0.9-3.8,1.7c-1.3,0.7-2.6,1.6-3.9,2.5
				c-1.3,1-2.6,2-3.8,3c-1.1,1.1-2.1,2.2-3.1,3.3c-1,1.1-1.9,2.2-2.7,3.2c-0.8,1-1.4,2-1.9,2.8c-0.5,0.8-0.7,1.5-0.7,2.1
				c0,0.9,1.1,1,3.3,0.2c2.2-0.8,5.9-2.9,11-6.3l6.7-4.7l1-1.6L1058.6,346.2z M1100.5,298.2c-3.3,2.5-6.8,5.8-10.6,10
				c-3.8,4.2-7.5,8.7-11.2,13.5c-3.6,4.8-7.1,9.4-10.3,14.1c-3.2,4.6-5.9,8.6-8,11.9c3-1.9,6.4-4.1,10.2-6.6
				c3.8-2.5,7.7-5.1,11.6-7.9c3.9-2.8,7.8-5.7,11.7-8.7c3.8-3,7.3-5.9,10.4-8.9c3.1-2.9,5.7-5.7,7.8-8.5c2.1-2.7,3.3-5.2,3.8-7.4
				c0.4-1.8,0-3.1-1-4c-1.1-0.9-2.5-1.3-4.3-1.3c-1.5,0-3.1,0.3-4.8,0.9C1103.9,296,1102.1,296.9,1100.5,298.2z"/>
			<path id="XMLID_572_" class="st1" d="M1261.3,294.3c-2.2,2.8-5.4,7-9.6,12.4c-4.2,5.4-8.8,11.7-14,18.7c0.6-0.2,1.2-0.3,1.9-0.5
				c0.7-0.2,1.3-0.3,1.9-0.3l1.8-0.3c0,0.1,0.2,0.1,0.6,0c0.4-0.1,0.8-0.2,1.1-0.2c1-0.2,2.3-0.4,3.8-0.6c1.5-0.3,3.2-0.5,4.9-0.7
				c1.8-0.2,3.6-0.4,5.5-0.6c1.9-0.2,3.7-0.2,5.3-0.2c2.8,0,5.3,0.3,7.3,0.9c2,0.6,3.2,1.7,3.5,3.2l0.1,0.9
				c-0.2,0.5-0.8,0.8-1.8,0.7c-1-0.2-1.5-0.7-1.5-1.4c0-0.4,0-0.7-0.1-0.8c-0.2-0.5-0.9-0.8-2-0.9c-1.1-0.2-2.4-0.2-3.9-0.2
				c-1.8,0-4,0.1-6.5,0.3c-2.5,0.2-5.1,0.5-7.8,0.9c-2.7,0.4-5.4,0.8-8.2,1.3c-2.8,0.5-5.4,0.9-7.9,1.4c-4.1,5.7-8.2,11.5-12.2,17.4
				c-4,5.9-7.6,11.6-10.9,17c-3.2,5.4-5.8,10.3-7.8,14.8c-2,4.4-3,8-3,10.6c0,2.1,0.8,3.5,2.3,3.9l1.5,0.3c0.9,0.2,1.1,0.7,0.5,1.5
				c-0.2,0.3-0.5,0.6-0.9,0.8c-0.4,0.2-0.7,0.3-1,0.3l-2-0.3c-2.2-0.8-3.3-2.6-3.3-5.4c0-2.7,0.9-6.1,2.6-10.3
				c1.8-4.2,4.1-8.9,7.1-14c3-5.1,6.3-10.5,10.1-16.2c3.8-5.7,7.6-11.4,11.6-17c-2.7,1.8-5.9,3.9-9.6,6.4c-3.7,2.5-7.6,5.1-11.5,7.9
				c-3.9,2.8-7.9,5.6-11.8,8.5c-3.9,2.8-7.4,5.5-10.3,7.9c0.2,0.7,0.4,1.5,0.5,2.4c0.1,0.9,0,1.9-0.3,3c-0.6,2.3-1.7,4-3.2,5.1
				c-1.5,1.1-3,1.7-4.4,1.7c-1.8,0-3-0.8-3.6-2.5c0.1-1,0.8-2.3,2.1-4c1.3-1.7,3.1-3.5,5.3-5.5c-0.5-0.9-1-1.7-1.5-2.4
				c-0.5-0.7-0.9-1.2-1.3-1.8l-1.5-2.2c-0.8-1.5-1.3-2.8-1.3-4.1c0-1.8,0.7-3.5,2-5.1c1.3-1.6,3-2.9,5-4.1c2-1.2,4.1-2,6.4-2.7
				c2.3-0.7,4.3-1,6.2-1c2.2,0,3.9,0.4,5,1.3c1.1,0.9,1.2,2.2,0.2,4.1c-0.7,1-1.4,1.5-2.1,1.6c-0.5,0-0.8-0.2-0.9-0.5
				c-0.2-0.3-0.2-0.7,0-1c0.5-1,0.4-1.7-0.3-2.2c-0.8-0.5-1.8-0.7-3.1-0.7c-1.5,0-3.1,0.2-4.8,0.7c-1.8,0.5-3.4,1.1-5,1.9
				c-1.6,0.8-2.9,1.8-3.9,2.9c-1,1.2-1.6,2.5-1.6,3.9c0,1,0.3,2,0.9,3.1c0.3,0.5,0.6,1,1,1.5s0.7,1,1.1,1.5c0.4,0.5,0.8,1,1.2,1.5
				c0.4,0.5,0.7,1,1,1.5c3.2-2.7,6.9-5.5,11-8.5c4.1-3,8.3-5.9,12.4-8.7c4.1-2.8,8-5.5,11.7-7.9c3.7-2.4,6.7-4.4,9-5.9
				c-1.3,0.3-2.6,0.6-3.9,0.7c-1.3,0.2-2.5,0.4-3.9,0.7c-0.1,0-0.4,0.1-1,0.2c-0.9,0.2-2.1,0.4-3.7,0.7c-1.5,0.3-3.2,0.6-5.1,0.9
				c-1.9,0.3-3.8,0.6-5.7,0.7c-2,0.2-3.8,0.3-5.5,0.3c-1.3,0-2.5-0.1-3.4-0.2c-1-0.2-1.8-0.4-2.5-0.7c-0.7-0.3-1.1-0.8-1.3-1.4
				c-0.2-0.6-0.1-1.3,0.3-2.2c0.2-0.2,0.4-0.3,0.7-0.5c0.3-0.2,0.7-0.2,1.1,0c1,0.7,1.4,1.4,1.3,2.2c-0.2,0.3-0.1,0.5,0.2,0.6
				c0.3,0.1,1.2,0.1,2.7,0c1.7,0,3.8-0.2,6.3-0.5s5.2-0.8,8.2-1.3c2.9-0.5,5.9-1,9-1.6c3.1-0.6,6-1.1,8.7-1.7l1.6-0.3
				c4.3-5.8,8.3-11.2,12-16c3.7-4.8,6.9-8.9,9.5-12.3l3-3.9c0.5-0.7,1.1-1,1.8-1c0.5,0,0.7,0.2,0.9,0.6c0.1,0.4,0,0.8-0.4,1.1V294.3
				z M1184.4,364.8c-2.5,2.2-4.2,3.9-4.9,4.9c-0.4,0.6-0.5,1.1-0.3,1.6c0.2,0.4,0.5,0.7,1,0.8s1,0,1.7-0.2c0.7-0.3,1.2-0.8,1.8-1.6
				C1184.6,368.5,1184.9,366.6,1184.4,364.8z"/>
			<path id="XMLID_575_" class="st1" d="M1270.1,345.1c0.2,0.5,0.1,1.2-0.3,2c-0.3,0.8-0.6,1.5-0.9,2.1v-0.1l-0.2,0.7
				c-1.6,4.1-2.4,7.1-2.4,9.2c0,1.8,0.8,2.6,2.4,2.6c2.4,0,7.2-2,14.5-6v0.1c2-1.1,3.9-2.2,5.7-3.3c1.8-1.1,3.8-2.3,5.7-3.5
				c0.4-0.2,0.8-0.3,1.1-0.3c0.4,0,0.7,0.2,0.8,0.5c0.2,0.4,0.1,0.7-0.2,1c-0.3,0.3-0.6,0.5-0.9,0.6c-1.9,1.2-4.1,2.5-6.7,4
				c-2.5,1.5-5.1,3-7.7,4.4c-2.6,1.4-5.1,2.5-7.5,3.5c-2.4,1-4.4,1.4-6,1.4c-1.6,0-2.8-0.5-3.6-1.5c-0.8-1-1-2.7-0.6-5.2
				c0.2-0.8,0.6-2,1.1-3.4c0.5-1.5,1-2.8,1.4-4l-0.2,0.2c-1.5,1.6-3.3,3.4-5.2,5.5c-1.9,2-3.9,4.1-6,6.1c-2.1,2-4.1,3.9-6.1,5.6
				c-2,1.7-3.8,3-5.4,3.9c-0.7,0.4-1.5,0.7-2.4,0.9c-0.9,0.2-1.6,0.2-2.3-0.1c-0.7-0.2-1.1-0.7-1.4-1.5c-0.3-0.8-0.2-1.8,0.2-3.2
				c0.3-0.9,0.7-1.9,1.3-3c0.5-1.1,1.1-2.2,1.8-3.2c0.7-1,1.3-2,2-2.9c0.7-0.9,1.3-1.7,1.8-2.4c2.7-3.2,5.3-5.9,7.8-8
				c2.5-2.1,4.9-3.9,7.1-5.2c2.2-1.3,4.2-2.3,6-2.8c1.8-0.5,3.3-0.8,4.5-0.8c1.2,0,2.1,0.2,2.8,0.7c0.6,0.5,0.9,1,0.9,1.7
				c0,1.1-0.8,2.2-2.4,3.4L1270.1,345.1z M1269.6,343c0.8-0.5,1-1,0.8-1.4c-0.2-0.4-0.8-0.6-1.8-0.5c-1,0-2.3,0.3-3.9,0.9
				c-1.6,0.6-3.5,1.5-5.5,2.8c-1.6,1-3.4,2.5-5.5,4.4c-2.1,2-4.1,4-6,6.2c-2,2.2-3.7,4.4-5.1,6.6c-1.5,2.2-2.4,4-2.8,5.5
				c-0.2,0.8-0.1,1.3,0.3,1.7c0.5,0.4,1.1,0.4,1.8,0.1c1.1-0.5,2.4-1.5,3.9-2.8c1.5-1.3,3.2-2.8,4.9-4.5c1.8-1.7,3.5-3.5,5.3-5.3
				c1.8-1.8,3.4-3.6,4.9-5.2c1.8-1.9,3.3-3.5,4.6-4.8c1.3-1.3,2-2,2.2-2.1c0.5-0.2,0.7-0.2,0.8-0.2c0-0.2,0.1-0.5,0.2-0.8
				C1269,343.4,1269.2,343.2,1269.6,343z"/>
			<path id="XMLID_578_" class="st1" d="M1290.6,354.4c1.7-2.7,3.6-5.7,5.7-8.9c2.1-3.3,4.4-6.6,6.9-10.2c2.5-3.5,5-7.1,7.7-10.7
				c2.7-3.6,5.4-7.1,8.3-10.5c2.8-3.4,5.7-6.6,8.6-9.6c2.9-3,5.8-5.6,8.6-7.9c2.4-1.7,4.7-2.9,6.9-3.7c2.2-0.8,4.3-1.2,6.1-1.2
				c2.4,0,4.2,0.6,5.5,1.8c1.3,1.2,1.7,3,1.3,5.3c-0.5,2.5-1.9,5.3-4.3,8.4c-2.4,3.1-5.3,6.2-8.8,9.4c-3.5,3.2-7.4,6.5-11.7,9.8
				c-4.3,3.3-8.6,6.5-12.9,9.5c-4.3,3-8.5,5.8-12.5,8.4c-4,2.6-7.5,4.8-10.5,6.6l-3.6,5.5c-0.6,1-1.3,2.2-2.1,3.7
				c-0.8,1.5-1.4,2.9-1.9,4.3c-0.5,1.4-0.7,2.6-0.7,3.7c0,1.1,0.5,1.7,1.4,2c2.3-0.2,4.3-0.9,6.2-2.1c1.8-1.3,3.4-3,4.9-5.2
				c0.6-0.8,1.2-1.9,1.7-3c0.5-1.2,0.9-2.4,1.2-3.7c-1.5-0.3-2.6-0.8-3.2-1.6c-0.5-0.5-0.7-1-0.9-1.6c-0.1-0.6-0.1-1.2,0.2-1.8
				c0.2-0.6,0.6-1.1,1.2-1.5c0.6-0.4,1.3-0.7,2.2-0.7c1.5-0.2,2.5,0.2,3.1,1.2c0.6,0.9,0.8,2.2,0.7,3.8l1.8,0.5
				c1.1,0.1,2.6,0.1,4.5,0.1c2,0,4-0.2,6.2-0.5c2.1-0.3,4.2-0.8,6.2-1.5c2-0.7,3.6-1.6,4.8-2.8v0.1c0.6-0.6,1.2-0.9,1.8-0.9
				c0.4,0.2,0.6,0.4,0.5,0.9c0,0.4-0.3,0.9-0.6,1.3c-1.1,1.1-2.5,2.1-4.1,2.9c-1.6,0.8-3.3,1.4-5.2,1.9c-1.8,0.5-3.7,0.9-5.7,1.1
				c-2,0.2-3.9,0.3-5.7,0.3c-1.9,0-3.7-0.1-5.3-0.3c-0.4,1.5-1,3.1-2,4.7c-0.9,1.6-2,3.2-3.3,4.7c-1.3,1.5-2.7,2.8-4.3,4
				c-1.6,1.1-3.2,2-5,2.4c-2.5,0.6-4.2,0.6-5.2,0c-1-0.6-1.5-1.6-1.5-3.1c0-1,0.2-2.1,0.7-3.4c0.5-1.3,1-2.6,1.7-4
				c0.7-1.4,1.4-2.7,2.1-4C1289.3,356.6,1290,355.4,1290.6,354.4z M1337.9,298.2c-3.1,2.5-6.5,5.6-10,9.5c-3.5,3.9-7.1,8-10.6,12.5
				c-3.5,4.5-6.9,9-10.2,13.7c-3.3,4.6-6.2,9-8.9,12.9c3-1.8,6.4-4,10.1-6.4c3.8-2.5,7.6-5.1,11.6-7.9c3.9-2.8,7.8-5.7,11.6-8.6
				c3.8-3,7.2-5.9,10.3-8.7c3.1-2.9,5.7-5.7,7.7-8.3c2-2.7,3.3-5.1,3.7-7.4c0.4-1.8,0-3-1-3.9c-1.1-0.8-2.5-1.2-4.3-1.2
				c-1.5,0-3.2,0.3-5,0.9C1341.2,295.9,1339.5,296.9,1337.9,298.2z"/>
			<path id="XMLID_581_" class="st1" d="M1391.7,298.9c-0.6,2.5-2.1,5.3-4.5,8.4c-2.4,3.1-5.4,6.2-8.9,9.4
				c-3.5,3.2-7.4,6.5-11.7,9.8c-4.3,3.3-8.5,6.4-12.8,9.4c-4.3,3-8.4,5.8-12.3,8.3c-3.9,2.6-7.4,4.7-10.3,6.5
				c-2.2,3.9-3.8,7.2-4.8,9.8c-1,2.6-1.5,4.7-1.5,6.2c0,2.1,1.1,3.2,3.2,3.2c1.5,0,3.5-0.5,5.9-1.4c2.4-1,5.1-2.3,8.1-4
				s6.2-3.8,9.8-6.1c3.5-2.3,7.2-4.9,10.9-7.6l2.2-1.6c1-0.5,1.6-0.6,2-0.1v-0.1c0.2,0.2,0.3,0.5,0.1,0.9c-0.2,0.4-0.4,0.7-0.8,0.9
				c-2.2,1.7-4.7,3.5-7.5,5.5c-2.8,2-5.6,3.9-8.5,5.7c-2.9,1.8-5.7,3.6-8.5,5.2c-2.8,1.6-5.3,2.9-7.5,3.9c-1.5,0.6-3,1.1-4.3,1.4
				c-1.3,0.3-2.4,0.5-3.2,0.5c-1.8,0-3-0.4-3.7-1.3c-0.7-0.9-1.1-2-1.1-3.5c0-1.1,0.2-2.5,0.6-3.9c0.4-1.5,1-3,1.7-4.6
				c0.7-1.6,1.5-3.3,2.4-5c0.9-1.7,1.8-3.4,2.7-5c1.4-2.4,2.7-4.6,4.1-6.6c1.3-2,2.4-3.5,3.3-4.6v-0.1c2.4-3.4,5.1-7.1,8-11.1
				c3-3.9,6-7.8,9.1-11.6s6.2-7.3,9.3-10.6c3.1-3.3,6-6.1,8.8-8.3c2.1-1.5,4.3-2.7,6.6-3.6c2.3-0.8,4.4-1.3,6.2-1.3
				c2.3,0,4.1,0.6,5.5,1.8C1391.7,294.8,1392.2,296.6,1391.7,298.9z M1373.3,298.2c-2.1,1.7-4.4,3.8-6.8,6.2c-2.4,2.5-4.8,5.1-7.2,8
				c-2.5,2.9-4.9,5.9-7.3,9c-2.4,3.1-4.7,6.2-6.9,9.2c-2.2,3-4.2,5.9-6.2,8.7c-1.9,2.8-3.6,5.3-5.1,7.5c3-1.8,6.3-4,10.1-6.4
				c3.7-2.5,7.5-5.1,11.5-7.8c3.9-2.8,7.8-5.6,11.6-8.6c3.8-3,7.2-5.9,10.3-8.7c3.1-2.9,5.6-5.7,7.6-8.3c2-2.7,3.3-5.1,3.7-7.4
				c0.4-1.7,0.1-3-1-3.8c-1-0.8-2.4-1.3-4.2-1.3C1380.3,294.4,1376.9,295.7,1373.3,298.2z"/>
			<path id="XMLID_584_" class="st1" d="M1370.1,355.4c-2.1,1.5-4,2.6-5.9,3.3c-1.9,0.7-3.7,1.2-5.6,1.4c-0.8,1.3-1.4,2.5-1.8,3.7
				c-0.4,1.2-0.6,2.2-0.6,3.2c0,1.4,0.4,2.3,1.3,2.6c0.8,0.4,1.9,0.5,3.3,0.4c1.5-0.1,3.4-0.6,5.7-1.6c3.8-1.4,7.9-3.3,12.3-5.8
				c4.4-2.5,8.8-5,13-7.6c3.3-2.1,6.4-4.1,9.3-6c0.4-0.3,0.8-0.4,1.2-0.4c0.4,0,0.7,0.2,0.8,0.4c0.2,0.6-0.1,1.2-0.9,1.8l-3.1,2
				c-1.1,0.6-2.1,1.3-3.1,2c-1,0.7-2,1.4-3.1,2c-2.2,1.4-4.5,2.8-6.8,4.1s-4.6,2.7-6.9,4c-2.3,1.3-4.5,2.4-6.6,3.4
				c-2.1,1-4.1,1.9-5.9,2.6c-3.2,1.2-5.9,1.7-8,1.7c-1.8,0-3.1-0.4-4.1-1.3c-0.9-0.8-1.4-1.9-1.4-3.4c0-1.8,0.7-4.1,2.1-6.8
				c0.5-1,1.3-2.2,2.3-3.6c1-1.4,2.1-2.8,3.3-4.1c1.5-1.8,3.2-3.4,5-5.1c1.8-1.6,3.5-2.8,5-3.4c1.9-0.8,3.4-1.1,4.4-0.7
				c1,0.4,1.5,1.1,1.4,2.2c0,1.1-0.6,2.5-1.7,4C1373.8,352.2,1372.2,353.7,1370.1,355.4z M1362.8,354.4c-1.2,1.2-2,2.2-2.4,2.9
				c1.8-0.4,3.5-1,5.3-1.8c1.8-0.8,3.5-2,5.2-3.5c1.1-1.1,1.8-2,2.2-2.9c0.4-0.8,0.6-1.5,0.4-1.8c-0.5-0.5-1.6-0.2-3.5,0.7
				C1368.1,349,1365.8,351.1,1362.8,354.4z"/>
		</g>
	</g>
	<g id="XMLID_116_">
		<path id="XMLID_291_" class="st1" d="M125,398c0,69,56,125,125,125c138.1,0,250-111.9,250-250C500,136,390.6,1.7,254,0
			c67.5,1.7,121,80,121,148c0,69-56,125-125,125C180.9,273,125,329,125,398z"/>
		<g id="XMLID_138_">
			<linearGradient id="XMLID_9_" gradientUnits="userSpaceOnUse" x1="60.2024" y1="109.2441" x2="321.0732" y2="370.1149">
				<stop  offset="0" style="stop-color:#54D883"/>
				<stop  offset="0.7632" style="stop-color:#093A21"/>
			</linearGradient>
			<path id="XMLID_157_" class="st2" d="M154.5,493.5C129,468,115,434.1,115,398s14-70,39.5-95.5C180,277,213.9,263,250,263
				c63.4,0,115-51.6,115-115c0-31.2-12.4-65.9-33.1-92.7c-5.8-7.6-11.3-13.6-17.9-19.3c-1.3-1.2-2.8-2.2-8.4-5.2
				c-5-2.7-13.6-4.2-17-4.8c-12.6-2-25.5-3-38.7-3C111.9,23,0,134.9,0,273c0,113.2,75.3,208.9,178.6,239.6
				C169.9,507.2,161.9,500.8,154.5,493.5z"/>
		</g>
		<g id="XMLID_140_">
			<g id="XMLID_72_">
				<path id="XMLID_48_" class="st3" d="M197.8,431.1c0,0,5.5-0.9,15.2-2.6c2.4-0.4,5-1,7.8-1.6c2.8-0.6,5.9-1.2,9.2-2
					c3.3-0.8,6.7-1.7,10.4-2.6c0.9-0.2,1.8-0.5,2.8-0.7c0.9-0.3,1.9-0.5,2.8-0.8c1.9-0.6,3.9-1.1,5.8-1.7c2-0.6,4-1.1,6.1-1.8
					c2-0.7,4.1-1.4,6.2-2.1c2.1-0.7,4.3-1.4,6.4-2.2c2.1-0.8,4.3-1.7,6.5-2.6c1.1-0.4,2.2-0.9,3.3-1.3c1.1-0.4,2.3-0.9,3.4-1.4
					c2.2-1,4.5-2,6.8-3c1.1-0.5,2.3-1,3.4-1.5c1.1-0.5,2.3-1.1,3.4-1.7c2.3-1.1,4.6-2.3,6.9-3.5c9.1-4.9,18.4-10.3,27.2-16.8
					c1.1-0.8,2.2-1.6,3.3-2.4c1.1-0.8,2.2-1.7,3.2-2.5c2.1-1.7,4.3-3.4,6.5-5.1c2.1-1.8,4.2-3.6,6.2-5.4l1.6-1.4l1.5-1.4l3-2.9
					c7.9-7.8,15.3-16,21.7-24.9c6.4-8.8,12.1-18,16.9-27.2c4.7-9.3,8.6-18.6,11.8-27.6c0.8-2.3,1.5-4.5,2.2-6.7
					c0.8-2.2,1.3-4.4,2-6.6c1.3-4.3,2.2-8.6,3.3-12.6c1.8-8.2,3.1-15.7,4-22.5c0.2-1.7,0.4-3.3,0.6-4.9c0.2-1.6,0.3-3.1,0.5-4.6
					c0.3-2.9,0.6-5.6,0.7-8.1c0.1-2.4,0.3-4.6,0.4-6.5c0.1-1.9,0.1-3.5,0.1-4.8c0.1-2.6,0.1-4,0.1-4s0,1.4,0,4c0,1.3,0,2.9,0,4.8
					c-0.1,1.9-0.1,4.1-0.2,6.5c0,2.5-0.3,5.2-0.4,8.1c-0.1,1.5-0.2,3-0.3,4.6c-0.2,1.6-0.3,3.2-0.5,4.9c-0.7,6.8-1.8,14.4-3.4,22.7
					c-0.9,4.1-1.7,8.4-2.9,12.8c-0.6,2.2-1.1,4.5-1.8,6.7c-0.7,2.2-1.4,4.5-2.1,6.8c-3,9.2-6.7,18.7-11.2,28.3
					c-4.6,9.5-10.1,19-16.4,28.2c-6.2,9.2-13.6,17.9-21.4,26.1l-3,3l-1.5,1.5l-1.6,1.4c-2.1,1.9-4.2,3.8-6.2,5.8
					c-2.1,1.9-4.3,3.6-6.5,5.4c-1.1,0.9-2.1,1.8-3.3,2.7c-1.1,0.8-2.2,1.7-3.4,2.5c-8.8,6.9-18.2,12.6-27.4,18
					c-2.3,1.3-4.7,2.5-7,3.8c-1.2,0.6-2.3,1.2-3.4,1.8c-1.2,0.6-2.3,1.1-3.5,1.7c-2.3,1.1-4.6,2.2-6.8,3.3c-1.1,0.6-2.3,1-3.4,1.5
					c-1.1,0.5-2.3,1-3.4,1.4c-2.2,1-4.5,1.9-6.6,2.8c-2.2,0.9-4.4,1.7-6.5,2.5c-2.1,0.8-4.3,1.6-6.3,2.4c-2.1,0.8-4.2,1.4-6.2,2
					c-2,0.7-4,1.3-5.9,1.9c-1,0.3-1.9,0.6-2.9,0.9c-1,0.3-1.9,0.5-2.8,0.8c-3.7,1-7.3,2-10.6,3c-3.3,0.9-6.5,1.6-9.4,2.3
					c-2.9,0.7-5.6,1.4-8,1.9c-9.6,1.9-15.1,3-15.1,3c-2.7,0.5-5.3-1.2-5.9-3.9c-0.5-2.7,1.2-5.3,3.9-5.9
					C197.7,431.1,197.8,431.1,197.8,431.1z"/>
			</g>
		</g>
	</g>
</g>
</svg>
