<?xml version="1.0" encoding="utf-8"?>
<!-- Generator: Adobe Illustrator 19.0.0, SVG Export Plug-In . SVG Version: 6.00 Build 0)  -->
<svg version="1.1" id="Layer_1" xmlns="http://www.w3.org/2000/svg" xmlns:xlink="http://www.w3.org/1999/xlink" x="0px" y="0px"
	 viewBox="0 0 636.1 197" style="enable-background:new 0 0 636.1 197;" xml:space="preserve">
<style type="text/css">
	.st0{fill:#FFFFFF;}
	.st1{filter:url(#Adobe_OpacityMaskFilter);}
	.st2{mask:url(#XMLID_44_);}
	.st3{filter:url(#Adobe_OpacityMaskFilter_1_);}
	.st4{fill:#D1D3D4;}
	.st5{fill:url(#XMLID_47_);}
	.st6{fill:url(#XMLID_48_);}
	.st7{fill:url(#XMLID_50_);}
	.st8{fill:url(#XMLID_51_);}
	.st9{fill:url(#XMLID_53_);}
</style>
<g id="XMLID_479_">
	<g id="XMLID_609_">
		<g id="XMLID_617_">
			<g id="XMLID_633_">
				<path id="XMLID_696_" class="st0" d="M359.2,173.5c-1.7,0.4-3.3,0.5-4.6,0.5c-1.4,0-2.5-0.2-3.3-0.6c-0.8-0.4-1.5-1-2-1.8
					c-0.5-0.8-0.8-1.7-1-2.7c-0.2-1-0.3-2.3-0.3-3.8c0-1.5,0.1-2.8,0.3-3.9c0.2-1,0.5-2,1-2.8c0.5-0.8,1.1-1.4,1.9-1.8
					c0.8-0.4,1.9-0.6,3.3-0.6s2.9,0.2,4.7,0.6l-0.1,1.6c-1.7-0.3-3.2-0.5-4.5-0.5c-1.8,0-3.1,0.5-3.6,1.6c-0.6,1.1-0.9,3-0.9,5.6
					c0,1.3,0.1,2.4,0.2,3.2c0.1,0.8,0.3,1.5,0.6,2.2c0.3,0.6,0.8,1.1,1.4,1.4c0.6,0.3,1.5,0.4,2.7,0.4s2.6-0.2,4.2-0.5L359.2,173.5z
					"/>
				<path id="XMLID_693_" class="st0" d="M405.2,165.2c0,3.1-0.5,5.3-1.5,6.7c-1,1.4-2.8,2.1-5.4,2.1c-2.6,0-4.4-0.7-5.4-2.1
					s-1.5-3.7-1.5-6.7c0-3,0.5-5.3,1.5-6.8c1-1.5,2.8-2.2,5.3-2.2c2.6,0,4.3,0.7,5.3,2.2C404.7,159.9,405.2,162.1,405.2,165.2z
					 M393.4,165.2c0,2.5,0.3,4.4,1,5.5c0.7,1.1,2,1.7,3.9,1.7c1.9,0,3.2-0.5,3.9-1.6c0.7-1.1,1-2.9,1-5.5c0-2.6-0.3-4.4-1-5.6
					c-0.7-1.2-2-1.8-3.8-1.8s-3.2,0.6-3.8,1.7C393.8,160.8,393.4,162.6,393.4,165.2z"/>
				<path id="XMLID_690_" class="st0" d="M443.6,157.9c-2.5,0-3.8,0.9-3.8,2.8c0,1.1,0.3,1.8,0.9,2.2c0.6,0.4,1.7,0.8,3.5,1.2
					c1.8,0.4,3,0.9,3.7,1.5c0.7,0.6,1.1,1.7,1.1,3.1c0,3.6-1.8,5.3-5.5,5.3c-1.2,0-2.7-0.1-4.6-0.4l-0.9-0.1l0.2-1.6
					c2.3,0.3,4,0.5,5.2,0.5c2.5,0,3.7-1.2,3.7-3.5c0-0.9-0.3-1.6-0.8-2c-0.5-0.4-1.6-0.8-3-1c-2-0.4-3.3-1-4.2-1.6
					c-0.8-0.7-1.2-1.8-1.2-3.3c0-3.1,1.9-4.7,5.6-4.7c1.2,0,2.7,0.1,4.4,0.4l0.9,0.1l-0.2,1.6C446.2,158,444.5,157.9,443.6,157.9z"
					/>
				<path id="XMLID_687_" class="st0" d="M488.8,167.9h-4.4v5.8h-1.9v-17.3h6.3c1.9,0,3.3,0.5,4.2,1.4c0.9,0.9,1.4,2.3,1.4,4.2
					C494.3,166,492.5,167.9,488.8,167.9z M484.4,166.2h4.4c2.4,0,3.6-1.4,3.6-4.2c0-1.3-0.3-2.3-0.9-2.9c-0.6-0.6-1.5-0.9-2.7-0.9
					h-4.4V166.2z"/>
				<path id="XMLID_639_" class="st0" d="M536.9,173.8h-9.5v-17.3h1.9v15.6h7.6V173.8z"/>
				<path id="XMLID_636_" class="st0" d="M567.9,173.8l4.8-17.3h4.2l4.8,17.3h-1.9l-1.3-4.5h-7.4l-1.3,4.5H567.9z M574.1,158.1
					l-2.6,9.5h6.6l-2.6-9.5H574.1z"/>
				<path id="XMLID_634_" class="st0" d="M618.8,173.8h-1.9v-7.3l-5.5-10h2.2l4.3,8.1l4.3-8.1h2.2l-5.5,10V173.8z"/>
			</g>
			<g id="XMLID_618_">
				<path id="XMLID_631_" class="st0" d="M394.4,62.7v75.9h-19.7v-31.9h-5.9v31.9H349V62.7h19.7v27.1h5.9V62.7H394.4z"/>
				<path id="XMLID_627_" class="st0" d="M447.4,107.2c0,7.6-0.2,13-0.5,16.2c-0.4,3.2-1.5,6.1-3.4,8.7c-1.9,2.6-4.4,4.6-7.7,6
					c-3.2,1.4-7,2.1-11.3,2.1c-4.1,0-7.7-0.7-10.9-2s-5.8-3.3-7.8-6c-2-2.7-3.1-5.5-3.5-8.7c-0.4-3.1-0.6-8.6-0.6-16.4v-13
					c0-7.6,0.2-13,0.5-16.2c0.4-3.2,1.5-6.1,3.4-8.7c1.9-2.6,4.4-4.6,7.7-6c3.2-1.4,7-2.1,11.3-2.1c4.1,0,7.7,0.7,10.9,2
					c3.2,1.3,5.8,3.3,7.8,6c2,2.7,3.1,5.5,3.5,8.7c0.4,3.1,0.6,8.6,0.6,16.4V107.2z M427.7,82.2c0-3.5-0.2-5.8-0.6-6.8
					c-0.4-1-1.2-1.5-2.4-1.5c-1,0-1.8,0.4-2.4,1.2c-0.5,0.8-0.8,3.1-0.8,7.1v35.4c0,4.4,0.2,7.1,0.5,8.2c0.4,1,1.2,1.5,2.5,1.5
					c1.3,0,2.2-0.6,2.6-1.8c0.4-1.2,0.6-4,0.6-8.5V82.2z"/>
				<path id="XMLID_625_" class="st0" d="M498.8,62.7v75.9h-17.3l-10.3-34.5v34.5h-16.5V62.7h16.5l11.1,34.2V62.7H498.8z"/>
				<path id="XMLID_623_" class="st0" d="M506.8,62.7h32.9v15.2h-13.2v14.4h12.3v14.4h-12.3v16.7H541v15.2h-34.2V62.7z"/>
				<path id="XMLID_621_" class="st0" d="M588.5,85.7h-18.3v-5.6c0-2.6-0.2-4.3-0.7-5c-0.5-0.7-1.3-1.1-2.3-1.1
					c-1.2,0-2.1,0.5-2.7,1.5s-0.9,2.4-0.9,4.4c0,2.5,0.3,4.4,1,5.7c0.7,1.3,2.5,2.8,5.6,4.6c8.8,5.2,14.3,9.5,16.6,12.8
					c2.3,3.3,3.4,8.7,3.4,16.2c0,5.4-0.6,9.4-1.9,12c-1.3,2.6-3.7,4.7-7.3,6.4c-3.6,1.7-7.8,2.6-12.7,2.6c-5.3,0-9.8-1-13.5-3
					c-3.7-2-6.2-4.5-7.3-7.6c-1.2-3.1-1.7-7.5-1.7-13.2v-5H564v9.2c0,2.8,0.3,4.7,0.8,5.5c0.5,0.8,1.4,1.2,2.7,1.2s2.3-0.5,2.9-1.5
					c0.6-1,1-2.6,1-4.6c0-4.5-0.6-7.4-1.8-8.8c-1.3-1.4-4.3-3.7-9.2-6.9c-4.9-3.3-8.2-5.6-9.8-7.1c-1.6-1.5-2.9-3.5-4-6.1
					c-1-2.6-1.6-5.9-1.6-9.9c0-5.8,0.7-10.1,2.2-12.8c1.5-2.7,3.9-4.8,7.2-6.3c3.3-1.5,7.3-2.3,12-2.3c5.1,0,9.5,0.8,13.1,2.5
					c3.6,1.7,6,3.7,7.2,6.3c1.2,2.5,1.8,6.8,1.8,12.8V85.7z"/>
				<path id="XMLID_619_" class="st0" d="M636.1,62.7v15.2h-11.7v60.7h-19.7V77.9h-11.7V62.7H636.1z"/>
			</g>
		</g>
		<path id="wing_18_" class="st0" d="M212,0.5C131.5,2.6,55.1,58.9,0.4,5c0,0,26.4,68,161.5,24c48.7-15.9,81.1-17.3,102.6-12.3
			c-27.7,0.8-64.2,9.6-109.5,34.3c-84.3,46-123.4,9.5-123.4,9.5c38.7,38,108.8,40.4,170,32.9c-9.2,9.4-29,23.1-67.6,25.4
			c0,0,63,5.3,114.5-32.9c-12.5,23-39.4,62.4-72.4,51.5c0,0,33,26.8,85.7-13.3c-6.9,54-62.5,66.9-62.5,66.9
			c79.2,15.7,124.8-41.1,124.6-111c-0.1-44.7,17.7-38.4,24.4-33.9C348.3,46.1,308.6-2,212,0.5z"/>
	</g>
	<g id="XMLID_284_">
		<path id="wing_19_" class="st0" d="M211.6,0.1C131.1,2.2,54.7,58.5,0,4.6c0,0,26.4,68,161.5,24c48.7-15.9,81.1-17.3,102.6-12.3
			c-27.7,0.8-64.2,9.6-109.5,34.3C70.3,96.5,31.3,60,31.3,60c38.7,38,108.8,40.4,170,32.9c-9.2,9.4-29,23.1-67.6,25.4
			c0,0,63,5.3,114.5-32.9c-12.5,23-39.4,62.4-72.4,51.5c0,0,33,26.8,85.7-13.3c-6.9,54-62.5,66.9-62.5,66.9
			c79.2,15.7,124.8-41.1,124.6-111c-0.1-44.7,17.7-38.4,24.4-33.9C347.9,45.7,308.2-2.4,211.6,0.1z"/>
		<defs>
			<filter id="Adobe_OpacityMaskFilter" filterUnits="userSpaceOnUse" x="0" y="0" width="347.9" height="197">
				<feColorMatrix  type="matrix" values="1 0 0 0 0  0 1 0 0 0  0 0 1 0 0  0 0 0 1 0"/>
			</filter>
		</defs>
		<mask maskUnits="userSpaceOnUse" x="0" y="0" width="347.9" height="197" id="XMLID_44_">
			<g id="XMLID_17_" class="st1">
				<path id="wing_2_" class="st0" d="M211.6,0.1C131.1,2.2,54.7,58.5,0,4.6c0,0,26.4,68,161.5,24c48.7-15.9,81.1-17.3,102.6-12.3
					c-27.7,0.8-64.2,9.6-109.5,34.3C70.3,96.5,31.3,60,31.3,60c38.7,38,108.8,40.4,170,32.9c-9.2,9.4-29,23.1-67.6,25.4
					c0,0,63,5.3,114.5-32.9c-12.5,23-39.4,62.4-72.4,51.5c0,0,33,26.8,85.7-13.3c-6.9,54-62.5,66.9-62.5,66.9
					c79.2,15.7,124.8-41.1,124.6-111c-0.1-44.7,17.7-38.4,24.4-33.9C347.9,45.7,308.2-2.4,211.6,0.1z"/>
			</g>
		</mask>
		<g id="XMLID_285_" class="st2">
			<g id="XMLID_158_">
				<defs>
					<filter id="Adobe_OpacityMaskFilter_1_" filterUnits="userSpaceOnUse" x="0" y="3.9" width="347.9" height="193.2">
						<feColorMatrix  type="matrix" values="1 0 0 0 0  0 1 0 0 0  0 0 1 0 0  0 0 0 1 0"/>
					</filter>
				</defs>
				<mask maskUnits="userSpaceOnUse" x="0" y="3.9" width="347.9" height="193.2" id="XMLID_44_">
					<g id="XMLID_170_" class="st3">
						<path id="wing_9_" class="st0" d="M211.6,4C131.1,6,54.7,62.4,0,8.4c0,0,26.4,68,161.5,24c48.7-15.9,81.1-17.3,102.6-12.3
							c-27.7,0.8-64.2,9.6-109.5,34.3c-84.3,46-123.4,9.5-123.4,9.5c38.7,38,108.8,40.4,170,32.9c-9.2,9.4-29,23.1-67.6,25.4
							c0,0,63,5.3,114.5-32.9c-12.5,23-39.4,62.4-72.4,51.5c0,0,33,26.8,85.7-13.3c-6.9,54-62.5,66.9-62.5,66.9
							c79.2,15.7,124.8-41.1,124.6-111c-0.1-44.7,17.7-38.4,24.4-33.9C347.9,49.5,308.2,1.5,211.6,4z"/>
					</g>
				</mask>
				<g id="XMLID_169_">
					<g id="XMLID_171_">
						<g id="XMLID_180_">
							<path id="XMLID_181_" class="st4" d="M36.8,39.9C87.6,55.7,150.7,17.7,216.6,16c61-1.6,99.3,17,119.2,30.9
								c4.6-1.4,9.3,0.8,12.1,2.7c0,0-39.7-48.1-136.4-45.6C131.1,6,54.7,62.4,0,8.4C0,8.4,7.8,28.6,36.8,39.9z"/>
						</g>
						<g id="XMLID_178_">
							<path id="XMLID_179_" class="st4" d="M159.7,66.4c45.3-24.7,81.7-33.5,109.5-34.3c-17.9-4.2-43.3-3.9-79.2,5.4
								c-11.1,4.5-22.8,10.1-35.2,16.9c-84.3,46-123.4,9.5-123.4,9.5C43,75.4,57.5,83.6,73.9,89.3C94,90.9,122.4,86.7,159.7,66.4z"
								/>
						</g>
						<g id="XMLID_176_">
							<path id="XMLID_177_" class="st4" d="M226.5,197c16.3-9.3,36-26.7,39.9-57.5c-3.4,2.6-6.7,4.9-9.9,6.9
								c-15.4,38.2-57.6,48-57.6,48C208.7,196.3,217.8,197.2,226.5,197z"/>
						</g>
						<g id="XMLID_174_">
							<path id="XMLID_175_" class="st4" d="M211.7,149.3c18.5-10.2,33.2-32.7,41.4-47.9c-7,5.2-14.2,9.6-21.4,13.3
								c-14.2,18-33.7,33.6-56,26.2C175.8,140.8,188.9,151.4,211.7,149.3z"/>
						</g>
						<g id="XMLID_172_">
							<path id="XMLID_173_" class="st4" d="M201.7,113c1.7-1.4,3.2-2.8,4.5-4.2c-8.5,1-17.1,1.9-25.8,2.4
								c-11.1,5.3-26.3,9.7-46.8,11C133.7,122.3,165.1,124.9,201.7,113z"/>
						</g>
					</g>
				</g>
				<g id="XMLID_167_">
					<linearGradient id="XMLID_47_" gradientUnits="userSpaceOnUse" x1="0" y1="22.8444" x2="347.926" y2="22.8444">
						<stop  offset="0" style="stop-color:#F9ED32"/>
						<stop  offset="1" style="stop-color:#F15A29"/>
					</linearGradient>
					<path id="XMLID_168_" class="st5" d="M36.8,36c50.7,15.8,113.9-22.2,179.7-23.9c61-1.6,99.3,17,119.2,30.9
						c4.6-1.4,9.3,0.8,12.1,2.7c0,0-39.7-48.1-136.4-45.6C131.1,2.2,54.7,58.5,0,4.6C0,4.6,7.8,24.8,36.8,36z"/>
				</g>
				<g id="XMLID_165_">
					<linearGradient id="XMLID_48_" gradientUnits="userSpaceOnUse" x1="31.2549" y1="55.7328" x2="269.1437" y2="55.7328">
						<stop  offset="0" style="stop-color:#F9ED32"/>
						<stop  offset="1" style="stop-color:#F15A29"/>
					</linearGradient>
					<path id="XMLID_166_" class="st6" d="M159.7,62.6c45.3-24.7,81.7-33.5,109.5-34.3c-17.9-4.2-43.3-3.9-79.2,5.4
						c-11.1,4.5-22.8,10.1-35.2,16.9C70.3,96.5,31.3,60,31.3,60C43,71.5,57.5,79.8,73.9,85.4C94,87.1,122.4,82.9,159.7,62.6z"/>
				</g>
				<g id="XMLID_163_">
					<linearGradient id="XMLID_50_" gradientUnits="userSpaceOnUse" x1="198.9718" y1="164.3965" x2="266.423" y2="164.3965">
						<stop  offset="0" style="stop-color:#F9ED32"/>
						<stop  offset="1" style="stop-color:#F15A29"/>
					</linearGradient>
					<path id="XMLID_164_" class="st7" d="M226.5,193.2c16.3-9.3,36-26.7,39.9-57.5c-3.4,2.6-6.7,4.9-9.9,6.9
						c-15.4,38.2-57.6,48-57.6,48C208.7,192.5,217.8,193.3,226.5,193.2z"/>
				</g>
				<g id="XMLID_161_">
					<linearGradient id="XMLID_51_" gradientUnits="userSpaceOnUse" x1="175.753" y1="121.5841" x2="253.1769" y2="121.5841">
						<stop  offset="0" style="stop-color:#F9ED32"/>
						<stop  offset="1" style="stop-color:#F15A29"/>
					</linearGradient>
					<path id="XMLID_162_" class="st8" d="M211.7,145.4c18.5-10.2,33.2-32.7,41.4-47.9c-7,5.2-14.2,9.6-21.4,13.3
						c-14.2,18-33.7,33.6-56,26.2C175.8,136.9,188.9,147.6,211.7,145.4z"/>
				</g>
				<g id="XMLID_159_">
					<linearGradient id="XMLID_53_" gradientUnits="userSpaceOnUse" x1="133.6603" y1="111.8034" x2="206.2159" y2="111.8034">
						<stop  offset="0" style="stop-color:#F9ED32"/>
						<stop  offset="1" style="stop-color:#F15A29"/>
					</linearGradient>
					<path id="XMLID_160_" class="st9" d="M201.7,109.1c1.7-1.4,3.2-2.8,4.5-4.2c-8.5,1-17.1,1.9-25.8,2.4
						c-11.1,5.3-26.3,9.7-46.8,11C133.7,118.4,165.1,121,201.7,109.1z"/>
				</g>
			</g>
		</g>
	</g>
</g>
</svg>
