<?xml version="1.0" encoding="utf-8"?>
<!-- Generator: Adobe Illustrator 19.0.0, SVG Export Plug-In . SVG Version: 6.00 Build 0)  -->
<svg version="1.1" id="Layer_1" xmlns="http://www.w3.org/2000/svg" xmlns:xlink="http://www.w3.org/1999/xlink" x="0px" y="0px"
	 viewBox="0 0 422 77" style="enable-background:new 0 0 422 77;" xml:space="preserve">
<style type="text/css">
	.st0{fill:#6E8898;}
	.st1{fill:#E2E2E2;}
	.st2{fill:url(#XMLID_28_);}
	.st3{fill:url(#XMLID_29_);}
</style>
<g id="XMLID_318_">
	<g id="XMLID_420_">
		<path id="XMLID_457_" class="st0" d="M292.6,14.9h7.7l20.5,41.9V14.9h5.3v47.6h-7.8l-20.3-42v42h-5.3V14.9z"/>
		<path id="XMLID_428_" class="st0" d="M331.5,38.7c0-13.2,6.8-24.6,21.3-24.6c9,0,15.7,4.4,19.3,12.7l-4.9,2.1
			c-2.9-6.3-7.8-9.8-14.5-9.8c-11.3,0-16,9.1-16,19.2c0,10.7,4.7,19.8,16.1,19.8c8.1,0,14.9-5.5,15-15.6H357v-4.2h15.9v24.1h-4.4
			l-0.1-8.7c-1.9,4.9-7.5,9.4-15.6,9.4C338.2,63.2,331.5,52,331.5,38.7z"/>
		<path id="XMLID_424_" class="st0" d="M378.3,38.7c0-13.2,6.8-24.5,21.3-24.5c14.6,0,21.4,11.3,21.4,24.5
			c0,13.2-6.9,24.5-21.4,24.5C385.1,63.2,378.3,51.9,378.3,38.7z M415.8,38.7c0-10.2-4.6-19.5-16.2-19.5c-11.4,0-16.1,9.4-16.1,19.5
			c0,10.2,4.7,19.6,16.1,19.6C411.2,58.3,415.8,48.9,415.8,38.7z"/>
	</g>
	<g id="XMLID_354_">
		<path id="XMLID_418_" class="st1" d="M60.6,14H66v47.7h-5.4V14z"/>
		<path id="XMLID_391_" class="st1" d="M260.6,19.5v-4.6h-27.5v47.6h27.5v-4.9h-22.1V40.9h22.1v-4.5h-22.1V19.5H260.6z"/>
		<path id="XMLID_389_" class="st1" d="M73.3,14h7.2l19.1,42V14h4.9v47.7h-7.3l-19-42.1v42.1h-5V14z"/>
		<path id="XMLID_380_" class="st1" d="M110.2,50.3l5-1.5c0.7,6.5,5.8,9.5,11.5,9.5c5.7,0,9.7-2.8,9.7-8.5c0-12.3-23-9.1-23-23.6
			c0-7.3,5.8-12.1,12.9-12.1c5.6,0,10.3,2.4,13.2,7.4l-4,2.7c-1.9-3.7-5.5-5.5-9.3-5.5c-4,0-7.7,2.6-7.7,7c0,10.7,23,8.2,23,23.6
			c0,8.4-6.4,13.7-14.9,13.7C119,63,111.6,58.8,110.2,50.3z"/>
		<path id="XMLID_374_" class="st1" d="M148.1,14.8h13.4c9.3,0,15.3,5,15.3,13.2c0,8.4-6,13-15.3,13h-8v21.5h-5.3V14.8z M161.5,36.2
			c6.4,0,10-2.7,10-8.2c0-5.3-3.6-8.4-10-8.4h-8v16.6H161.5z"/>
		<linearGradient id="XMLID_28_" gradientUnits="userSpaceOnUse" x1="185.1474" y1="62.5085" x2="185.1474" y2="14.7895">
			<stop  offset="9.914436e-008" style="stop-color:#9260A7"/>
			<stop  offset="0.2" style="stop-color:#8455A2"/>
			<stop  offset="0.6" style="stop-color:#C5528B"/>
			<stop  offset="0.9307" style="stop-color:#F15B27"/>
		</linearGradient>
		<path id="XMLID_363_" class="st2" d="M182.5,14.8h5.4v47.7h-5.4V14.8z"/>
		<path id="XMLID_355_" class="st1" d="M195.2,14.9h13.6c8.4,0,15,5,15,13.2c0,6.4-4.1,11.1-10.2,12.4l12.9,22.1h-6.3l-11.9-21.4
			h-7.8v21.4h-5.4V14.9z M209.7,36.2c5.1-0.3,8.8-3,8.8-8.1c0-5.4-4-8.5-9.7-8.5h-8.3v16.6H209.7z"/>
	</g>
	<rect id="XMLID_353_" x="275.6" y="1" class="st0" width="2" height="75"/>
	<g id="XMLID_321_">
		<g id="XMLID_54_">
			<linearGradient id="XMLID_29_" gradientUnits="userSpaceOnUse" x1="23.2988" y1="76" x2="23.2988" y2="1">
				<stop  offset="9.914436e-008" style="stop-color:#9260A7"/>
				<stop  offset="0.2" style="stop-color:#8455A2"/>
				<stop  offset="0.6" style="stop-color:#C5528B"/>
				<stop  offset="0.9307" style="stop-color:#F15B27"/>
			</linearGradient>
			<path id="XMLID_55_" class="st3" d="M45.2,47.8C44,42.1,41.3,37,37.7,32.5c-3.6-4.5-7.9-8.4-12-12.4c-1.8-1.8-3.6-3.6-4.5-5.9
				c-0.8-1.9-1-4-1-6c0-2.4,0.2-4.9,1.3-7.1c-1.5,1.9-2.9,3.9-4.4,5.8c-2.2,3-4.5,6.1-4.9,9.8c-0.4,4.6,2.3,8.8,5.2,12.4
				c0.7,0.9,1.5,1.7,2.2,2.7c0.1,0.2,0.3,0.4,0.4,0.5c1,1.4,1.8,3,1.9,4.7c0.2,2.5-0.9,4.9-2.1,7.2c0.8-3.5-0.6-7.9-2.4-11.3
				c-0.1-0.2-0.2-0.3-0.3-0.5c-0.2-0.4-0.4-0.8-0.7-1.2c-0.9-1.5-3.9-5.2-8-4.6c1.2,1,3.5,3.8,4,7.8c0,0.2,0,0.3,0.1,0.5
				c0.1,1.3,0.1,2.7-0.3,4.2c-0.6,2.8-2.1,5.2-3,7.9c-1.8,5.5,1.2,12.1,6.5,14.3c-3.2,0.6-7.6-2.1-9.5-6.7C3.6,48.2,7.1,42.1,9,38.7
				c-2.1,1.1-3.8,2.7-5.2,4.6C2,46.5,1,50.1,1,54c0.2,12.2,10.1,22,22.3,22c1.6,0,3.1-0.2,4.6-0.5c3.1-0.8,6.1-2.2,8.8-4.2
				c1.5-1.1,3.4-2.8,4.9-4.9c0,0,0,0,0,0c0.5-0.8,1-1.6,1.5-2.4c0-0.1,0.1-0.1,0.1-0.2c1.9-4,2.4-8.2,2.4-11.5
				C45.6,50.4,45.4,48.8,45.2,47.8z M39.9,60.3c-0.4,0.9-0.8,1.8-1.4,2.7c-0.5,0.9-1.1,1.7-1.8,2.4c-0.7,0.7-1.4,1.4-2.2,2.1
				c-0.8,0.6-1.7,1.2-2.6,1.6c-1.8,0.9-3.7,1.5-5.7,1.8c1.9-0.7,3.7-1.4,5.4-2.4c1.7-1,3.2-2.2,4.5-3.7c1.3-1.4,2.4-3.1,3.2-4.8
				c0.8-1.8,1.5-3.6,2-5.6C41.1,56.5,40.7,58.5,39.9,60.3z"/>
		</g>
	</g>
</g>
</svg>
