<?xml version="1.0" encoding="utf-8"?>
<!-- Generator: Adobe Illustrator 19.0.0, SVG Export Plug-In . SVG Version: 6.00 Build 0)  -->
<svg version="1.1" id="Layer_1" xmlns="http://www.w3.org/2000/svg" xmlns:xlink="http://www.w3.org/1999/xlink" x="0px" y="0px"
	 viewBox="0 0 515 473" style="enable-background:new 0 0 515 473;" xml:space="preserve">
<style type="text/css">
	.st0{fill:url(#XMLID_77_);}
	.st1{fill:url(#XMLID_78_);}
	.st2{fill:url(#XMLID_79_);}
	.st3{fill:url(#XMLID_80_);}
	.st4{fill:url(#XMLID_81_);}
	.st5{fill:url(#XMLID_82_);}
	.st6{fill:url(#XMLID_83_);}
	.st7{fill:url(#XMLID_84_);}
	.st8{fill:url(#XMLID_85_);}
	.st9{fill:url(#XMLID_86_);}
	.st10{fill:#262261;}
	.st11{fill:#9E1F63;}
</style>
<g id="XMLID_24_">
	<g id="XMLID_2_">
		<g id="XMLID_6_">
			<linearGradient id="XMLID_77_" gradientUnits="userSpaceOnUse" x1="0.1567" y1="278.7353" x2="241.9037" y2="278.7353">
				<stop  offset="0" style="stop-color:#262261"/>
				<stop  offset="1" style="stop-color:#9E1F63"/>
			</linearGradient>
			<path id="XMLID_32_" class="st0" d="M5.9,441.8c-3.2,0-5.8-2.6-5.8-5.8V236.5c0-66.6,54.2-120.9,120.9-120.9
				s120.9,54.2,120.9,120.9S187.7,357.4,121,357.4c-3.2,0-5.8-2.6-5.8-5.8s2.6-5.8,5.8-5.8c60.3,0,109.4-49.1,109.4-109.4
				c0-60.3-49.1-109.4-109.4-109.4S11.7,176.2,11.7,236.5v199.5C11.7,439.2,9.1,441.8,5.9,441.8z"/>
		</g>
		<g id="XMLID_9_">
			<linearGradient id="XMLID_78_" gradientUnits="userSpaceOnUse" x1="19.3429" y1="296.0029" x2="222.7174" y2="296.0029">
				<stop  offset="0" style="stop-color:#262261"/>
				<stop  offset="1" style="stop-color:#9E1F63"/>
			</linearGradient>
			<path id="XMLID_31_" class="st1" d="M25.1,457.2c-3.2,0-5.8-2.6-5.8-5.8V236.5c0-56.1,45.6-101.7,101.7-101.7
				s101.7,45.6,101.7,101.7S177.1,338.2,121,338.2c-3.2,0-5.8-2.6-5.8-5.8c0-3.2,2.6-5.8,5.8-5.8c49.7,0,90.2-40.5,90.2-90.2
				c0-49.7-40.5-90.2-90.2-90.2s-90.2,40.5-90.2,90.2v214.9C30.9,454.6,28.3,457.2,25.1,457.2z"/>
		</g>
		<g id="XMLID_10_">
			<linearGradient id="XMLID_79_" gradientUnits="userSpaceOnUse" x1="38.5292" y1="313.2706" x2="203.5311" y2="313.2706">
				<stop  offset="0" style="stop-color:#262261"/>
				<stop  offset="1" style="stop-color:#9E1F63"/>
			</linearGradient>
			<path id="XMLID_30_" class="st2" d="M44.3,472.5c-3.2,0-5.8-2.6-5.8-5.8V236.5c0-45.5,37-82.5,82.5-82.5s82.5,37,82.5,82.5
				S166.5,319,121,319c-3.2,0-5.8-2.6-5.8-5.8s2.6-5.8,5.8-5.8c39.1,0,71-31.8,71-71c0-39.1-31.8-71-71-71s-71,31.8-71,71v230.2
				C50,469.9,47.5,472.5,44.3,472.5z"/>
		</g>
		<g id="XMLID_11_">
			<linearGradient id="XMLID_80_" gradientUnits="userSpaceOnUse" x1="57.7155" y1="315.1892" x2="184.3448" y2="315.1892">
				<stop  offset="0" style="stop-color:#262261"/>
				<stop  offset="1" style="stop-color:#9E1F63"/>
			</linearGradient>
			<path id="XMLID_29_" class="st3" d="M63.5,457.2c-3.2,0-5.8-2.6-5.8-5.8V236.5c0-34.9,28.4-63.3,63.3-63.3s63.3,28.4,63.3,63.3
				s-28.4,63.3-63.3,63.3c-3.2,0-5.8-2.6-5.8-5.8s2.6-5.8,5.8-5.8c28.6,0,51.8-23.2,51.8-51.8c0-28.6-23.2-51.8-51.8-51.8
				S69.2,208,69.2,236.5v214.9C69.2,454.6,66.7,457.2,63.5,457.2z"/>
		</g>
		<g id="XMLID_12_">
			<linearGradient id="XMLID_81_" gradientUnits="userSpaceOnUse" x1="76.9017" y1="317.1078" x2="165.1586" y2="317.1078">
				<stop  offset="0" style="stop-color:#262261"/>
				<stop  offset="1" style="stop-color:#9E1F63"/>
			</linearGradient>
			<path id="XMLID_28_" class="st4" d="M82.7,441.8c-3.2,0-5.8-2.6-5.8-5.8V236.5c0-24.3,19.8-44.1,44.1-44.1s44.1,19.8,44.1,44.1
				c0,24.3-19.8,44.1-44.1,44.1c-3.2,0-5.8-2.6-5.8-5.8c0-3.2,2.6-5.8,5.8-5.8c18,0,32.6-14.6,32.6-32.6c0-18-14.6-32.6-32.6-32.6
				s-32.6,14.6-32.6,32.6v199.5C88.4,439.2,85.8,441.8,82.7,441.8z"/>
		</g>
	</g>
	<g id="XMLID_3_">
		<g id="XMLID_23_">
			<linearGradient id="XMLID_82_" gradientUnits="userSpaceOnUse" x1="273.0963" y1="194.2647" x2="514.8433" y2="194.2647">
				<stop  offset="0" style="stop-color:#262261"/>
				<stop  offset="1" style="stop-color:#9E1F63"/>
			</linearGradient>
			<path id="XMLID_37_" class="st5" d="M394,357.3c-66.6,0-120.9-54.2-120.9-120.9V36.9c0-3.2,2.6-5.8,5.8-5.8
				c3.2,0,5.8,2.6,5.8,5.8v199.5c0,60.3,49.1,109.4,109.4,109.4s109.4-49.1,109.4-109.4c0-60.3-49.1-109.4-109.4-109.4
				c-3.2,0-5.8-2.6-5.8-5.8c0-3.2,2.6-5.8,5.8-5.8c66.6,0,120.9,54.2,120.9,120.9S460.6,357.3,394,357.3z"/>
		</g>
		<g id="XMLID_22_">
			<linearGradient id="XMLID_83_" gradientUnits="userSpaceOnUse" x1="292.2826" y1="176.9971" x2="495.6571" y2="176.9971">
				<stop  offset="0" style="stop-color:#262261"/>
				<stop  offset="1" style="stop-color:#9E1F63"/>
			</linearGradient>
			<path id="XMLID_36_" class="st6" d="M394,338.2c-56.1,0-101.7-45.6-101.7-101.7V21.6c0-3.2,2.6-5.8,5.8-5.8s5.8,2.6,5.8,5.8
				v214.9c0,49.7,40.5,90.2,90.2,90.2s90.2-40.5,90.2-90.2c0-49.7-40.5-90.2-90.2-90.2c-3.2,0-5.8-2.6-5.8-5.8s2.6-5.8,5.8-5.8
				c56.1,0,101.7,45.6,101.7,101.7S450,338.2,394,338.2z"/>
		</g>
		<g id="XMLID_7_">
			<linearGradient id="XMLID_84_" gradientUnits="userSpaceOnUse" x1="311.4689" y1="159.7294" x2="476.4708" y2="159.7294">
				<stop  offset="0" style="stop-color:#262261"/>
				<stop  offset="1" style="stop-color:#9E1F63"/>
			</linearGradient>
			<path id="XMLID_35_" class="st7" d="M394,319c-45.5,0-82.5-37-82.5-82.5V6.2c0-3.2,2.6-5.8,5.8-5.8s5.8,2.6,5.8,5.8v230.2
				c0,39.1,31.8,71,71,71s71-31.8,71-71c0-39.1-31.8-71-71-71c-3.2,0-5.8-2.6-5.8-5.8c0-3.2,2.6-5.8,5.8-5.8
				c45.5,0,82.5,37,82.5,82.5S439.5,319,394,319z"/>
		</g>
		<g id="XMLID_5_">
			<linearGradient id="XMLID_85_" gradientUnits="userSpaceOnUse" x1="330.6552" y1="157.8108" x2="457.2845" y2="157.8108">
				<stop  offset="0" style="stop-color:#262261"/>
				<stop  offset="1" style="stop-color:#9E1F63"/>
			</linearGradient>
			<path id="XMLID_34_" class="st8" d="M394,299.8c-34.9,0-63.3-28.4-63.3-63.3V21.6c0-3.2,2.6-5.8,5.8-5.8c3.2,0,5.8,2.6,5.8,5.8
				v214.9c0,28.6,23.2,51.8,51.8,51.8c28.6,0,51.8-23.2,51.8-51.8c0-28.6-23.2-51.8-51.8-51.8c-3.2,0-5.8-2.6-5.8-5.8
				s2.6-5.8,5.8-5.8c34.9,0,63.3,28.4,63.3,63.3S428.9,299.8,394,299.8z"/>
		</g>
		<g id="XMLID_4_">
			<linearGradient id="XMLID_86_" gradientUnits="userSpaceOnUse" x1="349.8414" y1="155.8922" x2="438.0983" y2="155.8922">
				<stop  offset="0" style="stop-color:#262261"/>
				<stop  offset="1" style="stop-color:#9E1F63"/>
			</linearGradient>
			<path id="XMLID_33_" class="st9" d="M394,280.6c-24.3,0-44.1-19.8-44.1-44.1V36.9c0-3.2,2.6-5.8,5.8-5.8s5.8,2.6,5.8,5.8v199.5
				c0,18,14.6,32.6,32.6,32.6s32.6-14.6,32.6-32.6c0-18-14.6-32.6-32.6-32.6c-3.2,0-5.8-2.6-5.8-5.8c0-3.2,2.6-5.8,5.8-5.8
				c24.3,0,44.1,19.8,44.1,44.1C438.1,260.8,418.3,280.6,394,280.6z"/>
		</g>
	</g>
	<g id="XMLID_121_">
		<path id="XMLID_122_" class="st10" d="M118.2,414.2c-0.4-0.4-0.6-0.9-0.6-1.5v-27c0-0.6,0.2-1.1,0.6-1.5s0.9-0.6,1.5-0.6h8
			c2,0,3.7,0.4,5.3,1.3c1.6,0.9,2.8,2.1,3.6,3.7s1.3,3.4,1.3,5.3c0,1.9-0.4,3.7-1.3,5.2c-0.9,1.5-2.1,2.7-3.6,3.6
			c-1.6,0.9-3.3,1.3-5.3,1.3h-5.9v8.7c0,0.6-0.2,1.1-0.6,1.5c-0.4,0.4-0.9,0.6-1.5,0.6C119.1,414.8,118.6,414.6,118.2,414.2z
			 M127.7,400.1c1.8,0,3.3-0.6,4.5-1.7c1.2-1.2,1.8-2.6,1.8-4.5c0-1.9-0.6-3.4-1.8-4.7c-1.2-1.2-2.7-1.8-4.5-1.8h-5.9v12.7H127.7z"
			/>
		<path id="XMLID_125_" class="st10" d="M143.1,414.2c-0.4-0.4-0.6-0.9-0.6-1.5v-27c0-0.6,0.2-1.1,0.6-1.5s0.9-0.6,1.5-0.6h18
			c0.6,0,1.1,0.2,1.5,0.5c0.4,0.4,0.6,0.8,0.6,1.4c0,0.6-0.2,1-0.6,1.4c-0.4,0.3-0.9,0.5-1.5,0.5h-16v9.7h11.5
			c0.6,0,1.1,0.2,1.5,0.5c0.4,0.4,0.6,0.8,0.6,1.4c0,0.6-0.2,1-0.6,1.4c-0.4,0.4-0.9,0.5-1.5,0.5h-11.5v10h16c0.6,0,1.1,0.2,1.5,0.5
			c0.4,0.3,0.6,0.8,0.6,1.4c0,0.6-0.2,1.1-0.6,1.4c-0.4,0.4-0.9,0.5-1.5,0.5h-18C144,414.8,143.5,414.6,143.1,414.2z"/>
		<path id="XMLID_127_" class="st10" d="M191,412.9c0,0.5-0.2,1-0.5,1.3c-0.4,0.4-0.8,0.5-1.5,0.5c-0.8,0-1.4-0.3-1.8-1l-6.9-11
			h-0.7h-5.1v9.9c0,0.6-0.2,1.1-0.6,1.5c-0.4,0.4-0.9,0.6-1.5,0.6c-0.6,0-1.1-0.2-1.5-0.6c-0.4-0.4-0.6-0.9-0.6-1.5v-27
			c0-0.6,0.2-1.1,0.6-1.5s0.9-0.6,1.5-0.6h7.2c2,0,3.7,0.4,5.3,1.2c1.6,0.8,2.8,2,3.6,3.5c0.9,1.5,1.3,3.2,1.3,5.1
			c0,1.9-0.5,3.6-1.4,5c-1,1.5-2.3,2.6-3.9,3.3l6.1,9.8C190.9,412,191,412.5,191,412.9z M179.7,398.9c1.8,0,3.3-0.5,4.5-1.5
			c1.2-1,1.8-2.3,1.8-4c0-1.8-0.6-3.2-1.8-4.3c-1.2-1.1-2.7-1.7-4.5-1.7h-5.1v11.5H179.7z"/>
		<path id="XMLID_130_" class="st10" d="M198.5,413.4c-2.1-1.2-3.6-2.7-4.4-4.6c-0.1-0.3-0.2-0.6-0.2-0.8c0-0.4,0.1-0.8,0.4-1.1
			c0.3-0.3,0.7-0.5,1.2-0.6c0.1,0,0.2,0,0.4,0c0.4,0,0.8,0.1,1.2,0.4c0.4,0.3,0.7,0.6,0.9,1c0.5,1,1.4,1.9,2.8,2.6s3,1.1,4.7,1.1
			c2,0,3.7-0.5,5.1-1.4c1.4-0.9,2.1-2.2,2.1-3.8c0-1.5-0.6-2.8-1.8-3.9c-1.2-1.1-3-1.7-5.3-2c-3.3-0.3-5.9-1.3-7.8-2.9
			c-1.9-1.6-2.8-3.6-2.8-6c0-1.7,0.5-3.2,1.5-4.4c1-1.2,2.3-2.2,4-2.8c1.7-0.7,3.6-1,5.7-1c2.3,0,4.2,0.5,5.8,1.4
			c1.6,0.9,2.9,2.3,4,4c0.3,0.5,0.5,1,0.5,1.4c0,0.6-0.3,1.1-0.8,1.4c-0.3,0.2-0.6,0.3-1,0.3c-0.4,0-0.8-0.1-1.1-0.3
			c-0.3-0.2-0.6-0.5-0.8-0.8c-0.7-1.2-1.6-2.1-2.7-2.7c-1.1-0.6-2.4-0.9-4.1-0.9c-2,0-3.7,0.4-4.9,1.2c-1.3,0.8-1.9,1.9-1.9,3.4
			c0,1.4,0.6,2.5,1.7,3.5c1.1,0.9,3.1,1.5,6,1.8c3.2,0.3,5.7,1.3,7.4,2.9c1.8,1.6,2.6,3.7,2.6,6.4c0,1.9-0.5,3.6-1.6,4.9
			c-1,1.4-2.4,2.4-4.1,3.1c-1.7,0.7-3.6,1-5.5,1C202.9,415.2,200.6,414.6,198.5,413.4z"/>
		<path id="XMLID_132_" class="st10" d="M229.2,413.1c-2.4-1.4-4.3-3.3-5.6-5.7c-1.3-2.4-2-5.2-2-8.3c0-3.1,0.7-5.8,2-8.3
			c1.3-2.4,3.2-4.3,5.6-5.7c2.4-1.4,5.2-2,8.2-2c3.1,0,5.8,0.7,8.2,2c2.4,1.4,4.3,3.2,5.6,5.7c1.3,2.4,2,5.2,2,8.3
			c0,3.1-0.7,5.8-2,8.3c-1.3,2.4-3.2,4.3-5.6,5.7c-2.4,1.4-5.1,2-8.2,2C234.4,415.2,231.6,414.5,229.2,413.1z M243.6,409.8
			c1.8-1.1,3.2-2.5,4.2-4.4c1-1.9,1.5-3.9,1.5-6.2c0-2.3-0.5-4.4-1.5-6.2c-1-1.9-2.4-3.3-4.2-4.4c-1.8-1.1-3.8-1.6-6.1-1.6
			c-2.3,0-4.3,0.5-6.1,1.6s-3.2,2.5-4.2,4.4c-1,1.9-1.5,3.9-1.5,6.2c0,2.3,0.5,4.4,1.5,6.2c1,1.9,2.4,3.3,4.2,4.4s3.8,1.6,6.1,1.6
			C239.7,411.4,241.8,410.9,243.6,409.8z"/>
		<path id="XMLID_135_" class="st10" d="M260.4,414.2c-0.4-0.4-0.6-0.9-0.6-1.5v-27c0-0.6,0.2-1.1,0.6-1.5c0.4-0.4,0.9-0.6,1.5-0.6
			c0.3,0,0.6,0.1,0.9,0.2c0.3,0.1,0.5,0.3,0.7,0.5l17.4,23.1v-21.8c0-0.6,0.2-1.1,0.6-1.5c0.4-0.4,0.9-0.6,1.5-0.6
			c0.6,0,1.1,0.2,1.5,0.6c0.4,0.4,0.6,0.9,0.6,1.5v27c0,0.6-0.2,1.1-0.6,1.5c-0.4,0.4-0.9,0.6-1.5,0.6c-0.3,0-0.6-0.1-0.9-0.2
			c-0.3-0.1-0.5-0.3-0.7-0.5l-17.4-23.1v21.8c0,0.6-0.2,1.1-0.6,1.5c-0.4,0.4-0.9,0.6-1.5,0.6C261.3,414.8,260.8,414.6,260.4,414.2z
			"/>
		<path id="XMLID_137_" class="st10" d="M316.5,412.7c0,0.6-0.2,1-0.6,1.4c-0.4,0.4-0.9,0.6-1.5,0.6c-0.4,0-0.8-0.1-1.1-0.3
			c-0.4-0.2-0.6-0.5-0.8-0.9l-2.2-5.6h-14.3l-2.3,5.6c-0.2,0.4-0.5,0.7-0.8,0.9c-0.3,0.2-0.7,0.3-1.1,0.3c-0.6,0-1.1-0.2-1.5-0.6
			c-0.4-0.4-0.6-0.9-0.6-1.5c0-0.3,0.1-0.6,0.2-0.9l11.2-26.8c0.4-0.9,1.1-1.4,2-1.4c1,0,1.6,0.5,2,1.4l11.3,26.9
			C316.4,412.2,316.5,412.5,316.5,412.7z M297.3,404.5h11.5l-5.7-14.2L297.3,404.5z"/>
		<path id="XMLID_140_" class="st10" d="M321.6,414.2c-0.4-0.4-0.6-0.9-0.6-1.5v-27c0-0.6,0.2-1.1,0.6-1.5s0.9-0.6,1.4-0.6
			c0.6,0,1.1,0.2,1.5,0.6c0.4,0.4,0.6,0.9,0.6,1.5v24.9h14.4c0.6,0,1.1,0.2,1.5,0.6c0.4,0.4,0.6,0.9,0.6,1.5c0,0.6-0.2,1.1-0.6,1.5
			c-0.4,0.4-0.9,0.6-1.5,0.6H323C322.5,414.8,322,414.6,321.6,414.2z"/>
		<path id="XMLID_142_" class="st10" d="M358.9,414.2c-0.4-0.4-0.6-0.9-0.6-1.5v-27c0-0.6,0.2-1.1,0.6-1.5s0.9-0.6,1.5-0.6h9.5
			c1.8,0,3.4,0.4,4.7,1.1c1.4,0.7,2.5,1.7,3.3,3c0.8,1.3,1.2,2.7,1.2,4.3c0,1.3-0.4,2.5-1.1,3.5c-0.7,1-1.7,1.9-2.9,2.5
			c1.8,0.4,3.2,1.3,4.3,2.6c1,1.3,1.6,2.9,1.6,4.9c0,1.8-0.4,3.4-1.3,4.9c-0.9,1.4-2.1,2.6-3.6,3.4c-1.6,0.8-3.3,1.2-5.3,1.2h-10.4
			C359.8,414.8,359.3,414.6,358.9,414.2z M369.9,396.4c1.6,0,2.8-0.4,3.8-1.2c0.9-0.8,1.4-1.9,1.4-3.4c0-1.5-0.5-2.6-1.4-3.3
			c-0.9-0.8-2.2-1.1-3.8-1.1h-7.5v9H369.9z M370.8,410.9c1.9,0,3.4-0.5,4.5-1.5c1.1-1,1.7-2.3,1.7-4.1c0-1.7-0.6-2.9-1.7-3.8
			c-1.1-0.9-2.6-1.3-4.5-1.3h-8.3v10.7H370.8z"/>
		<path id="XMLID_146_" class="st10" d="M407.8,412.9c0,0.5-0.2,1-0.5,1.3c-0.4,0.4-0.8,0.5-1.5,0.5c-0.8,0-1.4-0.3-1.8-1l-6.9-11
			h-0.7h-5.1v9.9c0,0.6-0.2,1.1-0.6,1.5c-0.4,0.4-0.9,0.6-1.5,0.6c-0.6,0-1.1-0.2-1.5-0.6c-0.4-0.4-0.6-0.9-0.6-1.5v-27
			c0-0.6,0.2-1.1,0.6-1.5s0.9-0.6,1.5-0.6h7.2c2,0,3.7,0.4,5.3,1.2c1.6,0.8,2.8,2,3.6,3.5c0.9,1.5,1.3,3.2,1.3,5.1
			c0,1.9-0.5,3.6-1.4,5c-1,1.5-2.3,2.6-3.9,3.3l6.1,9.8C407.7,412,407.8,412.5,407.8,412.9z M396.4,398.9c1.8,0,3.3-0.5,4.5-1.5
			c1.2-1,1.8-2.3,1.8-4c0-1.8-0.6-3.2-1.8-4.3c-1.2-1.1-2.7-1.7-4.5-1.7h-5.1v11.5H396.4z"/>
		<path id="XMLID_149_" class="st10" d="M435.9,412.7c0,0.6-0.2,1-0.6,1.4c-0.4,0.4-0.9,0.6-1.5,0.6c-0.4,0-0.8-0.1-1.1-0.3
			c-0.4-0.2-0.6-0.5-0.8-0.9l-2.2-5.6h-14.3l-2.3,5.6c-0.2,0.4-0.5,0.7-0.8,0.9c-0.3,0.2-0.7,0.3-1.1,0.3c-0.6,0-1.1-0.2-1.5-0.6
			c-0.4-0.4-0.6-0.9-0.6-1.5c0-0.3,0.1-0.6,0.2-0.9l11.2-26.8c0.4-0.9,1.1-1.4,2-1.4c1,0,1.6,0.5,2,1.4l11.3,26.9
			C435.8,412.2,435.9,412.5,435.9,412.7z M416.7,404.5h11.5l-5.7-14.2L416.7,404.5z"/>
		<path id="XMLID_152_" class="st10" d="M441,414.2c-0.4-0.4-0.6-0.9-0.6-1.5v-27c0-0.6,0.2-1.1,0.6-1.5c0.4-0.4,0.9-0.6,1.5-0.6
			c0.3,0,0.6,0.1,0.9,0.2c0.3,0.1,0.5,0.3,0.7,0.5l17.4,23.1v-21.8c0-0.6,0.2-1.1,0.6-1.5c0.4-0.4,0.9-0.6,1.5-0.6
			c0.6,0,1.1,0.2,1.5,0.6c0.4,0.4,0.6,0.9,0.6,1.5v27c0,0.6-0.2,1.1-0.6,1.5c-0.4,0.4-0.9,0.6-1.5,0.6c-0.3,0-0.6-0.1-0.9-0.2
			c-0.3-0.1-0.5-0.3-0.7-0.5l-17.4-23.1v21.8c0,0.6-0.2,1.1-0.6,1.5c-0.4,0.4-0.9,0.6-1.5,0.6C441.9,414.8,441.4,414.6,441,414.2z"
			/>
		<path id="XMLID_154_" class="st10" d="M474.2,414.2c-0.4-0.4-0.6-0.9-0.6-1.5v-27c0-0.6,0.2-1.1,0.6-1.5s0.9-0.6,1.5-0.6h7.2
			c3,0,5.7,0.7,8,2c2.3,1.3,4.2,3.2,5.5,5.5c1.3,2.4,2,5,2,8c0,3-0.7,5.7-2,8.1c-1.3,2.4-3.1,4.2-5.5,5.5c-2.3,1.3-5,2-8,2h-7.2
			C475.1,414.8,474.6,414.6,474.2,414.2z M482.9,411.1c2.2,0,4.2-0.5,5.9-1.5c1.7-1,3.1-2.4,4.1-4.3c1-1.8,1.5-3.9,1.5-6.2
			c0-2.3-0.5-4.3-1.5-6.1c-1-1.8-2.3-3.2-4.1-4.2c-1.7-1-3.7-1.5-5.9-1.5h-5.1v23.8H482.9z"/>
	</g>
	<g id="XMLID_1_">
		<path id="XMLID_8_" class="st11" d="M265.9,431.4v4.9h4.7v1.1h-4.7v5.9h-1.2v-12.9h6.3v1.1H265.9z"/>
		<path id="XMLID_14_" class="st11" d="M306.4,443.4c-0.9,0-1.8-0.2-2.5-0.5c-0.7-0.3-1.4-0.8-1.9-1.4c-0.5-0.6-0.9-1.3-1.2-2.1
			c-0.3-0.8-0.4-1.6-0.4-2.6c0-1,0.1-1.9,0.4-2.8c0.3-0.8,0.7-1.6,1.2-2.1c0.5-0.6,1.2-1.1,2-1.4s1.7-0.5,2.6-0.5
			c0.9,0,1.7,0.2,2.5,0.5c0.7,0.3,1.3,0.8,1.9,1.4s0.9,1.3,1.2,2.1c0.3,0.8,0.4,1.7,0.4,2.6c0,1-0.1,1.9-0.4,2.7s-0.7,1.6-1.2,2.2
			c-0.5,0.6-1.2,1.1-1.9,1.4S307.4,443.4,306.4,443.4z M306.5,431.1c-0.8,0-1.5,0.1-2.1,0.4s-1.1,0.7-1.5,1.2
			c-0.4,0.5-0.7,1.1-0.9,1.8c-0.2,0.7-0.3,1.4-0.3,2.2c0,0.7,0.1,1.4,0.3,2.1s0.5,1.3,0.9,1.8c0.4,0.5,0.9,0.9,1.5,1.2
			c0.6,0.3,1.3,0.5,2.1,0.5c0.8,0,1.5-0.1,2.1-0.4c0.6-0.3,1.1-0.7,1.5-1.2c0.4-0.5,0.7-1.1,0.9-1.8c0.2-0.7,0.3-1.4,0.3-2.2
			c0-0.8-0.1-1.5-0.3-2.1c-0.2-0.7-0.5-1.3-0.9-1.8c-0.4-0.5-0.9-0.9-1.5-1.2C308,431.3,307.3,431.1,306.5,431.1z"/>
		<path id="XMLID_17_" class="st11" d="M349.7,443.2l-1.9-3.7c-0.2-0.4-0.4-0.7-0.6-0.9s-0.4-0.4-0.6-0.6c-0.2-0.1-0.4-0.3-0.6-0.3
			s-0.5-0.1-0.7-0.1h-1.4v5.6h-1.2v-12.9h3.7c0.5,0,1,0.1,1.4,0.2c0.5,0.1,0.9,0.4,1.2,0.6c0.4,0.3,0.6,0.6,0.8,1.1
			c0.2,0.4,0.3,0.9,0.3,1.5c0,0.5-0.1,0.9-0.2,1.3s-0.3,0.7-0.6,1s-0.6,0.5-0.9,0.8c-0.4,0.2-0.8,0.4-1.2,0.5v0
			c0.2,0.1,0.3,0.2,0.5,0.3c0.1,0.1,0.3,0.3,0.4,0.4c0.1,0.2,0.3,0.3,0.4,0.6c0.1,0.2,0.3,0.4,0.4,0.7l2.2,4H349.7z M343.9,431.4
			v5.1h2.1c0.4,0,0.8-0.1,1.2-0.2c0.4-0.1,0.7-0.3,0.9-0.5c0.3-0.2,0.5-0.5,0.6-0.8c0.1-0.3,0.2-0.7,0.2-1.1c0-0.7-0.2-1.3-0.7-1.8
			c-0.5-0.4-1.2-0.6-2.1-0.6H343.9z"/>
		<path id="XMLID_20_" class="st11" d="M422,443.2l-1.4-3.8H415l-1.4,3.8h-1.3l4.9-12.9h1.2l4.9,12.9H422z M418,432.5
			c0-0.1-0.1-0.2-0.1-0.4c0-0.1-0.1-0.3-0.1-0.5h0c0,0.2-0.1,0.4-0.1,0.5c0,0.1-0.1,0.3-0.1,0.4l-2.1,5.7h4.7L418,432.5z"/>
		<path id="XMLID_27_" class="st11" d="M453,443.2v-12.9h1.2v11.8h5.2v1.1H453z"/>
		<path id="XMLID_119_" class="st11" d="M489.1,443.2v-12.9h1.2v11.8h5.2v1.1H489.1z"/>
	</g>
</g>
</svg>
