<?xml version="1.0" encoding="utf-8"?>
<!-- Generator: Adobe Illustrator 19.0.0, SVG Export Plug-In . SVG Version: 6.00 Build 0)  -->
<svg version="1.1" id="Layer_1" xmlns="http://www.w3.org/2000/svg" xmlns:xlink="http://www.w3.org/1999/xlink" x="0px" y="0px"
	 viewBox="-242 264 515 473" style="enable-background:new -242 264 515 473;" xml:space="preserve">
<style type="text/css">
	.st0{fill:url(#XMLID_8_);}
	.st1{fill:url(#XMLID_13_);}
	.st2{fill:url(#XMLID_14_);}
	.st3{fill:url(#XMLID_15_);}
	.st4{fill:url(#XMLID_16_);}
	.st5{fill:url(#XMLID_17_);}
	.st6{fill:url(#XMLID_18_);}
	.st7{fill:url(#XMLID_19_);}
	.st8{fill:url(#XMLID_20_);}
	.st9{fill:url(#XMLID_21_);}
	.st10{fill:#262261;}
</style>
<g id="XMLID_24_">
	<g id="XMLID_2_">
		<g id="XMLID_6_">
			
				<linearGradient id="XMLID_8_" gradientUnits="userSpaceOnUse" x1="-241.9" y1="459.3" x2="-0.1" y2="459.3" gradientTransform="matrix(1 0 0 -1 0 1002)">
				<stop  offset="0" style="stop-color:#262261"/>
				<stop  offset="1" style="stop-color:#9E1F63"/>
			</linearGradient>
			<path id="XMLID_32_" class="st0" d="M-236.1,705.8c-3.2,0-5.8-2.6-5.8-5.8V500.5c0-66.6,54.2-120.9,120.9-120.9
				S-0.1,433.8-0.1,500.5S-54.3,621.4-121,621.4c-3.2,0-5.8-2.6-5.8-5.8c0-3.2,2.6-5.8,5.8-5.8c60.3,0,109.4-49.1,109.4-109.4
				S-60.7,391-121,391s-109.3,49.2-109.3,109.5V700C-230.3,703.2-232.9,705.8-236.1,705.8z"/>
		</g>
		<g id="XMLID_9_">
			
				<linearGradient id="XMLID_13_" gradientUnits="userSpaceOnUse" x1="-222.7" y1="442" x2="-19.3" y2="442" gradientTransform="matrix(1 0 0 -1 0 1002)">
				<stop  offset="0" style="stop-color:#262261"/>
				<stop  offset="1" style="stop-color:#9E1F63"/>
			</linearGradient>
			<path id="XMLID_31_" class="st1" d="M-216.9,721.2c-3.2,0-5.8-2.6-5.8-5.8V500.5c0-56.1,45.6-101.7,101.7-101.7
				s101.7,45.6,101.7,101.7S-64.9,602.2-121,602.2c-3.2,0-5.8-2.6-5.8-5.8c0-3.2,2.6-5.8,5.8-5.8c49.7,0,90.2-40.5,90.2-90.2
				s-40.5-90.2-90.2-90.2s-90.2,40.5-90.2,90.2v214.9C-211.1,718.6-213.7,721.2-216.9,721.2z"/>
		</g>
		<g id="XMLID_10_">
			
				<linearGradient id="XMLID_14_" gradientUnits="userSpaceOnUse" x1="-203.5" y1="424.75" x2="-38.5" y2="424.75" gradientTransform="matrix(1 0 0 -1 0 1002)">
				<stop  offset="0" style="stop-color:#262261"/>
				<stop  offset="1" style="stop-color:#9E1F63"/>
			</linearGradient>
			<path id="XMLID_30_" class="st2" d="M-197.7,736.5c-3.2,0-5.8-2.6-5.8-5.8V500.5c0-45.5,37-82.5,82.5-82.5s82.5,37,82.5,82.5
				S-75.5,583-121,583c-3.2,0-5.8-2.6-5.8-5.8s2.6-5.8,5.8-5.8c39.1,0,71-31.8,71-71c0-39.1-31.8-71-71-71s-71,31.8-71,71v230.2
				C-192,733.9-194.5,736.5-197.7,736.5z"/>
		</g>
		<g id="XMLID_11_">
			
				<linearGradient id="XMLID_15_" gradientUnits="userSpaceOnUse" x1="-184.3" y1="422.8" x2="-57.7" y2="422.8" gradientTransform="matrix(1 0 0 -1 0 1002)">
				<stop  offset="0" style="stop-color:#262261"/>
				<stop  offset="1" style="stop-color:#9E1F63"/>
			</linearGradient>
			<path id="XMLID_29_" class="st3" d="M-178.5,721.2c-3.2,0-5.8-2.6-5.8-5.8V500.5c0-34.9,28.4-63.3,63.3-63.3s63.3,28.4,63.3,63.3
				s-28.4,63.3-63.3,63.3c-3.2,0-5.8-2.6-5.8-5.8s2.6-5.8,5.8-5.8c28.6,0,51.8-23.2,51.8-51.8c0-28.6-23.2-51.8-51.8-51.8
				s-51.8,23.4-51.8,51.9v214.9C-172.8,718.6-175.3,721.2-178.5,721.2z"/>
		</g>
		<g id="XMLID_12_">
			
				<linearGradient id="XMLID_16_" gradientUnits="userSpaceOnUse" x1="-165.1" y1="420.9" x2="-76.9" y2="420.9" gradientTransform="matrix(1 0 0 -1 0 1002)">
				<stop  offset="0" style="stop-color:#262261"/>
				<stop  offset="1" style="stop-color:#9E1F63"/>
			</linearGradient>
			<path id="XMLID_28_" class="st4" d="M-159.3,705.8c-3.2,0-5.8-2.6-5.8-5.8V500.5c0-24.3,19.8-44.1,44.1-44.1s44.1,19.8,44.1,44.1
				s-19.8,44.1-44.1,44.1c-3.2,0-5.8-2.6-5.8-5.8c0-3.2,2.6-5.8,5.8-5.8c18,0,32.6-14.6,32.6-32.6s-14.6-32.6-32.6-32.6
				s-32.6,14.6-32.6,32.6v199.5C-153.6,703.2-156.2,705.8-159.3,705.8z"/>
		</g>
	</g>
	<g id="XMLID_3_">
		<g id="XMLID_23_">
			
				<linearGradient id="XMLID_17_" gradientUnits="userSpaceOnUse" x1="31.1" y1="543.8" x2="273" y2="543.8" gradientTransform="matrix(1 0 0 -1 0 1002)">
				<stop  offset="0" style="stop-color:#262261"/>
				<stop  offset="1" style="stop-color:#9E1F63"/>
			</linearGradient>
			<path id="XMLID_37_" class="st5" d="M152,621.3c-66.6,0-120.9-54.2-120.9-120.9V300.9c0-3.2,2.6-5.8,5.8-5.8
				c3.2,0,5.8,2.6,5.8,5.8v199.5c0,60.3,49.1,109.4,109.4,109.4s109.4-49.1,109.4-109.4c0-60.3-49.1-109.4-109.4-109.4
				c-3.2,0-5.8-2.6-5.8-5.8c0-3.2,2.6-5.8,5.8-5.8c66.6,0,120.9,54.2,120.9,120.9S218.6,621.3,152,621.3z"/>
		</g>
		<g id="XMLID_22_">
			
				<linearGradient id="XMLID_18_" gradientUnits="userSpaceOnUse" x1="50.3" y1="561" x2="253.8" y2="561" gradientTransform="matrix(1 0 0 -1 0 1002)">
				<stop  offset="0" style="stop-color:#262261"/>
				<stop  offset="1" style="stop-color:#9E1F63"/>
			</linearGradient>
			<path id="XMLID_36_" class="st6" d="M152,602.2c-56.1,0-101.7-45.6-101.7-101.7V285.6c0-3.2,2.6-5.8,5.8-5.8s5.8,2.6,5.8,5.8
				v214.9c0,49.7,40.5,90.2,90.2,90.2s90.2-40.5,90.2-90.2s-40.5-90.2-90.2-90.2c-3.2,0-5.8-2.6-5.8-5.8c0-3.2,2.6-5.8,5.8-5.8
				c56.1,0,101.7,45.6,101.7,101.7S208,602.2,152,602.2z"/>
		</g>
		<g id="XMLID_7_">
			
				<linearGradient id="XMLID_19_" gradientUnits="userSpaceOnUse" x1="69.5" y1="578.3" x2="234.6" y2="578.3" gradientTransform="matrix(1 0 0 -1 0 1002)">
				<stop  offset="0" style="stop-color:#262261"/>
				<stop  offset="1" style="stop-color:#9E1F63"/>
			</linearGradient>
			<path id="XMLID_35_" class="st7" d="M152,583c-45.5,0-82.5-37-82.5-82.5V270.2c0-3.2,2.6-5.8,5.8-5.8s5.8,2.6,5.8,5.8v230.2
				c0,39.1,31.8,71,71,71s71-31.8,71-71c0-39.1-31.8-71-71-71c-3.2,0-5.8-2.6-5.8-5.8c0-3.2,2.6-5.8,5.8-5.8
				c45.5,0,82.5,37,82.5,82.5S197.5,583,152,583z"/>
		</g>
		<g id="XMLID_5_">
			
				<linearGradient id="XMLID_20_" gradientUnits="userSpaceOnUse" x1="88.7" y1="580.2" x2="215.4" y2="580.2" gradientTransform="matrix(1 0 0 -1 0 1002)">
				<stop  offset="0" style="stop-color:#262261"/>
				<stop  offset="1" style="stop-color:#9E1F63"/>
			</linearGradient>
			<path id="XMLID_34_" class="st8" d="M152,563.8c-34.9,0-63.3-28.4-63.3-63.3V285.6c0-3.2,2.6-5.8,5.8-5.8c3.2,0,5.8,2.6,5.8,5.8
				v214.9c0,28.6,23.2,51.8,51.8,51.8c28.6,0,51.8-23.2,51.8-51.8c0-28.6-23.2-51.8-51.8-51.8c-3.2,0-5.8-2.6-5.8-5.8
				c0-3.2,2.6-5.8,5.8-5.8c34.9,0,63.3,28.4,63.3,63.3S186.9,563.8,152,563.8z"/>
		</g>
		<g id="XMLID_4_">
			
				<linearGradient id="XMLID_21_" gradientUnits="userSpaceOnUse" x1="107.9" y1="582.15" x2="196.2" y2="582.15" gradientTransform="matrix(1 0 0 -1 0 1002)">
				<stop  offset="0" style="stop-color:#262261"/>
				<stop  offset="1" style="stop-color:#9E1F63"/>
			</linearGradient>
			<path id="XMLID_33_" class="st9" d="M152,544.6c-24.3,0-44.1-19.8-44.1-44.1V300.9c0-3.2,2.6-5.8,5.8-5.8s5.8,2.6,5.8,5.8v199.5
				c0,18,14.6,32.6,32.6,32.6s32.6-14.6,32.6-32.6c0-18-14.6-32.6-32.6-32.6c-3.2,0-5.8-2.6-5.8-5.8c0-3.2,2.6-5.8,5.8-5.8
				c24.3,0,44.1,19.8,44.1,44.1C196.1,524.8,176.3,544.6,152,544.6z"/>
		</g>
	</g>
</g>
<g>
	<g>
		<path class="st10" d="M-123.4,697c-0.6-0.6-1-1.4-1-2.4V651c0-1,0.3-1.8,1-2.4s1.4-0.9,2.4-0.9h15.4c2.9,0,5.4,0.6,7.7,1.7
			c2.2,1.1,4,2.7,5.2,4.8c1.3,2,1.9,4.3,1.9,6.9c0,2.1-0.6,4-1.7,5.7c-1.1,1.7-2.7,3-4.7,4.1c2.9,0.7,5.2,2.1,6.9,4.1
			c1.7,2.1,2.5,4.7,2.5,7.9c0,2.9-0.7,5.5-2.1,7.9c-1.4,2.3-3.3,4.1-5.9,5.4c-2.5,1.3-5.4,1.9-8.5,1.9h-16.7
			C-122,698-122.8,697.6-123.4,697z M-105.7,668.4c2.5,0,4.6-0.6,6.1-1.9c1.5-1.2,2.3-3,2.3-5.4c0-2.4-0.8-4.2-2.3-5.4
			c-1.5-1.2-3.6-1.8-6.1-1.8h-12v14.5H-105.7z M-104.3,691.8c3,0,5.4-0.8,7.3-2.3s2.8-3.8,2.8-6.7c0-2.7-0.9-4.7-2.7-6.1
			c-1.8-1.4-4.3-2.1-7.3-2.1h-13.4v17.2H-104.3z"/>
		<path class="st10" d="M-44.6,694.9c0,0.9-0.3,1.6-0.9,2.2c-0.6,0.6-1.4,0.9-2.3,0.9c-1.2,0-2.2-0.5-2.9-1.6l-11.1-17.8H-63h-8.2
			v16c0,0.9-0.3,1.7-0.9,2.4c-0.6,0.6-1.4,1-2.4,1c-0.9,0-1.7-0.3-2.4-1s-1-1.4-1-2.4V651c0-1,0.3-1.8,1-2.4s1.4-0.9,2.4-0.9H-63
			c3.2,0,6,0.7,8.5,2c2.5,1.3,4.5,3.2,5.9,5.6c1.4,2.4,2.1,5.1,2.1,8.2c0,3-0.8,5.7-2.3,8.1c-1.5,2.4-3.6,4.1-6.3,5.3l9.8,15.8
			C-44.8,693.5-44.6,694.2-44.6,694.9z M-63,672.4c2.9,0,5.3-0.8,7.2-2.5c1.9-1.7,2.8-3.8,2.8-6.4c0-2.8-0.9-5.1-2.8-6.9
			c-1.9-1.8-4.3-2.7-7.2-2.7h-8.2v18.5H-63z"/>
		<path class="st10" d="M0.7,694.7c0,0.9-0.3,1.7-1,2.3s-1.4,1-2.4,1c-0.6,0-1.3-0.2-1.8-0.5s-1-0.9-1.3-1.5l-3.6-9h-23.1l-3.7,9
			c-0.3,0.6-0.7,1.1-1.3,1.5c-0.6,0.4-1.2,0.5-1.8,0.5c-0.9,0-1.7-0.3-2.3-1c-0.6-0.7-0.9-1.4-0.9-2.3c0-0.4,0.1-0.9,0.3-1.5
			l18.1-43.2c0.6-1.5,1.7-2.3,3.2-2.3c1.5,0,2.6,0.8,3.2,2.3l18.1,43.3C0.6,693.8,0.7,694.3,0.7,694.7z M-30.2,681.4h18.6l-9.2-22.9
			L-30.2,681.4z"/>
		<path class="st10" d="M9,697c-0.6-0.6-0.9-1.4-0.9-2.4V651c0-1,0.3-1.8,0.9-2.4c0.6-0.6,1.4-0.9,2.3-0.9c0.5,0,0.9,0.1,1.4,0.4
			c0.5,0.2,0.9,0.5,1.2,0.9l28.1,37.3V651c0-1,0.3-1.8,1-2.4s1.4-0.9,2.4-0.9s1.7,0.3,2.3,0.9c0.6,0.6,0.9,1.4,0.9,2.4v43.6
			c0,1-0.3,1.8-0.9,2.4c-0.6,0.6-1.4,0.9-2.3,0.9c-0.5,0-1-0.1-1.4-0.3c-0.5-0.2-0.9-0.5-1.1-0.9l-28.1-37.3v35.1
			c0,0.9-0.3,1.7-0.9,2.4c-0.6,0.6-1.4,1-2.4,1C10.4,698,9.6,697.6,9,697z"/>
		<path class="st10" d="M62.4,697c-0.6-0.6-1-1.4-1-2.4V651c0-1,0.3-1.8,1-2.4s1.4-0.9,2.4-0.9h11.6c4.8,0,9.2,1.1,12.9,3.2
			c3.8,2.1,6.7,5.1,8.8,8.9c2.1,3.8,3.2,8.1,3.2,13c0,4.8-1.1,9.2-3.2,13c-2.1,3.8-5,6.8-8.8,8.9c-3.8,2.1-8.1,3.2-12.9,3.2H64.8
			C63.8,698,63,697.6,62.4,697z M76.4,692c3.6,0,6.7-0.8,9.6-2.4c2.8-1.6,5-3.9,6.6-6.9c1.6-2.9,2.3-6.3,2.3-9.9
			c0-3.7-0.8-7-2.3-9.9c-1.6-2.9-3.8-5.2-6.6-6.8c-2.8-1.6-6-2.4-9.6-2.4h-8.3V692H76.4z"/>
		<path class="st10" d="M143.9,681.4c0.6,0.5,0.9,1.2,0.9,2.3c0,0.8-0.3,1.5-1,2.1s-1.4,0.9-2.3,0.9h-3.9v8.1c0,0.9-0.3,1.7-0.9,2.3
			c-0.6,0.6-1.4,1-2.3,1c-0.9,0-1.6-0.3-2.2-1c-0.6-0.6-0.9-1.4-0.9-2.3v-8.1h-21.4c-1,0-1.8-0.3-2.4-1c-0.6-0.6-0.9-1.4-0.9-2.3
			c0-0.7,0.2-1.4,0.6-1.9l24.6-32.3c0.7-0.9,1.6-1.4,2.7-1.4c0.9,0,1.6,0.3,2.2,1c0.6,0.6,0.8,1.4,0.8,2.4v29.6h3.9
			C142.5,680.6,143.3,680.9,143.9,681.4z M115.2,680.6h16.2v-21.3L115.2,680.6z"/>
		<path class="st10" d="M191.7,694.7c0,0.9-0.3,1.7-1,2.3s-1.4,1-2.4,1c-0.6,0-1.3-0.2-1.8-0.5s-1-0.9-1.3-1.5l-3.6-9h-23.1l-3.7,9
			c-0.3,0.6-0.7,1.1-1.3,1.5c-0.6,0.4-1.2,0.5-1.8,0.5c-0.9,0-1.7-0.3-2.3-1c-0.6-0.7-0.9-1.4-0.9-2.3c0-0.4,0.1-0.9,0.3-1.5
			l18.1-43.2c0.6-1.5,1.7-2.3,3.2-2.3c1.5,0,2.6,0.8,3.2,2.3l18.1,43.3C191.6,693.8,191.7,694.3,191.7,694.7z M160.8,681.4h18.6
			l-9.2-22.9L160.8,681.4z"/>
		<path class="st10" d="M200,697c-0.6-0.6-0.9-1.4-0.9-2.4V651c0-0.9,0.3-1.7,1-2.4s1.4-1,2.3-1c0.9,0,1.7,0.3,2.4,1
			c0.6,0.6,1,1.4,1,2.4v40.2H229c0.9,0,1.7,0.3,2.4,1c0.6,0.6,1,1.4,1,2.4s-0.3,1.7-1,2.4c-0.6,0.6-1.4,1-2.4,1h-26.6
			C201.4,698,200.6,697.6,200,697z"/>
		<path class="st10" d="M241.3,697c-0.6-0.6-0.9-1.4-0.9-2.4V651c0-0.9,0.3-1.7,1-2.4s1.4-1,2.3-1c0.9,0,1.7,0.3,2.4,1
			c0.6,0.6,1,1.4,1,2.4v40.2h23.3c0.9,0,1.7,0.3,2.4,1c0.6,0.6,1,1.4,1,2.4s-0.3,1.7-1,2.4c-0.6,0.6-1.4,1-2.4,1h-26.6
			C242.7,698,241.9,697.6,241.3,697z"/>
	</g>
</g>
</svg>
