<?xml version="1.0" encoding="utf-8"?>
<!-- Generator: Adobe Illustrator 19.0.0, SVG Export Plug-In . SVG Version: 6.00 Build 0)  -->
<svg version="1.1" id="Layer_1" xmlns="http://www.w3.org/2000/svg" xmlns:xlink="http://www.w3.org/1999/xlink" x="0px" y="0px"
	 viewBox="0 0 692 300" style="enable-background:new 0 0 692 300;" xml:space="preserve">
<style type="text/css">
	.st0{fill:url(#XMLID_100_);}
	.st1{fill:url(#XMLID_101_);}
	.st2{fill:url(#XMLID_102_);}
	.st3{fill:url(#XMLID_103_);}
	.st4{fill:url(#XMLID_104_);}
	.st5{fill:url(#XMLID_105_);}
	.st6{fill:url(#XMLID_119_);}
	.st7{fill:url(#XMLID_120_);}
	.st8{fill:url(#XMLID_121_);}
	.st9{fill:url(#XMLID_122_);}
	.st10{fill:url(#XMLID_123_);}
	.st11{fill:url(#XMLID_124_);}
	.st12{fill:url(#XMLID_125_);}
	.st13{fill:url(#XMLID_126_);}
	.st14{fill:url(#XMLID_127_);}
	.st15{fill:url(#XMLID_128_);}
	.st16{fill:url(#XMLID_129_);}
	.st17{fill:url(#XMLID_130_);}
	.st18{fill:url(#XMLID_131_);}
	.st19{fill:url(#XMLID_132_);}
	.st20{fill:url(#XMLID_133_);}
	.st21{fill:url(#XMLID_134_);}
</style>
<g id="XMLID_230_">
	<g id="XMLID_5_">
		
			<linearGradient id="XMLID_100_" gradientUnits="userSpaceOnUse" x1="906.2233" y1="-71.3453" x2="752.1096" y2="249.2335" gradientTransform="matrix(0.3309 -0.9437 0.9437 0.3309 -175.5825 865.9841)">
			<stop  offset="0" style="stop-color:#F15A29"/>
			<stop  offset="0.3053" style="stop-color:#EB4B35"/>
			<stop  offset="0.8901" style="stop-color:#DD2455"/>
			<stop  offset="1" style="stop-color:#DA1C5C"/>
		</linearGradient>
		<path id="XMLID_161_" class="st0" d="M271.1,8.9c11.1,0.4,20.9,9.3,23.7,20c2.8,10.7-0.9,22.6-8.3,30.8
			c-6.9,7.5-16.3,12.1-24.4,18.3c-22.2,17.2-34.5,48.9-26.1,75.7c-13.3-44.2-15.4-85,5-126.4C246.9,16.5,260,8.5,271.1,8.9z
			 M281.7,240.1c-24.7-17.9-36-42.4-41.9-72.3c3.4,18.2,20.3,33,38.6,36.2c6.6,1.2,13.6,0.9,19.9,3.2c6.9,2.5,12.7,8.3,14.3,15.4
			c1.7,7.1-1.4,15.3-7.7,19C298.6,245.3,288.4,244.6,281.7,240.1z M210.9,132.9c16.8,45.9,19.4,93.6,9.8,138.1l-0.2-0.2
			c-2.7,12-11.3,22.4-23.7,26.9c-19.4,7.1-41-2.9-48.1-22.3c-2.1-5.8-2.8-10.5-2.1-16.2c1.7-14.9,21.8-30.9,14.2-62.6
			c-6.7-28-17.3-51.1-94.3-48c-28.8-0.7-52.2-21.9-61.7-47.8c-14.3-38.9,5.7-82,44.6-96.2c23.6-8.7,48.8-4.7,68.1,8.5
			C158.9,41.4,192.3,82.2,210.9,132.9z M89.6,69.6c0-11.6-9.4-21-21-21s-21,9.4-21,21s9.4,21,21,21S89.6,81.2,89.6,69.6z"/>
	</g>
	<g id="XMLID_37_">
		<g id="XMLID_107_">
			<linearGradient id="XMLID_101_" gradientUnits="userSpaceOnUse" x1="311.6041" y1="-208.0812" x2="693.626" y2="173.9407">
				<stop  offset="0" style="stop-color:#F15A29"/>
				<stop  offset="0.3053" style="stop-color:#EB4B35"/>
				<stop  offset="0.8901" style="stop-color:#DD2455"/>
				<stop  offset="1" style="stop-color:#DA1C5C"/>
			</linearGradient>
			<path id="XMLID_108_" class="st1" d="M618.2,103.6l-3.3,5v16.8h-1.4v-44h1.4v24.8l16.3-24.8h1.5l-13.6,20.8l14.8,23.2h-1.5
				L618.2,103.6z"/>
			<linearGradient id="XMLID_102_" gradientUnits="userSpaceOnUse" x1="173.4666" y1="-366.9438" x2="711.6358" y2="171.2254">
				<stop  offset="0" style="stop-color:#F15A29"/>
				<stop  offset="0.3053" style="stop-color:#EB4B35"/>
				<stop  offset="0.8901" style="stop-color:#DD2455"/>
				<stop  offset="1" style="stop-color:#DA1C5C"/>
			</linearGradient>
			<path id="XMLID_110_" class="st2" d="M650.8,100.1c7,0,10.1,3.3,10.1,10.3v4.4c0,6.2-2.3,10.6-9.1,10.6h-8.7V82.8h-6.3v-1.3h7.7
				v18.7H650.8z M651.8,124.1c5.9,0,7.7-3.8,7.7-9.2v-4.5c0-6.2-2.6-8.9-8.7-8.9h-6.3v22.7H651.8z"/>
			<linearGradient id="XMLID_103_" gradientUnits="userSpaceOnUse" x1="347.787" y1="-227.5414" x2="695.033" y2="119.7047">
				<stop  offset="0" style="stop-color:#F15A29"/>
				<stop  offset="0.3053" style="stop-color:#EB4B35"/>
				<stop  offset="0.8901" style="stop-color:#DD2455"/>
				<stop  offset="1" style="stop-color:#DA1C5C"/>
			</linearGradient>
			<path id="XMLID_113_" class="st3" d="M679.5,125.3H678l-10.9-41.8v41.9h-1.3v-44h2.1l10.8,41.7l10.8-41.7h2.1v44h-1.4V83.5
				L679.5,125.3z"/>
		</g>
		<g id="XMLID_58_">
			<linearGradient id="XMLID_104_" gradientUnits="userSpaceOnUse" x1="318.522" y1="167.9075" x2="687.1389" y2="536.5244">
				<stop  offset="0" style="stop-color:#F15A29"/>
				<stop  offset="0.3053" style="stop-color:#EB4B35"/>
				<stop  offset="0.8901" style="stop-color:#DD2455"/>
				<stop  offset="1" style="stop-color:#DA1C5C"/>
			</linearGradient>
			<path id="XMLID_59_" class="st4" d="M324.4,181.4v19.8h-4.9v-44h4.9V177h10.8v-19.8h4.9v44h-4.9v-19.8H324.4z"/>
			<linearGradient id="XMLID_105_" gradientUnits="userSpaceOnUse" x1="320.0255" y1="138.763" x2="701.2189" y2="519.9565">
				<stop  offset="0" style="stop-color:#F15A29"/>
				<stop  offset="0.3053" style="stop-color:#EB4B35"/>
				<stop  offset="0.8901" style="stop-color:#DD2455"/>
				<stop  offset="1" style="stop-color:#DA1C5C"/>
			</linearGradient>
			<path id="XMLID_61_" class="st5" d="M367.1,176.7v4.4h-10.7v15.6h13.2v4.5h-18.1v-44h18.1v4.5h-13.2v15H367.1z"/>
			<linearGradient id="XMLID_119_" gradientUnits="userSpaceOnUse" x1="323.5878" y1="112.8447" x2="694.9673" y2="484.2242">
				<stop  offset="0" style="stop-color:#F15A29"/>
				<stop  offset="0.3053" style="stop-color:#EB4B35"/>
				<stop  offset="0.8901" style="stop-color:#DD2455"/>
				<stop  offset="1" style="stop-color:#DA1C5C"/>
			</linearGradient>
			<path id="XMLID_63_" class="st6" d="M399.9,167.9v1.1c0,4.5-1.8,7.8-5.4,9.1c3.7,1.3,5.4,4.6,5.4,9v3.5c0,6.7-3.1,11.1-9.9,11.1
				c-6.7,0-9.9-4.4-9.9-11.1v-4.3h4.6v4.5c0,4,1.6,6.3,5.2,6.3c3.6,0,5.1-2.3,5.1-6.7V187c0-4.3-1.9-6.5-5.7-6.5h-2.1v-4.4h2.3
				c3.3,0,5.4-2.2,5.4-6v-2c0-4.5-1.6-6.8-5.1-6.8c-3.5,0-5.2,2.4-5.2,6.3v3h-4.5v-2.8c0-6.7,3.1-11,9.8-11
				C396.7,156.8,399.9,161.2,399.9,167.9z"/>
			<linearGradient id="XMLID_120_" gradientUnits="userSpaceOnUse" x1="324.0393" y1="85.8467" x2="720.2732" y2="482.0805">
				<stop  offset="0" style="stop-color:#F15A29"/>
				<stop  offset="0.3053" style="stop-color:#EB4B35"/>
				<stop  offset="0.8901" style="stop-color:#DD2455"/>
				<stop  offset="1" style="stop-color:#DA1C5C"/>
			</linearGradient>
			<path id="XMLID_65_" class="st7" d="M415.9,192.4l-1.7,8.9h-4.5l8.4-44h7.1l8.4,44h-4.9l-1.7-8.9H415.9z M416.5,188.1h9.8
				l-5-25.4L416.5,188.1z"/>
			<linearGradient id="XMLID_121_" gradientUnits="userSpaceOnUse" x1="326.8321" y1="54.974" x2="701.3629" y2="429.5048">
				<stop  offset="0" style="stop-color:#F15A29"/>
				<stop  offset="0.3053" style="stop-color:#EB4B35"/>
				<stop  offset="0.8901" style="stop-color:#DD2455"/>
				<stop  offset="1" style="stop-color:#DA1C5C"/>
			</linearGradient>
			<path id="XMLID_70_" class="st8" d="M453.6,157.2c6.8,0,9.5,3.3,9.5,9.7v2.1c0,4.6-1.3,7.5-5.2,8.7c4.3,1.2,5.9,4.6,5.9,9.4v3.7
				c0,6.6-3.2,10.3-10,10.3h-10.1v-44H453.6z M452.4,175.9c3.9,0,5.9-1.3,5.9-5.8v-2.6c0-3.9-1.3-5.8-4.8-5.8h-4.8v14.2H452.4z
				 M453.8,196.8c3.6,0,5.2-1.9,5.2-6v-3.9c0-4.9-1.9-6.5-6.2-6.5h-4.3v16.4H453.8z"/>
			<linearGradient id="XMLID_122_" gradientUnits="userSpaceOnUse" x1="333.1283" y1="27.3887" x2="701.1657" y2="395.4262">
				<stop  offset="0" style="stop-color:#F15A29"/>
				<stop  offset="0.3053" style="stop-color:#EB4B35"/>
				<stop  offset="0.8901" style="stop-color:#DD2455"/>
				<stop  offset="1" style="stop-color:#DA1C5C"/>
			</linearGradient>
			<path id="XMLID_74_" class="st9" d="M486.2,180.9l-6.5,20.3h-5.1v-44h4.3V190l3.9-12.1l7-20.7h5.5v44h-4.4v-35L486.2,180.9z"/>
			<linearGradient id="XMLID_123_" gradientUnits="userSpaceOnUse" x1="334.483" y1="-2.3699" x2="705.7242" y2="368.8713">
				<stop  offset="0" style="stop-color:#F15A29"/>
				<stop  offset="0.3053" style="stop-color:#EB4B35"/>
				<stop  offset="0.8901" style="stop-color:#DD2455"/>
				<stop  offset="1" style="stop-color:#DA1C5C"/>
			</linearGradient>
			<path id="XMLID_76_" class="st10" d="M526,167.9v4h-4.6v-4.2c0-4-1.6-6.3-5.2-6.3c-3.5,0-5.1,2.4-5.1,6.3v23.2
				c0,4,1.6,6.3,5.1,6.3c3.6,0,5.2-2.4,5.2-6.3v-5.7h4.6v5.5c0,6.7-3.1,11.1-9.9,11.1c-6.7,0-9.9-4.4-9.9-11.1v-22.7
				c0-6.7,3.1-11.1,9.9-11.1C522.8,156.8,526,161.2,526,167.9z"/>
			<linearGradient id="XMLID_124_" gradientUnits="userSpaceOnUse" x1="338.972" y1="-28.8793" x2="707.0049" y2="339.1536">
				<stop  offset="0" style="stop-color:#F15A29"/>
				<stop  offset="0.3053" style="stop-color:#EB4B35"/>
				<stop  offset="0.8901" style="stop-color:#DD2455"/>
				<stop  offset="1" style="stop-color:#DA1C5C"/>
			</linearGradient>
			<path id="XMLID_78_" class="st11" d="M548.3,180.9l-6.5,20.3h-5.1v-44h4.3V190l3.9-12.1l7-20.7h5.5v44H553v-35L548.3,180.9z"/>
			<linearGradient id="XMLID_125_" gradientUnits="userSpaceOnUse" x1="360.2908" y1="-43.0444" x2="700.779" y2="297.4438">
				<stop  offset="0" style="stop-color:#F15A29"/>
				<stop  offset="0.3053" style="stop-color:#EB4B35"/>
				<stop  offset="0.8901" style="stop-color:#DD2455"/>
				<stop  offset="1" style="stop-color:#DA1C5C"/>
			</linearGradient>
			<path id="XMLID_80_" class="st12" d="M584.9,201.1h-4.7l-7.3-35v35h-4.3v-44h6.8l7.2,35.1l7-35.1h6.8v44h-4.6v-35.4L584.9,201.1z
				"/>
			<linearGradient id="XMLID_126_" gradientUnits="userSpaceOnUse" x1="345.1963" y1="-93.0954" x2="713.7595" y2="275.4679">
				<stop  offset="0" style="stop-color:#F15A29"/>
				<stop  offset="0.3053" style="stop-color:#EB4B35"/>
				<stop  offset="0.8901" style="stop-color:#DD2455"/>
				<stop  offset="1" style="stop-color:#DA1C5C"/>
			</linearGradient>
			<path id="XMLID_82_" class="st13" d="M607.4,167.9c0-6.7,3.3-11.1,10-11.1c6.8,0,10.1,4.3,10.1,11.1v22.7
				c0,6.7-3.3,11.1-10.1,11.1c-6.7,0-10-4.4-10-11.1V167.9z M612.3,190.8c0,4,1.7,6.3,5.2,6.3c3.6,0,5.2-2.3,5.2-6.3v-23.2
				c0-4-1.6-6.3-5.2-6.3c-3.5,0-5.2,2.4-5.2,6.3V190.8z"/>
			<linearGradient id="XMLID_127_" gradientUnits="userSpaceOnUse" x1="345.8515" y1="-122.9517" x2="717.0927" y2="248.2895">
				<stop  offset="0" style="stop-color:#F15A29"/>
				<stop  offset="0.3053" style="stop-color:#EB4B35"/>
				<stop  offset="0.8901" style="stop-color:#DD2455"/>
				<stop  offset="1" style="stop-color:#DA1C5C"/>
			</linearGradient>
			<path id="XMLID_85_" class="st14" d="M657.9,167.9v4h-4.6v-4.2c0-4-1.6-6.3-5.2-6.3c-3.5,0-5.1,2.4-5.1,6.3v23.2
				c0,4,1.6,6.3,5.1,6.3c3.6,0,5.2-2.4,5.2-6.3v-5.7h4.6v5.5c0,6.7-3.1,11.1-9.9,11.1c-6.7,0-9.9-4.4-9.9-11.1v-22.7
				c0-6.7,3.1-11.1,9.9-11.1C654.8,156.8,657.9,161.2,657.9,167.9z"/>
			<linearGradient id="XMLID_128_" gradientUnits="userSpaceOnUse" x1="306.7455" y1="-195.914" x2="720.3091" y2="217.6497">
				<stop  offset="0" style="stop-color:#F15A29"/>
				<stop  offset="0.3053" style="stop-color:#EB4B35"/>
				<stop  offset="0.8901" style="stop-color:#DD2455"/>
				<stop  offset="1" style="stop-color:#DA1C5C"/>
			</linearGradient>
			<path id="XMLID_87_" class="st15" d="M675.4,201.2v-39.5h-8.1v-4.5h21.1v4.5h-8.1v39.5H675.4z"/>
		</g>
		<g id="XMLID_40_">
			<linearGradient id="XMLID_129_" gradientUnits="userSpaceOnUse" x1="295.2657" y1="69.44" x2="661.5234" y2="435.6977">
				<stop  offset="0" style="stop-color:#F15A29"/>
				<stop  offset="0.3053" style="stop-color:#EB4B35"/>
				<stop  offset="0.8901" style="stop-color:#DD2455"/>
				<stop  offset="1" style="stop-color:#DA1C5C"/>
			</linearGradient>
			<path id="XMLID_44_" class="st16" d="M339.6,109v5.8c0,7-3.5,11.1-10.3,11.1s-10.3-4-10.3-11.1V92c0-7,3.5-11.1,10.3-11.1
				s10.3,4,10.3,11.1v4.3H333v-4.7c0-3.1-1.4-4.3-3.6-4.3s-3.6,1.2-3.6,4.3v23.7c0,3.1,1.4,4.3,3.6,4.3s3.6-1.1,3.6-4.3V109H339.6z"
				/>
			<linearGradient id="XMLID_130_" gradientUnits="userSpaceOnUse" x1="288.1215" y1="13.5294" x2="693.5163" y2="418.9243">
				<stop  offset="0" style="stop-color:#F15A29"/>
				<stop  offset="0.3053" style="stop-color:#EB4B35"/>
				<stop  offset="0.8901" style="stop-color:#DD2455"/>
				<stop  offset="1" style="stop-color:#DA1C5C"/>
			</linearGradient>
			<path id="XMLID_46_" class="st17" d="M363.8,81.5h21.4v6.3h-7.2v37.7H371V87.8h-7.2V81.5z"/>
			<linearGradient id="XMLID_131_" gradientUnits="userSpaceOnUse" x1="266.4559" y1="-46.604" x2="746.952" y2="433.8922">
				<stop  offset="0" style="stop-color:#F15A29"/>
				<stop  offset="0.3053" style="stop-color:#EB4B35"/>
				<stop  offset="0.8901" style="stop-color:#DD2455"/>
				<stop  offset="1" style="stop-color:#DA1C5C"/>
			</linearGradient>
			<path id="XMLID_48_" class="st18" d="M408.1,81.5H420V98h3.3c6.9,0,10.3,3.8,10.3,10.9v5.7c0,7-3.4,10.9-10.3,10.9h-10.2V87.8h-5
				V81.5z M423.2,119.2c2.2,0,3.4-1,3.4-4.1v-6.6c0-3.1-1.2-4.1-3.4-4.1H420v14.9H423.2z"/>
			<linearGradient id="XMLID_132_" gradientUnits="userSpaceOnUse" x1="310.4959" y1="-56.6064" x2="673.746" y2="306.6437">
				<stop  offset="0" style="stop-color:#F15A29"/>
				<stop  offset="0.3053" style="stop-color:#EB4B35"/>
				<stop  offset="0.8901" style="stop-color:#DD2455"/>
				<stop  offset="1" style="stop-color:#DA1C5C"/>
			</linearGradient>
			<path id="XMLID_51_" class="st19" d="M466.6,125.4h-6.9v-44h21.8v44h-7V87.8h-7.9V125.4z"/>
			<linearGradient id="XMLID_133_" gradientUnits="userSpaceOnUse" x1="318.2577" y1="-98.1757" x2="676.9866" y2="260.5532">
				<stop  offset="0" style="stop-color:#F15A29"/>
				<stop  offset="0.3053" style="stop-color:#EB4B35"/>
				<stop  offset="0.8901" style="stop-color:#DD2455"/>
				<stop  offset="1" style="stop-color:#DA1C5C"/>
			</linearGradient>
			<path id="XMLID_53_" class="st20" d="M517.5,107.9l-2.1,4v13.5h-6.9v-44h6.9v19.2l9-19.2h6.9l-9.6,19.6l9.6,24.4h-7.1
				L517.5,107.9z"/>
			<linearGradient id="XMLID_134_" gradientUnits="userSpaceOnUse" x1="308.3288" y1="-151.4073" x2="694.7409" y2="235.0048">
				<stop  offset="0" style="stop-color:#F15A29"/>
				<stop  offset="0.3053" style="stop-color:#EB4B35"/>
				<stop  offset="0.8901" style="stop-color:#DD2455"/>
				<stop  offset="1" style="stop-color:#DA1C5C"/>
			</linearGradient>
			<path id="XMLID_55_" class="st21" d="M578.8,125.4h-7l-1.2-8h-8.5l-1.2,8h-6.3l7-44h10.1L578.8,125.4z M563,111.5h6.7l-3.3-22.2
				L563,111.5z"/>
		</g>
	</g>
</g>
</svg>
