<?xml version="1.0" encoding="utf-8"?>
<!-- Generator: Adobe Illustrator 19.0.0, SVG Export Plug-In . SVG Version: 6.00 Build 0)  -->
<svg version="1.1" id="Layer_1" xmlns="http://www.w3.org/2000/svg" xmlns:xlink="http://www.w3.org/1999/xlink" x="0px" y="0px"
	 viewBox="0 0 314 300" style="enable-background:new 0 0 314 300;" xml:space="preserve">
<style type="text/css">
	.st0{fill:url(#XMLID_70_);}
</style>
<g id="XMLID_230_">
	<g id="XMLID_5_">
		
			<linearGradient id="XMLID_70_" gradientUnits="userSpaceOnUse" x1="906.329" y1="-71.0438" x2="752.2153" y2="249.535" gradientTransform="matrix(0.3309 -0.9437 0.9437 0.3309 -175.5825 865.9841)">
			<stop  offset="0" style="stop-color:#F15A29"/>
			<stop  offset="0.3053" style="stop-color:#EB4B35"/>
			<stop  offset="0.8901" style="stop-color:#DD2455"/>
			<stop  offset="1" style="stop-color:#DA1C5C"/>
		</linearGradient>
		<path id="XMLID_134_" class="st0" d="M271.4,8.9c11.1,0.4,20.9,9.3,23.7,20c2.8,10.7-0.9,22.6-8.3,30.8
			c-6.9,7.5-16.3,12.1-24.4,18.3c-22.2,17.2-34.5,48.9-26.1,75.7c-13.3-44.2-15.4-85,5-126.4C247.2,16.5,260.4,8.5,271.4,8.9z
			 M282,240.1c-24.7-17.9-36-42.4-41.9-72.3c3.4,18.2,20.3,33,38.6,36.2c6.6,1.2,13.6,0.9,19.9,3.2c6.9,2.5,12.7,8.3,14.3,15.4
			c1.7,7.1-1.4,15.3-7.7,19C298.9,245.3,288.7,244.6,282,240.1z M211.2,132.9c16.8,45.9,19.4,93.6,9.8,138.1l-0.2-0.2
			c-2.7,12-11.3,22.4-23.7,26.9c-19.4,7.1-41-2.9-48.1-22.3c-2.1-5.8-2.8-10.5-2.1-16.2c1.7-14.9,21.8-30.9,14.2-62.6
			c-6.7-28-17.3-51.1-94.3-48c-28.8-0.7-52.2-21.9-61.7-47.8c-14.3-38.9,5.7-82,44.6-96.2c23.6-8.7,48.8-4.7,68.1,8.5
			C159.3,41.4,192.7,82.2,211.2,132.9z M89.9,69.6c0-11.6-9.4-21-21-21s-21,9.4-21,21s9.4,21,21,21S89.9,81.2,89.9,69.6z"/>
	</g>
</g>
</svg>
