<svg version="1.1" id="Layer_1" xmlns="http://www.w3.org/2000/svg" xmlns:xlink="http://www.w3.org/1999/xlink" x="0px" y="0px"
	 viewBox="0 0 700 805" style="enable-background:new 0 0 700 805;" xml:space="preserve">
<style type="text/css">
	.st0{fill:#E6E7E8;}
</style>
<g id="light">
	<g id="XMLID_199_">
		<path id="XMLID_219_" class="st0" d="M24.6,803.3v-1c0.9-0.2,1.6-0.4,2.2-0.6s0.8-0.7,0.8-1.3c0-0.6-0.2-1.4-0.5-2.5
			c-0.4-1.1-0.6-1.8-0.8-2.2l-2.2-5.9c-1.1-0.2-3-0.2-5.5-0.2h-2.3c-2.3-0.1-4.4,0-6.1,0.4l-2.2,5.4c-0.9,2.3-1.4,3.7-1.4,4.2
			c0,0.7,0.3,1.3,0.9,1.7s1.9,0.8,3.8,1.1v1c-2.3-0.3-4.2-0.4-5.8-0.4c-1.6,0-3.4,0.1-5.3,0.2v-0.8c1.2-0.3,2.1-0.8,2.7-1.4
			c0.5-0.4,1.1-1.4,1.9-2.9c0.8-1.5,1.6-3.2,2.3-5c0.8-1.8,1.4-3.2,1.7-4.2l4.7-11.2c0.6-1.3,1.2-2.8,1.8-4.2c0.6-1.5,1.2-3,1.7-4.4
			c0.5-1.5,0.9-2.7,1.2-3.6c0-0.3,0.1-0.4,0.2-0.6l1-0.1c0.6,2.2,1.3,4.2,2,6.2l6.1,16.5c1.6,4.1,2.8,7.2,3.6,9.1
			c0.8,2,1.5,3.4,2.1,4.2c0.5,0.7,1.5,1.2,3.1,1.3v1c-1.6-0.2-3.1-0.2-4.6-0.2c-1.2,0-2.3,0-3.3,0.1c-1,0.1-1.8,0.1-2.4,0.2
			C25.3,803.2,24.9,803.3,24.6,803.3z M15.3,776.9l-3.3,8.5c-0.4,1.2-0.8,2-0.9,2.3c1.5,0.2,3.2,0.4,5.1,0.4l2.7-0.1
			c1.6,0,3.1,0,4.4-0.1c-0.7-2-1.1-3.2-1.3-3.5l-2.1-5.4c-0.2-0.6-0.7-1.7-1.3-3.2c-0.7-1.5-1.1-2.6-1.4-3.2c-0.4,0.8-0.7,1.6-1,2.2
			C15.9,775.5,15.6,776.2,15.3,776.9z"/>
		<path id="XMLID_217_" class="st0" d="M85.5,803.3l-1.2-0.1c0-2.7-0.5-6-1.6-9.8c0.5-0.1,0.8-0.2,0.9-0.2c0.5,1.5,0.8,2.5,1.1,3.2
			s0.6,1.2,1,1.7c0.4,0.5,1,0.9,1.7,1.3c1.3,0.7,2.7,1.3,4.4,1.8s3.4,0.8,5.4,0.8c1.7,0,3.3-0.4,5-1.2c1.7-0.8,2.5-2.6,2.5-5.4
			c0-1.4-0.2-2.6-0.7-3.6c-0.5-1-1.1-1.8-1.9-2.5c-0.8-0.6-1.7-1.2-2.8-1.7s-2.4-1-4.1-1.7c-2.3-0.8-4.2-1.7-5.7-2.6
			c-1.5-0.9-2.7-2-3.6-3.3c-0.9-1.3-1.3-2.9-1.3-4.7c0-2.9,1.1-5.4,3.3-7.4s5.3-2.9,9.3-2.9c2.1,0,4.1,0.2,6.1,0.6
			c0.8,0.2,1.3,0.2,1.5,0.2c0.6,0,1.2-0.2,1.8-0.6l0.2-0.1c0.2,0,0.4,0,0.6,0.1c-0.1,0.4-0.1,0.9-0.2,1.3s-0.1,0.9-0.1,1.5
			c0,0.5-0.1,0.9-0.1,1.2c0,0.3,0,0.5-0.1,0.6c0.3,2.4,0.4,3.7,0.4,3.9l-0.9,0.1c-0.2-2-0.8-3.6-2-4.7c-1.2-1.1-2.5-1.9-3.9-2.3
			c-1.4-0.4-2.8-0.6-4.2-0.6c-3.2,0-5.4,0.8-6.4,2.5s-1.6,3.3-1.6,4.8c0,1.6,0.4,2.9,1.2,3.9c0.8,1,1.8,1.9,2.9,2.5
			c1.2,0.6,2.8,1.3,4.9,2.1c2.4,0.9,4.3,1.8,5.7,2.6c1.4,0.8,2.7,1.9,3.9,3.4s1.7,3.3,1.7,5.6c0,1.9-0.5,3.6-1.5,5.1
			c-1,1.5-2.4,2.7-4.4,3.6c-2,0.9-4.3,1.3-7.2,1.3c-2.8,0-5.6-0.4-8.6-1.2c-0.5-0.1-0.8-0.2-1-0.2C85.6,802.2,85.4,802.6,85.5,803.3
			z"/>
		<path id="XMLID_215_" class="st0" d="M156.6,771.7l-1-0.2c0.9-2.4,1.7-4.8,2.5-7c0.5,0.4,0.8,0.7,1.1,0.8c0.2,0.1,0.7,0.2,1.3,0.3
			c1.2,0.2,4.1,0.2,8.5,0.2h14.8c0.4,0,1.6,0,3.6-0.1c2,0,3.2-0.1,3.5-0.1c0.8,0,1.4-0.1,1.6-0.2c0.3-0.1,0.6-0.3,0.9-0.7
			c0.2,0.3,0.4,0.5,0.8,0.7c-0.7,1.9-1.2,3.9-1.6,6l-1.3,0.2c0.1-0.6,0.2-1.5,0.2-2.6c-0.5-0.5-1.4-0.8-2.6-1.1s-3.2-0.4-5.8-0.4
			c-2,0-3.2,0-3.9,0c-0.6,0-1,0.1-1.2,0.2c-0.2,0.1-0.3,0.4-0.3,0.8l-0.2,3.9c0,0.6-0.1,2.3-0.2,5.2c0,0.7,0,2.6-0.1,5.8
			c0,3.1,0,5.9-0.1,8.2c0,2.9,0,5,0.1,6.2s0.2,2.1,0.5,2.7c0.3,0.6,0.7,1,1.2,1.2s1.5,0.4,2.9,0.6c0.9,0.1,1.3,0.2,1.3,0.4
			c0,0.4,0,0.6-0.1,0.7c-0.3,0-0.7,0.1-1.1,0.1c-1.2-0.1-2.2-0.1-3.1-0.2c-1.3-0.1-2.4-0.2-3.2-0.2c-1.9,0-4,0.2-6.2,0.5
			c-1.2,0.2-1.9,0.3-2.1,0.3c-0.3,0-0.5-0.1-0.6-0.2s-0.3-0.4-0.4-0.8c0.3-0.1,0.9-0.2,1.8-0.5c1.4-0.3,2.3-0.6,2.9-0.8
			s1-0.6,1.1-0.9s0.2-1,0.2-1.8c0-1,0.1-2.1,0.2-3.3c0,0.1,0-1,0.1-3.5s0.1-4.2,0.1-5.2c0-1,0-2.3,0-3.7c0-4.2,0-7.2,0-9
			s-0.1-3.2-0.2-4.2c-0.1-1-0.3-1.8-0.5-2.3c-1.7-0.2-3.5-0.2-5.5-0.2c-2.1,0-3.7,0.1-4.9,0.2s-2.1,0.4-2.7,0.7s-1.1,0.7-1.3,1.1
			C157.5,770,157.1,770.7,156.6,771.7z"/>
		<path id="XMLID_212_" class="st0" d="M258.9,790.1l-3.4-4.8c-2.6,0-4.7-0.1-6.4-0.4l-0.1,7c0,1.5,0,3.1,0.1,5
			c0.1,1.8,0.3,3.1,0.6,3.9c0.2,0.5,0.4,0.8,0.8,1c0.4,0.2,1.2,0.5,2.6,0.8c0.4,0.1,0.6,0.3,0.6,0.5c0,0.4-0.1,0.6-0.4,0.6
			c-0.3,0-1.1-0.1-2.5-0.3c-1.7-0.2-2.7-0.2-3.1-0.2c-1.9,0-3.8,0.1-5.9,0.4c-0.1,0-0.3,0-0.5,0.1c-0.4,0-0.6-0.2-0.6-0.5
			c0-0.2,0.1-0.3,0.2-0.4s0.5-0.2,1-0.4c0.9-0.2,1.5-0.6,1.9-1.1s0.7-1.4,0.8-2.8c0.2-1.4,0.3-3.6,0.3-6.7v-12.9c0-3.2,0-5.5,0-7
			c-0.1-1.5-0.2-2.6-0.5-3.3c-0.3-0.7-0.6-1.2-1.2-1.4c-0.5-0.2-1.4-0.4-2.5-0.6l0.1-1c1,0,2.4,0.1,4,0.1c0.5,0,2.2-0.1,5.1-0.4
			c2.9-0.2,4.8-0.4,5.6-0.4c2.1,0,3.9,0.3,5.5,0.8c1.6,0.6,3,1.3,4.1,2.3c1.1,0.9,1.9,2,2.5,3.2c0.6,1.2,0.8,2.4,0.8,3.7
			c0,1.3-0.3,2.6-0.9,3.8c-0.6,1.2-1.5,2.3-2.7,3.4c-1.2,1-2.7,1.9-4.6,2.6l1.3,2c1.8,2.8,3.4,5,4.6,6.7c1.2,1.7,2.5,3.4,3.9,4.9
			c1.4,1.6,2.8,2.9,4.3,3.9c1.5,1,2.9,1.5,4.3,1.7c0.4,0.1,0.6,0.3,0.6,0.6c0,0.2-0.1,0.3-0.3,0.4s-0.6,0.1-1.3,0.1
			c-1.9,0-3.7-0.4-5.5-1.2c-1.8-0.8-3.4-1.9-5-3.4c-1.6-1.4-3-2.9-4.2-4.4C262,794.4,260.6,792.5,258.9,790.1z M249.3,783.2
			c1.3,0.3,2.9,0.5,4.7,0.5c0.9,0,1.9-0.1,3-0.2s2.1-0.4,3.2-0.9c1.1-0.5,2.1-1.3,2.9-2.4c0.8-1.1,1.2-2.6,1.2-4.5
			c0-1.3-0.3-2.7-1-4.2c-0.7-1.5-1.8-2.7-3.2-3.7c-1.4-1-3.2-1.6-5.3-1.6c-0.9,0-1.8,0.1-2.9,0.3c-1.1,0.2-1.7,0.6-1.9,1.1
			C249.5,768.6,249.3,773.8,249.3,783.2z"/>
		<path id="XMLID_209_" class="st0" d="M321.7,784.3c0-3.6,0.9-6.8,2.8-9.8c1.9-3,4.4-5.4,7.5-7.1c3.1-1.8,6.4-2.6,9.9-2.6
			c2.4,0,4.7,0.5,7.1,1.4s4.4,2.3,6.2,3.9c1.8,1.7,3.3,3.8,4.4,6.2c1.1,2.4,1.6,5.1,1.6,8c0,3.5-0.9,6.8-2.6,9.8
			c-1.7,3-4.2,5.5-7.3,7.3s-6.6,2.7-10.5,2.7c-3,0-5.7-0.6-8.1-1.8c-2.4-1.2-4.4-2.8-6.1-4.7c-1.7-2-2.9-4.1-3.8-6.4
			C322.1,788.7,321.7,786.5,321.7,784.3z M326.1,782c0,3.4,0.8,6.7,2.4,9.7c1.6,3,3.7,5.5,6.4,7.3c2.7,1.8,5.5,2.7,8.6,2.7
			c2.2,0,4.4-0.6,6.4-1.7c2-1.1,3.7-2.8,5-5.1c1.3-2.3,2-5.1,2-8.5c0-2.7-0.4-5.3-1.3-7.7s-2.1-4.5-3.6-6.4
			c-1.6-1.8-3.3-3.2-5.4-4.2s-4.2-1.5-6.4-1.5c-2.5,0-4.8,0.6-6.9,1.8c-2.1,1.2-3.9,3-5.2,5.3C326.7,776.2,326.1,778.9,326.1,782z"
			/>
		<path id="XMLID_207_" class="st0" d="M411.5,766.5v-1c2.5,0,4.1,0,4.8,0.1c0.8,0,1.4,0,1.9,0.1c3.3,0,5.4,0,6.5-0.1l-0.1,1.1
			c-1.3,0.1-2.4,0.3-3,0.5c-0.7,0.2-1.1,0.6-1.4,1.3c-0.2,0.4-0.3,1.5-0.4,3.2c-0.1,1.7-0.1,3.9-0.2,6.6c-0.1,3-0.1,5.8-0.2,8.2
			s-0.1,4.9-0.1,7.3c0,2.2,0.1,3.8,0.2,4.9c0.1,1.1,0.3,1.7,0.6,2c0.3,0.3,0.9,0.4,1.7,0.6c0.8,0.1,2.4,0.2,4.9,0.2
			c2.8,0,5.1-0.2,7-0.7c1.9-0.4,3.3-0.9,4.2-1.4c1.2-0.8,2.1-2.1,2.6-3.9l1,0.1c-0.1,0.8-0.4,2-0.8,3.6c-0.4,1.6-0.9,3.1-1.4,4.4
			c-1.7-0.2-3-0.3-4-0.3c-0.6,0-1.2,0-1.7,0c-0.5,0-1.1,0-1.8,0h-20.6l-0.1-0.9c1.1-0.2,2-0.5,2.5-0.8s0.9-0.7,1.2-1.4
			c0.3-0.7,0.4-1.7,0.5-3c0.1-1.3,0.1-3.3,0.1-5.8l0.1-12.9c0-2.9,0-5.1,0-6.6c0-1.5-0.2-2.6-0.4-3.4c-0.2-0.7-0.6-1.2-1.1-1.4
			C413.4,766.7,412.6,766.5,411.5,766.5z"/>
		<path id="XMLID_204_" class="st0" d="M488.2,784.3c0-3.6,0.9-6.8,2.8-9.8c1.9-3,4.4-5.4,7.5-7.1c3.1-1.8,6.4-2.6,9.9-2.6
			c2.4,0,4.7,0.5,7.1,1.4s4.4,2.3,6.2,3.9c1.8,1.7,3.3,3.8,4.4,6.2c1.1,2.4,1.6,5.1,1.6,8c0,3.5-0.9,6.8-2.6,9.8
			c-1.7,3-4.2,5.5-7.3,7.3c-3.1,1.8-6.6,2.7-10.5,2.7c-3,0-5.7-0.6-8.1-1.8c-2.4-1.2-4.4-2.8-6.1-4.7s-2.9-4.1-3.8-6.4
			C488.6,788.7,488.2,786.5,488.2,784.3z M492.6,782c0,3.4,0.8,6.7,2.4,9.7c1.6,3,3.7,5.5,6.4,7.3c2.7,1.8,5.5,2.7,8.6,2.7
			c2.2,0,4.4-0.6,6.4-1.7c2-1.1,3.7-2.8,5-5.1c1.3-2.3,2-5.1,2-8.5c0-2.7-0.4-5.3-1.3-7.7c-0.9-2.4-2.1-4.5-3.6-6.4
			s-3.3-3.2-5.4-4.2c-2-1-4.2-1.5-6.4-1.5c-2.5,0-4.8,0.6-6.9,1.8c-2.1,1.2-3.9,3-5.2,5.3C493.2,776.2,492.6,778.9,492.6,782z"/>
		<path id="XMLID_202_" class="st0" d="M615,784.6v1.1c-0.8,0.3-1.2,0.4-1.5,0.6c-0.2,0.1-0.4,0.4-0.5,0.8c-0.1,0.3-0.2,0.6-0.2,1
			c0,0.4-0.1,1.1-0.1,1.9s0,2.5,0,4.8c0,1.7,0,3,0.1,3.7s0.2,1.3,0.4,1.5c0.2,0.3,0.4,0.6,0.8,0.9l-0.3,0.7c-0.3,0-1.7,0.3-4.1,0.8
			c-1.6,0.3-3.1,0.5-4.6,0.7c-1.5,0.2-2.6,0.3-3.5,0.4s-1.9,0.1-3.1,0.1c-3.6,0-6.8-0.6-9.4-1.7c-2.7-1.1-4.9-2.6-6.6-4.5
			s-3-4-3.8-6.2c-0.8-2.2-1.2-4.5-1.2-6.8c0-3,0.6-5.7,1.8-8.2c1.2-2.5,2.9-4.6,5-6.2s4.5-3,7.2-3.8c2.7-0.8,5.4-1.3,8.3-1.3
			c1.1,0,2.1,0.1,3.1,0.2c1,0.1,1.9,0.3,2.6,0.5c0.7,0.2,1.2,0.3,1.4,0.4c0.8,0.4,1.4,0.6,1.6,0.6c1-0.9,1.6-1.3,1.8-1.3
			c0.3,0,0.4,0.4,0.4,1.1c0,0.6,0.1,1.8,0.4,3.6s0.4,3.1,0.4,3.8c0,0.3-0.1,0.4-0.4,0.4c-0.2,0-0.3,0-0.3-0.1s-0.1-0.3-0.3-0.6
			c-0.7-1.7-2.1-3.3-4.1-4.7c-2-1.5-4.7-2.2-8.1-2.2c-3.2,0-6.1,0.8-8.6,2.4c-2.5,1.6-4.4,3.8-5.7,6.4s-2,5.4-2,8.2
			c0,2,0.4,4.1,1.1,6.2c0.8,2.1,1.9,4.1,3.4,6c1.5,1.9,3.4,3.4,5.6,4.5c2.2,1.1,4.6,1.7,7.3,1.7c2.2,0,4.1-0.3,5.7-0.9
			c1.6-0.6,2.6-1.2,3-1.8c0.2-0.3,0.4-0.7,0.4-1.3c0.1-0.6,0.1-2.1,0.1-4.5c0-2.4-0.1-4-0.3-5c-0.2-0.9-0.6-1.6-1.3-1.9
			c-0.7-0.3-2-0.5-3.7-0.5c-0.8,0-1.4,0-1.8,0.1l0.1-1.3c2.7,0,5.2-0.1,7.5-0.1S613.3,784.7,615,784.6z"/>
		<path id="XMLID_200_" class="st0" d="M661.3,766.6l-0.2-1h2.9c1.4,0.1,2.5,0.1,3.1,0.1s1.1,0,1.2,0c0.5,0,1.3,0,2.2-0.1
			c0.9,0,2-0.1,3.3-0.1l1.4,0.1l-0.1,1.1c-1.4,0.1-2.3,0.2-2.8,0.4c-0.5,0.1-0.7,0.4-0.7,0.8c0,0.4,0.7,1.7,2.2,3.8s3.1,4.4,5,6.9
			s3.3,4.2,4.1,5.2c0.6-0.8,1.5-2.1,2.6-3.8l2.2-3.3c0.8-1.1,1.7-2.6,2.6-4.3c1-1.7,1.5-2.9,1.5-3.7c0-1.4-1.3-2.1-4-1.9l0.1-1.1
			l2.5,0.1c0.2,0,0.8,0,1.9,0.1c1.1,0,1.7,0.1,1.9,0.1c0.3,0,1.2,0,2.9-0.1c1.6,0,2.6-0.1,2.9-0.1l-0.1,1.2
			c-1.3,0.1-2.3,0.3-3.1,0.7c-0.8,0.4-1.7,1.2-2.8,2.4c-1,1.3-2.5,3.2-4.2,5.9l-3.2,4.9l-3.1,4.8l0.1,9.5c0,2.3,0,3.9,0.1,4.7
			c0.1,0.8,0.2,1.3,0.5,1.5s0.8,0.5,1.5,0.7c0.7,0.1,1.7,0.4,3.1,0.8l-0.1,0.8c0.2,0-0.6-0.1-2.2-0.2l-1.8-0.1
			c-0.8-0.1-1.4-0.1-1.9-0.1h-1.3c-0.3,0-1.5,0.1-3.5,0.2c-1.7,0.2-2.9,0.3-3.6,0.3v-0.9c2-0.1,3.4-0.5,4.1-1.2
			c0.3-0.3,0.5-0.6,0.6-1.1c0.1-0.5,0.2-1.5,0.2-3.1c0-1.6,0.1-4.2,0.1-7.8c0-2,0-3.2-0.1-3.6l-2.4-3.5c-1.2-1.7-2.3-3.3-3.4-4.7
			c-1.1-1.4-1.9-2.5-2.6-3.3c-2.1-2.6-3.6-4.4-4.5-5.4c-0.9-1-1.7-1.6-2.3-1.9C663.6,766.8,662.6,766.6,661.3,766.6z"/>
	</g>
	<g id="XMLID_178_">
		<path id="XMLID_196_" class="st0" d="M274.6,79l-18,40.4c-8.4,19.8-17.2,40-26.2,60.6c-9.1,20.6-18.7,40.9-28.8,60.9
			c-5.1,9.5-10.7,19.7-16.8,30.4c-6.2,10.8-12.9,21.5-20.1,32.1c-7.2,10.7-14.9,20.9-23.2,30.7c-8.2,9.8-16.8,18.6-25.8,26.2
			c-9,7.7-18.4,13.9-28.2,18.7s-19.9,7.3-30.2,7.7c-9.5-0.4-17.4-3.5-23.6-9.4c-6.2-5.9-11-13.5-14.5-22.7s-5.9-19.6-7.3-31.1
			c-1.4-11.5-2.1-23.2-2.1-34.9c0-12.3,0.5-25.3,1.5-38.7c1-13.5,2.5-27,4.5-40.7c2-13.7,4.3-27.2,7-40.5
			c2.7-13.4,5.8-26.1,9.1-38.3c0.6-2.2,1.8-6.3,3.8-12.2c2-5.9,4.2-12.1,6.7-18.5c2.5-6.5,5.3-12.5,8.3-18.2c3-5.7,5.9-9.6,8.7-11.6
			l2.2,1.4l-7,27.2c-8.1,31.4-14.8,63.6-20.4,96.4c-5.5,32.8-8.2,65.8-8,98.9c0,3.2,0.1,7.2,0.4,12.1c0.3,4.9,0.9,10.1,1.8,15.7
			c0.9,5.6,2.1,11.3,3.7,17.1c1.5,5.8,3.4,11.1,5.8,15.9c2.3,4.8,5.2,8.8,8.6,12.1c3.4,3.3,7.4,5.2,12.1,5.8
			c8.6-0.4,17.1-2.9,25.5-7.7s16.7-10.8,24.7-18.2c8.1-7.4,15.8-15.8,23.3-25.3c7.5-9.4,14.5-19.1,21.1-29
			c6.6-9.9,12.6-19.7,18.1-29.5c5.5-9.7,10.3-18.6,14.5-26.7c9-17.6,17.5-35.2,25.5-52.8c8-17.6,15.8-35.1,23.3-52.5
			c7.5-17.4,14.9-34.7,22.2-51.9c7.3-17.2,14.9-34.1,22.7-50.8c0.9-1.7,2.2-2.9,3.8-3.8c1.6-0.8,3.1-1.3,4.6-1.3
			c2.1,0,4,0.5,5.8,1.5c1.8,1,2.7,2.9,2.7,5.8c-5.6,54.3-10.7,108.2-15.2,161.8c-4.5,53.6-9.6,107.4-15.4,161.5l37.1-4.8v5.9
			l-37.6,5.9c-2.1,17-4.6,34.8-7.7,53.5c-3.1,18.6-6.8,37.4-11.1,56.3c-4.3,18.9-9.3,37.6-14.9,56.1c-5.6,18.5-12.1,36.2-19.5,53.2
			c-7.4,16.9-15.7,32.6-25,47c-9.3,14.4-19.7,27-31.2,37.7c-11.5,10.8-24.2,19.3-38,25.5c-13.9,6.3-29,9.7-45.5,10.2
			c-8.2-0.4-16.7-2-25.3-4.9s-16.4-7.4-23.4-13.5c-7-6.1-12.7-13.9-17.1-23.4C2.2,648.6,0,637,0,623.1c0-1.1,0-2.3,0-3.6
			c0-1.3,0.1-2.6,0.3-3.9v0.3c1.1-12.9,3.6-25.1,7.4-36.6c3.8-11.5,8.5-22.7,13.9-33.5c12.5-22.5,27.3-43.8,44.4-64
			c17-20.2,35.5-38.5,55.5-55c19.9-16.5,40.8-30.7,62.6-42.7c21.8-12,43.8-21,65.8-27.2l7.3-66.2v0.3c3.7-35.4,7-70.6,9.7-105.7
			c2.7-35.1,5.7-70.3,8.8-105.7L274.6,79z M13.5,615.5c-0.2,1.3-0.3,3.4-0.3,6.3c0,2.9,0,5,0,6.3c1.1,10.7,3.6,19.7,7.4,27.2
			c3.8,7.5,8.5,13.6,14,18.4c5.5,4.8,11.6,8.4,18.2,10.8c6.6,2.4,13.4,3.7,20.4,3.9c15-0.6,28.7-4,41.3-10.2
			c12.5-6.3,24-14.7,34.4-25.3c10.4-10.6,19.8-22.9,28.4-36.9c8.5-14,16.1-29.2,22.9-45.5c6.7-16.3,12.7-33.3,17.8-51.1
			c5.1-17.8,9.7-35.6,13.6-53.5c3.9-17.9,7.3-35.5,10.1-52.8c2.8-17.3,5.2-33.6,7.3-49c-17.4,5.6-33.6,12.2-48.7,19.6
			c-15.1,7.5-29.3,15.8-42.8,25c-13.5,9.2-26.4,19.3-38.8,30.3c-12.4,11-24.4,22.8-36.2,35.4c-7.1,8.4-14.5,18.1-22.2,29
			c-7.7,10.9-14.8,22.6-21.3,34.9c-6.6,12.3-12.2,25-16.8,38c-4.7,13-7.6,25.9-8.7,38.6V615.5z"/>
		<path id="XMLID_193_" class="st0" d="M409.4,8c7.7,0.3,13.6,4,17.6,11c4,7,6.5,15.8,7.3,26.5v13.1c-0.9,15.1-3,32-6.4,50.7
			c-3.4,18.8-7.8,38.3-13.1,58.6c-5.3,20.3-11.4,40.9-18.1,61.9c-6.8,21-14,41.3-21.6,61c-7.6,19.7-15.5,38.2-23.6,55.5
			c-8.1,17.3-16.1,32.4-24,45.2c-1,14.2-1.8,28.3-2.4,42.1c-0.6,13.9-0.9,27.8-0.9,41.9c0,13.4,0.4,26.5,1.2,39.4
			c0.8,12.9,1.8,26,3.2,39.2v-0.3c1.2,7.2,2.6,14.8,4.1,22.9c1.5,8,3.6,15.8,6.2,23.1c2.6,7.4,5.8,14,9.8,20
			c3.9,6,8.9,10.6,14.9,13.9h-0.3c1,0.5,3.1,1,6.3,1.5c3.2,0.5,7.2,1.4,12.2,2.6v2.3c-1,0.2-2.1,0.3-3.2,0.4
			c-1.1,0.1-2.4,0.1-3.7,0.1c-9.1,0-16.8-2.8-23.1-8.5c-6.3-5.7-11.7-12.7-15.9-21.2c-4.3-8.5-7.7-17.6-10.2-27.5
			c-2.5-9.9-4.4-19.1-5.8-27.6c-2.6-15.4-4.3-31.1-5.1-47c-0.9-15.9-1.3-31.7-1.3-47.3c0-18.8,0.5-37.6,1.4-56.4
			c0.9-18.8,2.3-37.4,4-55.9c0.7-7.5,1.8-18.2,3.3-32c1.5-13.8,3.5-29.4,5.9-46.9c2.4-17.5,5.2-36,8.5-55.7
			c3.3-19.7,6.8-39.3,10.7-58.8c3.9-19.5,8.1-38.2,12.7-56c4.6-17.8,9.6-33.5,14.9-47.1c5.3-13.6,10.8-24.5,16.6-32.6
			C397,12.1,403,8,409.4,8z M420.2,49.9c0-2.6-0.1-5.3-0.4-8.1c-0.3-2.8-0.8-5.5-1.7-8c-0.9-2.5-2-4.5-3.5-6.2
			c-1.5-1.6-3.3-2.5-5.5-2.7c-1.4,0-2.9,0.9-4.5,2.8c-1.6,1.9-3.3,4.1-4.9,6.6c-1.6,2.5-3.1,5-4.4,7.6c-1.3,2.6-2.3,4.5-3,5.9
			C386.6,61,381.2,76,376.2,92.9c-5,16.9-9.6,34.8-14,53.7c-4.4,18.9-8.4,38.4-11.9,58.6c-3.6,20.1-6.8,39.9-9.6,59.5
			c-2.8,19.5-5.3,38.3-7.3,56.3c-2.1,18-3.7,34.3-4.9,49.1l1.3,0.5c3.9-8.6,8.7-19.6,14.4-33.3c5.7-13.6,11.6-28.9,17.7-46
			c6.2-17,12.5-35.3,18.9-54.8c6.4-19.5,12.3-39.4,17.6-59.7s9.9-40.5,13.9-60.7c3.9-20.2,6.6-39.6,8-58.1V49.9z"/>
		<g id="XMLID_190_">
			<path id="XMLID_192_" class="st0" d="M409.8,272.5l1.1,0.2c1.2-0.2,2.4-1.1,3.6-2.8c1.2-1.7,2.2-3.6,3.1-5.9
				c0.8-2.2,1.7-4,2.6-5.2l1.7-3.2c3.8-9.3,8.6-18.8,14.3-28.6c0.5-0.7,0-1.6-1.4-2.7c-1.4-1.1-2.3-1.8-2.5-2
				c-0.4-0.3-1.3-0.8-2.6-1.5c-1.3-0.7-2.3-0.8-3.1-0.3c-1,1.6-2.7,5-5.2,10.2c-2.5,5.2-4.9,10.7-7.1,16.5c-2.3,5.9-4,11.2-5.2,16.2
				C407.8,268.3,408.1,271.3,409.8,272.5z"/>
			<path id="XMLID_191_" class="st0" d="M513.5,27.5c-3.4,0-6.6,1.5-9.4,4.5c-2.8,3-5.3,6.7-7.5,11c-2.1,4.4-4,9.1-5.5,14.1
				c-1.5,5.1-2.8,9.6-3.9,13.7c-2.1,11.8-4.2,24.4-6.4,37.9c-2.2,13.4-4.3,26.6-6.2,39.4l-2.1,13.6c-3.4,26.9-6.5,54.3-9.3,82.3
				c-2.7,28-5.1,55.7-7.2,83.1c-1.4,2.9-3.2,7.5-5.4,13.9c-2.2,6.3-4.5,13-6.9,20l-6.7,20c-0.9,2.6-1.8,5.2-2.8,7.8
				c-1,2.7-2,5.3-2.8,7.8v-0.3c-1,2.4-2.5,5.6-4.5,9.5c-2,3.9-4.2,7.9-6.6,11.9c-2.4,4-5,7.8-7.8,11.4c-2.8,3.6-5.6,6.2-8.4,7.7
				c-2.7-3.3-4.3-7.1-4.8-11.7c-0.4-4.5-0.6-8.3-0.6-11.2V413c0-1,0-2.1-0.1-3.1c-0.1-1-0.1-2.1-0.1-3.1v-6.2
				c0-15.2,0.8-29.9,2.3-44.1c1.5-14.1,3.7-28.1,6.4-42v-1.8c0-0.3,0-0.6,0.1-0.8c0.1-0.2,0.1-0.4,0.1-0.8c0-2.4-0.6-4.8-1.7-7.1
				c-1.1-2.3-3.2-3.5-6.3-3.5c-1.7,0-3.3,1.9-4.6,5.7c-1.4,3.8-2.6,8.6-3.7,14.5c-1.1,5.9-2.1,12.5-2.8,19.9
				c-0.8,7.4-1.5,14.6-2.1,21.8c-0.6,7.2-1,14-1.3,20.4c-0.3,6.4-0.4,11.6-0.4,15.5c0,4.3,0.1,9.5,0.4,15.5c0.3,6.1,1,11.9,2.3,17.6
				c1.3,5.7,3.3,10.6,6,14.8c2.7,4.2,6.5,6.5,11.3,7.1c3.8,0,7.5-1.5,11.1-4.4c3.6-2.9,7-6.7,10.1-11.4c3.2-4.7,6.1-10.1,8.9-16.1
				c2.7-6,5.2-12,7.5-18.1c2.2-6.1,4.2-11.9,5.9-17.6c1.7-5.7,3.1-10.4,4.1-14.4l1,0.5c-1.5,26.2-2.9,52.1-4,77.8
				c-1.1,25.7-1.8,51.8-2.2,78.3c0,20.2,0.3,28,0.9,47.7c0.6,19.8,2.3,39.4,5,59c0.3,3.1,0.9,6.8,1.7,11.2c0.8,4.4,1.7,8.9,2.8,13.7
				c1.1,4.8,2.4,9.5,4,14.3c1.5,4.7,3.3,8.9,5.4,12.7c2.1,3.8,4.4,6.8,6.9,9.1c2.6,2.3,5.5,3.5,8.7,3.5c0.3,0,0.8-0.1,1.3-0.3
				l2.8-0.5l0.5-2.1c-2.1-0.9-3.1-1.3-3.2-1.3c-0.1,0-0.3-0.1-0.6-0.3l-2.8-1c-2.9-2.6-5.4-6.3-7.3-11.2c-2-4.9-3.7-10.2-5.1-16.1
				c-1.5-5.8-2.6-11.8-3.5-17.9c-0.9-6.1-1.5-11.6-2.1-16.6v-0.3c-1.9-14.9-3-29.7-3.2-44.4c-0.3-14.7-0.4-17.4-0.4-32.5
				c0-32,0.6-64.6,1.9-97.6c1.3-33,3.1-66.2,5.5-99.5c2.4-33.3,5.3-66.5,8.7-99.5c3.4-33,7.4-65.5,11.8-97.4l2.1-13.6
				c1.9-12.8,3.9-25.9,6-39.3c2.1-13.4,4.5-26,7.1-38l4.9-22.9c0.3-1.4,0.7-2.7,1.2-3.9c0.4-1.2,0.8-2.5,1.2-3.9l-0.3,0.3l2.1-4.4
				L513.5,27.5z"/>
		</g>
		<path id="XMLID_188_" class="st0" d="M608.4,262.8c-0.7-1-0.8-2.5-0.4-4.5c0.4-2,1.1-4.1,2.2-6.3c1-2.1,1.7-4,2-5.5l1.2-3.4
			c4.1-9.1,7.7-19.2,11-30c0.2-0.8,1.1-1.1,2.9-0.9c1.8,0.3,2.8,0.4,3.2,0.5c0.5,0.1,1.5,0.4,2.8,0.8c1.4,0.5,2.2,1.1,2.3,2
			c-0.5,1.8-1.8,5.4-3.8,10.8c-2,5.4-4.4,10.9-7.1,16.5c-2.7,5.7-5.4,10.6-8.2,14.9c-2.8,4.3-5.2,6.2-7.2,5.8L608.4,262.8z"/>
		<path id="XMLID_185_" class="st0" d="M598.3,476.7c-0.2-0.9-0.5-1.5-1-2.1v0.3c-2.4-3.1-4.2-6.5-5.5-10.4
			c-1.3-3.9-2.2-7.9-2.8-12.1c-0.6-4.2-0.9-8.4-1-12.6c-0.1-4.2-0.1-8-0.1-11.4c0-7.9,0.3-16,0.8-24.3c0.5-8.3,1.1-16.3,1.8-24
			l0.8-8.7c0.7-7.2,1.2-14.6,1.7-22.3c0.4-7.7,0.6-15.2,0.6-22.3c0-3.6-0.2-7.5-0.5-11.7c-0.3-4.2-1.1-8.1-2.2-11.8
			c-1.1-3.7-2.7-6.7-4.8-9.1c-2.1-2.4-4.8-3.6-8.2-3.6c-0.5,0-1.4,0.2-2.7,0.5c-1.3,0.3-2.3,0.8-3,1.3l0.3-0.5
			c-3.4,1.5-6.6,4.2-9.5,8c-2.9,3.8-5.6,8-8.1,12.6c-2.5,4.6-4.7,9.4-6.7,14.4c-2,5-3.7,9.3-5.3,13.1c-4.3,10.8-8.2,22-11.7,33.6
			c-3.5,11.6-6.8,23.4-9.9,35.2c-0.3,0-0.6-0.1-0.6-0.3c-0.1-0.2-0.2-0.3-0.4-0.3c1.2-32.9,2.5-66.2,4-99.9
			c0.9-20.7,2.1-41.4,3.5-61.9c3-5.5,6-11.5,9-17.9c5.5-11.7,10.8-24.2,16-37.5c5.1-13.3,10-27,14.6-41.2
			c4.6-14.2,8.6-28.1,12.2-41.8c3.6-13.7,6.5-26.9,8.9-39.5c2.3-12.7,3.8-24.1,4.3-34.3v-8.8c-0.6-7.2-2.2-13.1-4.9-17.9
			c-2.7-4.7-6.7-7.2-11.9-7.5c0,0-0.1,0-0.1,0c-0.1,0-0.2,0-0.3,0c-5.5,0-10.4,2.3-14.6,6.8c-4.3,4.5-8.1,10-11.3,16.4
			c-3.3,6.4-6,13.3-8.1,20.5c-2.1,7.3-3.8,13.6-5,18.9c-2.4,10.8-4.6,22.1-6.6,33.9c-2,11.8-3.8,23.8-5.4,36
			c-1.6,12.2-3.1,24.4-4.4,36.6c-1.3,12.2-2.4,24.2-3.5,35.8c-1.4,19.4-2.6,39.9-3.7,61.6c-1.1,21.7-2.1,43.8-3.1,66.1
			c-0.9,22.3-1.7,44.5-2.3,66.4c-0.6,21.9-1.2,42.6-1.7,62.2c0,1.4,0.6,3.2,1.7,5.4c1.1,2.2,3,3.3,5.5,3.3c1.9,0,3.2-0.3,4-1
			c0.8-0.7,1.4-2,1.9-3.9c4.5-15.1,8.7-30.2,12.7-45.3c4-15.2,8.5-30.5,13.5-46.1c0.7-2.2,1.7-5.5,3-9.8c1.3-4.3,2.8-8.9,4.6-14
			c1.8-5,3.7-10.3,5.8-15.7c2.1-5.4,4.2-10.3,6.4-14.6c2.2-4.4,4.5-8,6.9-10.9c2.4-2.9,4.8-4.5,7.2-4.6c1.4,2.1,2.3,4.6,2.7,7.6
			c0.4,3,0.7,5.4,0.9,7.3c0.3,2.4,0.5,4.8,0.5,7.2c0,2.4,0,4.8,0,7.2c0,6-0.1,11.9-0.4,17.9c-0.3,5.9-0.6,11.7-0.9,17.3l-0.5,10.3
			c0,6.2-0.3,12.3-0.8,18.5s-0.8,12.3-0.8,18.5c0,4.6,0.1,10,0.3,16.1c0.2,6.1,0.8,12.1,1.8,18c1,5.9,2.6,11.3,4.6,16.3
			c2.1,5,4.9,8.8,8.5,11.6h-0.3c0.3,0.3,0.9,0.6,1.7,0.8c0.8,0.2,1.5,0.3,2.2,0.3C598.5,478.3,598.4,477.6,598.3,476.7z M581.7,17.4
			c0.6,1.7,1,3.5,1.1,5.4c0.2,1.9,0.3,3.7,0.3,5.5v5.4c-0.9,12.5-2.7,25.6-5.4,39.2c-2.7,13.6-5.8,27.3-9.4,41
			c-3.6,13.7-7.5,27.1-11.9,40.3c-4.3,13.2-8.6,25.5-12.8,37c-4.2,11.5-8.2,21.9-12,31c-1,2.3-1.9,4.5-2.8,6.6
			c0.6-7.1,1.1-14.2,1.7-21.3c0.7-8.7,1.6-18.6,2.7-29.7c1.1-11,2.5-22.6,4.1-34.8c1.6-12.2,3.6-24.5,5.8-37
			c2.2-12.5,4.8-24.5,7.6-36.1c2.8-11.6,6-22.3,9.5-32.2c2.1-6,4.4-11.5,6.8-16.4c0.7-1.2,1.3-2.4,2.1-3.5c1.1-1.7,2.2-3.1,3.3-4.4
			c1.1-1.3,2.1-1.9,3-1.9c1.5,0.1,2.7,0.7,3.7,1.8C580.3,14.4,581.1,15.8,581.7,17.4z"/>
		<g id="XMLID_180_">
			<path id="XMLID_184_" class="st0" d="M598.4,593.4c3-11.6,6.6-23.2,10.9-34.7C605,570.2,601.4,581.8,598.4,593.4z"/>
			<path id="XMLID_181_" class="st0" d="M696.9,270.6c-0.8-2.1-1.6-4-2.6-5.8c-1-1.8-2-3.6-3.2-5.2c-2.3-3.3-5-5.9-8.1-7.8
				c-3.1-2-6.6-3-10.5-3.2c-7,0-13.2,1.5-18.4,4.6c-0.7,0.4-1.5,0.9-2.2,1.4c-2.8,2-5.4,4.3-7.7,7c-1.2,1.3-2.2,2.7-3.3,4.2
				c-1,1.5-2,3-2.9,4.6c-3.6,6.5-6.3,13.9-8.1,22.2c-0.4,2.1-0.9,4.2-1.2,6.3c-1.1,6.3-1.7,12.6-2,19c0,8.1,0.4,16.2,1.2,24.4
				c0.3,2.7,0.6,5.5,0.9,8.2c1.4,11,3.1,21.9,5.1,32.8c1,5.4,2.1,10.8,3.3,16.2s2.4,10.6,3.8,15.8c2.7,10.4,5.3,20.5,7.8,30.1l2,7.5
				l3.6,13.6v0c5.1,19.9,9.6,40.4,13.2,61.6c3.7,21.2,5.5,43.6,5.5,67c0,8.7-1,18.2-3,28.5c-2,10.3-5,19.9-9.1,28.8
				c-1.5,3.3-3.2,6.5-5.1,9.4c-3.1,4.9-6.6,9.2-10.6,12.9c-5.5,5.2-12.1,8.2-19.6,8.9c-1.1,0.1-2.2,0.1-3.3,0.1
				c-2.6-0.1-5-0.5-7.2-1.3c-2.2-0.7-4.2-1.8-6.1-3.2c-3.7-2.8-6.7-6.4-9.1-10.8c-0.6-1.1-1.2-2.2-1.7-3.4
				c-1.6-3.5-2.9-7.3-3.8-11.4c-0.6-2.7-1.2-5.5-1.6-8.3c-0.4-2.8-0.7-5.6-0.9-8.4c0-5.1,0.3-10.3,0.9-15.6
				c0.9-8.9,2.7-18.2,5.2-27.9c3.4-13.1,6.7-26.2,11.3-39.1c3.9-10.6,7.7-19.9,11.3-28.1c3.9-9,7.4-16.5,10.4-22.4
				c3.1-5.9,5.4-10,6.9-12.4l-4.9,1.7c-2.8,1.3-6.4,5.5-10.6,12.6c-4.3,7.1-8.8,15.9-13.6,26.2c-1,2.2-2,4.4-3,6.6l0,0
				c-0.2,0.4-0.4,0.9-0.6,1.3c0,0,0,0,0,0c-4.6,10.6-10.1,21.5-13.4,32.3c-3.2,10.3-6.2,20.4-8.3,30.7c0,0.1-0.1,0.2-0.1,0.4
				c2.1-10.4,4.7-20.8,8-31.3c3.5-11.2,7.6-22.3,12.3-33.4h0c-4.7,11-8.8,22.2-12.3,33.4c-3.3,10.5-5.9,20.9-8,31.3
				c0,0.1,0,0.2-0.1,0.2l0,0c-0.1,0.7-0.3,1.3-0.4,2c-0.8,4.2-1.5,8.3-2,12.4c-0.5,4.1-0.9,8.1-1.1,12.1c-0.1,2.7-0.2,5.3-0.2,7.9
				c0.2,2.3,0.4,4.6,0.6,6.8c0.8,6.6,1.9,12.8,3.5,18.5c2.1,7.6,4.9,14.1,8.5,19.5c3.6,5.4,7.9,9.6,13,12.6
				c4.4,2.6,9.4,4.1,14.9,4.4c0.8,0,1.6,0.1,2.4,0.1h0c2.8,0,5.4-0.2,8-0.7c0.9-0.2,1.7-0.3,2.5-0.5c0.8-0.2,1.7-0.4,2.5-0.7
				c2.4-0.8,4.8-1.8,7-3c1.5-0.8,3-1.7,4.4-2.7c2.1-1.4,4.2-3,6.2-4.8c1-0.9,1.9-1.8,2.9-2.7c0.9-0.9,1.9-1.9,2.8-3
				c4.8-5.5,8.9-11.8,12.3-19c0.9-1.8,1.7-3.6,2.5-5.5c2.4-5.5,4.4-11.3,6.1-17.3c2.3-8,4-16.1,5.1-24.3c0.3-2.1,0.5-4.1,0.7-6.1
				c0.6-6,0.9-11.9,0.9-17.5c0-6.8-0.2-13.4-0.5-19.9c-0.3-6.5-0.8-12.9-1.4-19.1c-0.3-3.1-0.7-6.2-1-9.3c-1.1-9.2-2.4-18.2-4-26.9
				c-0.5-2.9-1-5.8-1.6-8.7c-1.1-5.7-2.2-11.4-3.5-16.9c-0.6-2.8-1.2-5.5-1.9-8.2c-1.3-5.4-2.6-10.8-3.9-16.2
				c-1.3-5.3-2.7-10.6-4-15.8l-3.6-13.4c-2.9-10.3-5.6-20.3-8.1-30.1c-2.5-9.8-4.7-19.5-6.6-29.3c-1.9-9.8-3.4-19.6-4.5-29.4
				c-1.1-9.8-1.7-20-1.7-30.4c0-5.5,0.6-11.3,1.7-17.3c1.1-6.1,2.9-11.7,5.4-16.8c1.2-2.6,2.6-4.9,4.2-7c1.6-2.1,3.3-4,5.2-5.7
				c3.3-2.9,7.1-4.6,11.5-4.9c0.6-0.1,1.3-0.1,1.9-0.1c1.7,0,3.3,0.3,4.7,0.8c1,0.3,1.9,0.8,2.9,1.3c1.4,0.8,2.6,1.9,3.8,3.3
				c1.8,2,3.4,4.4,4.7,7.2c0.5,0.9,0.9,1.9,1.3,2.9c0.6,1.3,1.1,2.8,1.5,4.3l3.3,11.3c0.1,0.4,0.1,0.8,0.2,1.1
				c0,0.3,0.1,0.6,0.1,0.8c0,0.2,0,0.5,0.1,0.7c0,0.3,0.1,0.5,0.2,0.8c0.1,0.3,0.2,0.7,0.3,1.1c0.1,0.4,0.3,0.9,0.4,1.4
				c0.3,1,1,2.4,2.1,4.1c0.4-0.3,0.7-0.7,1-1.2c0.3-0.5,0.6-1,0.8-1.6c0.2-0.4,0.3-0.8,0.4-1.3c0.5-1.8,0.9-3.8,1.2-5.9
				c0.3-2.1,0.4-4.3,0.4-6.6c0-2.2,0-4.1,0-5.7v-1.8C699.5,279.1,698.5,274.7,696.9,270.6z M583.6,603.3L583.6,603.3
				c-0.1,0.7-0.3,1.3-0.4,2C583.3,604.7,583.5,604,583.6,603.3z"/>
		</g>
		<path id="XMLID_179_" class="st0" d="M690.9,136.1c-2.3-0.6-5.1-1.1-8.4-1.4c-3.3-0.3-7-0.6-11.1-0.6c-4-0.1-8.1-0.1-12.3-0.1
			c-3.7,0-7.4,0-11,0.1c-3.6,0.1-6.9,0.2-9.9,0.4c-3,0.2-5.6,0.3-7.7,0.4c-2.2,0.1-3.7,0.1-4.5,0.1c-12.4,0.5-25.5,1-39.3,1.5
			c-13.8,0.5-27.7,1.3-41.7,2.3l-8.9,0.5c-16.3,1.2-32.3,2.6-48.1,4.4c-15.8,1.8-30.6,4.1-44.6,6.9c-1.9,0.3-3.8,1.4-5.7,3.2
			c-1.9,1.8-2.8,4.2-2.8,7.1c0.5,1.7,1.5,3,2.8,3.7c1.3,0.8,2.7,1.2,4.2,1.2c0.3,0,0.7,0,1.2,0c0.5,0,0.9-0.1,1.4-0.3
			c13.8-2.9,28.5-5.4,44.1-7.5c15.6-2.1,30.9-3.8,46.1-5.1l8.9-0.5l81.9-5.3c1.6,0,4.3-0.1,8-0.3c3.8-0.2,8.1-0.4,13-0.8
			c4.9-0.3,10-0.8,15.3-1.3c5.3-0.5,10.3-1.1,14.9-1.8c4.6-0.7,8.6-1.4,12-2.1c3.3-0.8,5.5-1.6,6.5-2.6
			C694.7,137.5,693.2,136.7,690.9,136.1z"/>
	</g>
</g>
</svg>
