<?xml version="1.0" encoding="utf-8"?>
<!-- Generator: Adobe Illustrator 19.0.0, SVG Export Plug-In . SVG Version: 6.00 Build 0)  -->
<svg version="1.1" id="Layer_1" xmlns="http://www.w3.org/2000/svg" xmlns:xlink="http://www.w3.org/1999/xlink" x="0px" y="0px"
	 viewBox="-270 382 30 30" style="enable-background:new -270 382 30 30;" xml:space="preserve">
<style type="text/css">
	.st0{fill:#E2E2E2;}
</style>
<path class="st0" d="M-252,397l11.1-11.1c1.1-1,1.2-2.6,0.4-3.4s-2.4-0.6-3.4,0.4L-255,394l-11.1-11.1c-1-1.1-2.6-1.2-3.4-0.4
	s-0.6,2.4,0.4,3.4L-258,397l-11.1,11.1c-1.1,1.1-1.2,2.6-0.4,3.4c0.8,0.8,2.4,0.7,3.4-0.4L-255,400l11.1,11.1
	c1.1,1.1,2.6,1.2,3.4,0.4c0.8-0.8,0.7-2.4-0.4-3.4L-252,397z"/>
</svg>
