<?xml version="1.0" encoding="utf-8"?>
<!-- Generator: Adobe Illustrator 19.0.0, SVG Export Plug-In . SVG Version: 6.00 Build 0)  -->
<svg version="1.1" id="Layer_1" xmlns="http://www.w3.org/2000/svg" xmlns:xlink="http://www.w3.org/1999/xlink" x="0px" y="0px"
	 viewBox="0 0 500 107" style="enable-background:new 0 0 500 107;" xml:space="preserve">
<style type="text/css">
	.st0{fill:url(#XMLID_56_);}
	.st1{fill:url(#XMLID_57_);}
	.st2{fill:url(#XMLID_58_);}
	.st3{fill:url(#XMLID_59_);}
	.st4{fill:url(#XMLID_60_);}
	.st5{fill:#EEEEEE;}
</style>
<g>
	<g>
		<linearGradient id="XMLID_56_" gradientUnits="userSpaceOnUse" x1="91.6635" y1="1.635831e-002" x2="91.6635" y2="106.9836">
			<stop  offset="0" style="stop-color:#52B4D0"/>
			<stop  offset="0.3005" style="stop-color:#398DA3"/>
			<stop  offset="0.6065" style="stop-color:#246B7B"/>
			<stop  offset="0.8504" style="stop-color:#175763"/>
			<stop  offset="1" style="stop-color:#124F5A"/>
		</linearGradient>
		<rect id="XMLID_15_" x="82.4" y="0" class="st0" width="18.6" height="107"/>
		<linearGradient id="XMLID_57_" gradientUnits="userSpaceOnUse" x1="168.8055" y1="32.5711" x2="15.6201" y2="96.2408">
			<stop  offset="0" style="stop-color:#308EA4"/>
			<stop  offset="0.3371" style="stop-color:#2F8CA1"/>
			<stop  offset="0.5399" style="stop-color:#2C8599"/>
			<stop  offset="0.7071" style="stop-color:#26798B"/>
			<stop  offset="0.854" style="stop-color:#1E6777"/>
			<stop  offset="0.9879" style="stop-color:#13515D"/>
			<stop  offset="1" style="stop-color:#124F5A"/>
		</linearGradient>
		<polygon id="XMLID_14_" class="st1" points="14.2,107 24.1,82.5 166,23.7 173.1,40.8 		"/>
		<linearGradient id="XMLID_58_" gradientUnits="userSpaceOnUse" x1="145.3439" y1="1.635831e-002" x2="145.3439" y2="106.9836">
			<stop  offset="0" style="stop-color:#62C5E4"/>
			<stop  offset="0.2035" style="stop-color:#5EC1E0"/>
			<stop  offset="0.4144" style="stop-color:#52B6D3"/>
			<stop  offset="0.6286" style="stop-color:#3FA3BF"/>
			<stop  offset="0.8439" style="stop-color:#2389A2"/>
			<stop  offset="1" style="stop-color:#0B7188"/>
		</linearGradient>
		<rect id="XMLID_13_" x="136" y="0" class="st2" width="18.6" height="107"/>
		<linearGradient id="XMLID_59_" gradientUnits="userSpaceOnUse" x1="6.8799" y1="98.2128" x2="44.9184" y2="8.6383">
			<stop  offset="0" style="stop-color:#A3CA80"/>
			<stop  offset="0.1921" style="stop-color:#9BC178"/>
			<stop  offset="0.5054" style="stop-color:#85A962"/>
			<stop  offset="0.8987" style="stop-color:#62813F"/>
			<stop  offset="1" style="stop-color:#587635"/>
		</linearGradient>
		<polygon id="XMLID_12_" class="st3" points="47.5,24.8 37.5,0 0,92.5 14.2,107 		"/>
		<linearGradient id="XMLID_60_" gradientUnits="userSpaceOnUse" x1="47.6298" y1="0.6606" x2="90.4167" y2="105.324">
			<stop  offset="0" style="stop-color:#62C5E4"/>
			<stop  offset="0.2035" style="stop-color:#5EC1E0"/>
			<stop  offset="0.4144" style="stop-color:#52B6D3"/>
			<stop  offset="0.6286" style="stop-color:#3FA3BF"/>
			<stop  offset="0.8439" style="stop-color:#2389A2"/>
			<stop  offset="1" style="stop-color:#0B7188"/>
		</linearGradient>
		<polygon id="XMLID_11_" class="st4" points="37.5,0 57.6,0 101,107 80.9,107 		"/>
	</g>
	<g>
		<path class="st5" d="M212.9,0h12l18,107h-8.6l-4.8-28.3h-21.3l-4.8,28.3h-8.6L212.9,0z M228.2,70.4l-9.2-54.7l-9.3,54.7H228.2z"/>
		<path class="st5" d="M251.3,95.6V65c0-8.9,0.9-11.5,12.6-11.4h11.3l6.1,5.2V0h8v107h-8v-5.2l-6.1,5.2h-11.3
			C255,107,251.3,104.5,251.3,95.6z M281.3,98.7V61.9h-19.5c-1.5,0-2.4,0.9-2.4,2.4v31.8c0,1.5,0.9,2.4,2.4,2.4H281.3z"/>
		<path class="st5" d="M304.7,0h8.6v53.6h24.1V0h8.6v107h-8.6v-45h-24.1v45h-8.6V0z"/>
		<path class="st5" d="M359.2,95.6v-3.4c0-7.9,2.5-12.1,10.1-14.4l19.9-4.6v-8.8c0-1.5-0.9-2.4-2.4-2.4h-15.5
			c-1.5,0-2.4,0.9-2.4,2.4v6h-8V65c0-8.9,3.7-11.4,12.6-11.4H387c8.9,0,10.2,2.5,10.2,11.4l0,42h-8l0-5.2l-6.1,5.2h-11.3
			C362.7,107,359.2,104.5,359.2,95.6z M389.2,98.7V82.3l-20,5c-1.4,0.5-2,1.4-2,2.8v6.2c0,1.5,0.9,2.4,2.4,2.4H389.2z"/>
		<path class="st5" d="M410.6,95.6v-5.4h8v6c0,1.5,0.9,2.4,2.4,2.4h17.1c1.5,0,2.4-0.9,2.4-2.4v-5.9c0-1.2-0.2-2.6-1.4-2.9
			c-4.7-1.2-18.1-4.6-24.5-6.1c-3.2-0.8-4.2-5.1-4.2-9.8V65c0-8.9,3.7-11.4,12.6-11.4h12.4c8.9,0,12.6,2.5,12.6,11.4v5.4h-8v-6
			c0-1.5-0.9-2.4-2.4-2.4h-16.6c-1.5,0-2.4,0.9-2.4,2.4v6.7c0,1.2,0.6,2,1.5,2.8c0,0,17.4,4.5,23,6c2.5,0.8,5.5,5.2,5.5,10v5.9
			c0,8.9-1.3,11.4-10.2,11.4h-17.7C411.9,107,410.6,104.5,410.6,95.6z M420.1,73.8c0,0,17.4,4.5,23,6c3.1,1,5.5,5.2,5.5,10"/>
		<path class="st5" d="M462,0h8v58.9l6.1-5.2h13.7c8.9,0,10.2,2.6,10.2,11.4V107h-8V64.5c0-1.5-0.9-2.5-2.4-2.5H470v45h-8V0z"/>
	</g>
</g>
</svg>
