<?xml version="1.0" encoding="utf-8"?>
<!-- Generator: Adobe Illustrator 19.0.0, SVG Export Plug-In . SVG Version: 6.00 Build 0)  -->
<svg version="1.1" id="Layer_1" xmlns="http://www.w3.org/2000/svg" xmlns:xlink="http://www.w3.org/1999/xlink" x="0px" y="0px"
	 viewBox="0 0 600 183" style="enable-background:new 0 0 600 183;" xml:space="preserve">
<style type="text/css">
	.st0{fill:#FFFFFF;}
	.st1{filter:url(#Adobe_OpacityMaskFilter);}
	.st2{mask:url(#XMLID_12_);}
	.st3{fill:url(#XMLID_15_);}
	.st4{fill:url(#XMLID_19_);}
	.st5{fill:url(#XMLID_20_);}
	.st6{fill:url(#XMLID_23_);}
	.st7{fill:url(#XMLID_24_);}
</style>
<g id="XMLID_292_">
	<g id="XMLID_291_">
		<g id="XMLID_345_">
			<g id="XMLID_136_">
				<path id="XMLID_152_" class="st0" d="M338.7,163.7c-1.6,0.3-3.1,0.5-4.4,0.5c-1.3,0-2.3-0.2-3.1-0.5c-0.8-0.4-1.4-0.9-1.8-1.7
					c-0.4-0.7-0.7-1.6-0.9-2.6c-0.2-1-0.2-2.2-0.2-3.6c0-1.5,0.1-2.7,0.2-3.7c0.2-1,0.5-1.9,0.9-2.6c0.4-0.8,1-1.3,1.8-1.7
					s1.8-0.5,3.1-0.5s2.7,0.2,4.4,0.5l-0.1,1.5c-1.6-0.3-3-0.4-4.3-0.4c-1.7,0-2.9,0.5-3.4,1.5c-0.6,1-0.8,2.8-0.8,5.3
					c0,1.2,0.1,2.2,0.2,3c0.1,0.8,0.3,1.4,0.6,2c0.3,0.6,0.7,1,1.3,1.3c0.6,0.3,1.4,0.4,2.5,0.4s2.4-0.1,3.9-0.4L338.7,163.7z"/>
				<path id="XMLID_149_" class="st0" d="M382.1,155.9c0,2.9-0.5,5-1.4,6.3c-0.9,1.3-2.6,2-5.1,2c-2.5,0-4.1-0.7-5.1-2
					c-0.9-1.3-1.4-3.4-1.4-6.3c0-2.9,0.5-5,1.4-6.4c0.9-1.4,2.6-2.1,5-2.1c2.4,0,4.1,0.7,5.1,2.1C381.6,150.8,382.1,153,382.1,155.9
					z M371,155.8c0,2.4,0.3,4.1,0.9,5.2c0.6,1,1.8,1.6,3.7,1.6c1.8,0,3-0.5,3.6-1.5c0.6-1,0.9-2.7,0.9-5.2c0-2.4-0.3-4.2-1-5.3
					c-0.6-1.1-1.9-1.7-3.6-1.7c-1.8,0-3,0.5-3.6,1.6C371.3,151.7,371,153.4,371,155.8z"/>
				<path id="XMLID_147_" class="st0" d="M418.3,148.9c-2.4,0-3.5,0.9-3.5,2.7c0,1,0.3,1.7,0.8,2c0.5,0.4,1.6,0.7,3.3,1.1
					c1.7,0.4,2.8,0.9,3.5,1.4c0.7,0.6,1,1.6,1,2.9c0,3.4-1.7,5-5.2,5c-1.2,0-2.6-0.1-4.3-0.4l-0.9-0.1l0.2-1.5
					c2.1,0.3,3.8,0.4,4.9,0.4c2.3,0,3.5-1.1,3.5-3.3c0-0.9-0.3-1.5-0.8-1.9c-0.5-0.4-1.5-0.7-2.9-1c-1.8-0.4-3.2-0.9-3.9-1.5
					c-0.8-0.6-1.2-1.7-1.2-3.1c0-2.9,1.8-4.4,5.3-4.4c1.2,0,2.5,0.1,4.1,0.4l0.8,0.1l-0.2,1.5C420.8,149.1,419.2,148.9,418.3,148.9z
					"/>
				<path id="XMLID_144_" class="st0" d="M461,158.4h-4.2v5.5H455v-16.4h6c1.8,0,3.1,0.4,4,1.3c0.9,0.9,1.3,2.2,1.3,4
					C466.2,156.6,464.5,158.4,461,158.4z M456.8,156.8h4.1c2.3,0,3.4-1.3,3.4-4c0-1.3-0.3-2.2-0.8-2.8c-0.5-0.6-1.4-0.9-2.6-0.9
					h-4.1V156.8z"/>
				<path id="XMLID_142_" class="st0" d="M506.4,164h-9v-16.4h1.8v14.7h7.2V164z"/>
				<path id="XMLID_139_" class="st0" d="M535.7,164l4.5-16.4h4l4.5,16.4h-1.8l-1.2-4.2h-7l-1.2,4.2H535.7z M541.5,149.1l-2.5,9h6.2
					l-2.5-9H541.5z"/>
				<path id="XMLID_137_" class="st0" d="M583.7,164h-1.8v-6.9l-5.2-9.5h2.1l4.1,7.7l4.1-7.7h2.1l-5.2,9.5V164z"/>
			</g>
			<g id="XMLID_108_">
				<path id="XMLID_134_" class="st0" d="M371.9,59.1v71.6h-18.6v-30.1h-5.6v30.1h-18.6V59.1h18.6v25.6h5.6V59.1H371.9z"/>
				<path id="XMLID_131_" class="st0" d="M421.9,101.1c0,7.2-0.2,12.3-0.5,15.3c-0.3,3-1.4,5.7-3.2,8.2c-1.8,2.5-4.2,4.4-7.2,5.7
					c-3,1.3-6.6,2-10.6,2c-3.8,0-7.3-0.6-10.3-1.9c-3.1-1.3-5.5-3.1-7.4-5.6c-1.9-2.5-3-5.2-3.3-8.2c-0.4-2.9-0.5-8.1-0.5-15.5V88.8
					c0-7.2,0.2-12.3,0.5-15.3c0.3-3,1.4-5.7,3.2-8.2c1.8-2.5,4.2-4.4,7.2-5.7c3-1.3,6.6-2,10.6-2c3.8,0,7.3,0.6,10.3,1.9
					c3.1,1.3,5.5,3.1,7.4,5.6c1.9,2.5,3,5.2,3.3,8.2c0.4,2.9,0.5,8.1,0.5,15.5V101.1z M403.3,77.5c0-3.3-0.2-5.5-0.6-6.4
					c-0.4-0.9-1.1-1.4-2.3-1.4c-1,0-1.7,0.4-2.2,1.1c-0.5,0.8-0.8,3-0.8,6.7V111c0,4.2,0.2,6.7,0.5,7.7c0.3,1,1.1,1.5,2.4,1.5
					c1.3,0,2.1-0.6,2.4-1.7c0.4-1.1,0.5-3.8,0.5-8V77.5z"/>
				<path id="XMLID_129_" class="st0" d="M470.5,59.1v71.6h-16.3l-9.7-32.6v32.6h-15.6V59.1h15.6l10.4,32.3V59.1H470.5z"/>
				<path id="XMLID_127_" class="st0" d="M478,59.1H509v14.3h-12.4V87h11.6v13.6h-11.6v15.8h13.7v14.3H478V59.1z"/>
				<path id="XMLID_125_" class="st0" d="M555.1,80.8h-17.3v-5.3c0-2.5-0.2-4.1-0.7-4.7c-0.4-0.7-1.2-1-2.2-1c-1.1,0-2,0.5-2.5,1.4
					c-0.6,0.9-0.9,2.3-0.9,4.2c0,2.4,0.3,4.2,1,5.4c0.6,1.2,2.4,2.7,5.3,4.4c8.3,4.9,13.5,9,15.7,12.1c2.2,3.2,3.2,8.2,3.2,15.3
					c0,5.1-0.6,8.9-1.8,11.3c-1.2,2.4-3.5,4.4-6.9,6.1c-3.4,1.6-7.4,2.5-11.9,2.5c-5,0-9.2-0.9-12.8-2.8c-3.5-1.9-5.8-4.3-6.9-7.2
					c-1.1-2.9-1.6-7.1-1.6-12.4v-4.7h17.3v8.7c0,2.7,0.2,4.4,0.7,5.2c0.5,0.8,1.3,1.2,2.6,1.2c1.2,0,2.2-0.5,2.8-1.5
					c0.6-1,0.9-2.4,0.9-4.3c0-4.2-0.6-7-1.7-8.3c-1.2-1.3-4.1-3.5-8.7-6.5c-4.6-3.1-7.7-5.3-9.2-6.7c-1.5-1.4-2.8-3.3-3.7-5.8
					c-1-2.4-1.5-5.6-1.5-9.4c0-5.5,0.7-9.5,2.1-12c1.4-2.5,3.7-4.5,6.8-6c3.1-1.4,6.9-2.1,11.3-2.1c4.8,0,9,0.8,12.4,2.3
					c3.4,1.6,5.7,3.5,6.8,5.9c1.1,2.4,1.7,6.4,1.7,12.1V80.8z"/>
				<path id="XMLID_109_" class="st0" d="M600,59.1v14.3h-11.1v57.3h-18.6V73.5h-11V59.1H600z"/>
			</g>
		</g>
		<path id="wing_1_" class="st0" d="M199.7,0.4C123.7,2.4,51.6,55.6,0,4.6c0,0,24.9,64.2,152.5,22.6c46-15,76.6-16.3,96.9-11.6
			C223.1,16.4,188.7,24.8,146,48C66.4,91.4,29.5,57,29.5,57C66,92.9,132.2,95.1,189.9,88.1c-8.7,8.9-27.4,21.8-63.8,24
			c0,0,59.5,5,108.1-31.1c-11.8,21.7-37.2,58.9-68.4,48.6c0,0,31.1,25.3,80.9-12.6c-6.5,51-59,63.2-59,63.2
			c74.8,14.8,117.8-38.8,117.6-104.8c-0.1-42.2,16.7-36.2,23-32C328.4,43.4,290.9-1.9,199.7,0.4z"/>
	</g>
	<defs>
		<filter id="Adobe_OpacityMaskFilter" filterUnits="userSpaceOnUse" x="-3" y="-0.7" width="334.6" height="188.4">
			<feColorMatrix  type="matrix" values="1 0 0 0 0  0 1 0 0 0  0 0 1 0 0  0 0 0 1 0"/>
		</filter>
	</defs>
	<mask maskUnits="userSpaceOnUse" x="-3" y="-0.7" width="334.6" height="188.4" id="XMLID_12_">
		<g id="XMLID_16_" class="st1">
			<path id="wing_3_" class="st0" d="M199.7,0.4C123.7,2.4,51.6,55.6,0,4.6c0,0,24.9,64.2,152.5,22.6c46-15,76.6-16.3,96.9-11.6
				C223.1,16.4,188.7,24.8,146,48C66.4,91.4,29.5,57,29.5,57C66,92.9,132.2,95.1,189.9,88.1c-8.7,8.9-27.4,21.8-63.8,24
				c0,0,59.5,5,108.1-31.1c-11.8,21.7-37.2,58.9-68.4,48.6c0,0,31.1,25.3,80.9-12.6c-6.5,51-59,63.2-59,63.2
				c74.8,14.8,117.8-38.8,117.6-104.8c-0.1-42.2,16.7-36.2,23-32C328.4,43.4,290.9-1.9,199.7,0.4z"/>
		</g>
	</mask>
	<g id="XMLID_39_" class="st2">
		<g style="opacity:0.3;">
			
				<image style="overflow:visible;" width="1394" height="785" id="XMLID_210_" xlink:href="AE5DD74C.png"  transform="matrix(0.24 0 0 0.24 -3 -0.6733)">
			</image>
		</g>
		<g id="XMLID_159_">
			<g id="XMLID_188_">
				<g id="XMLID_197_">
					<linearGradient id="XMLID_15_" gradientUnits="userSpaceOnUse" x1="0" y1="21.8874" x2="328.424" y2="21.8874">
						<stop  offset="0" style="stop-color:#F9ED32"/>
						<stop  offset="1" style="stop-color:#F15A29"/>
					</linearGradient>
					<path id="XMLID_198_" class="st3" d="M34.8,34.3c47.9,14.9,107.5-21,169.7-22.6c57.5-1.5,93.7,16,112.5,29.2
						c4.3-1.3,8.8,0.8,11.4,2.6c0,0-37.5-45.4-128.7-43C123.7,2.4,51.6,55.6,0,4.7C0,4.7,7.4,23.7,34.8,34.3z"/>
				</g>
				<g id="XMLID_195_">
					<linearGradient id="XMLID_19_" gradientUnits="userSpaceOnUse" x1="29.503" y1="52.9323" x2="254.0576" y2="52.9323">
						<stop  offset="0" style="stop-color:#F9ED32"/>
						<stop  offset="1" style="stop-color:#F15A29"/>
					</linearGradient>
					<path id="XMLID_196_" class="st4" d="M150.7,59.4c42.7-23.3,77.1-31.6,103.3-32.3c-16.9-3.9-40.8-3.7-74.8,5.1
						c-10.5,4.3-21.5,9.5-33.3,15.9C66.4,91.4,29.5,57,29.5,57c11,10.9,24.8,18.6,40.2,24C88.7,82.5,115.6,78.5,150.7,59.4z"/>
				</g>
				<g id="XMLID_193_">
					<linearGradient id="XMLID_20_" gradientUnits="userSpaceOnUse" x1="187.819" y1="155.5052" x2="251.4894" y2="155.5052">
						<stop  offset="0" style="stop-color:#F9ED32"/>
						<stop  offset="1" style="stop-color:#F15A29"/>
					</linearGradient>
					<path id="XMLID_194_" class="st5" d="M213.8,182.7c15.4-8.8,34-25.2,37.7-54.3c-3.2,2.4-6.3,4.6-9.3,6.5
						c-14.5,36.1-54.4,45.4-54.4,45.4C197,182,205.6,182.8,213.8,182.7z"/>
				</g>
				<g id="XMLID_191_">
					<linearGradient id="XMLID_23_" gradientUnits="userSpaceOnUse" x1="165.9016" y1="115.0925" x2="238.9858" y2="115.0925">
						<stop  offset="0" style="stop-color:#F9ED32"/>
						<stop  offset="1" style="stop-color:#F15A29"/>
					</linearGradient>
					<path id="XMLID_192_" class="st6" d="M199.9,137.6c17.5-9.7,31.3-30.9,39.1-45.2c-6.6,4.9-13.4,9-20.2,12.5
						c-13.4,17-31.8,31.7-52.9,24.7C165.9,129.6,178.3,139.6,199.9,137.6z"/>
				</g>
				<g id="XMLID_189_">
					<linearGradient id="XMLID_24_" gradientUnits="userSpaceOnUse" x1="126.1684" y1="105.86" x2="194.6571" y2="105.86">
						<stop  offset="0" style="stop-color:#F9ED32"/>
						<stop  offset="1" style="stop-color:#F15A29"/>
					</linearGradient>
					<path id="XMLID_190_" class="st7" d="M190.4,103.3c1.6-1.4,3.1-2.7,4.3-3.9c-8,1-16.1,1.8-24.3,2.3c-10.5,5-24.8,9.2-44.1,10.4
						C126.2,112.1,155.8,114.6,190.4,103.3z"/>
				</g>
			</g>
		</g>
	</g>
</g>
</svg>
