<?xml version="1.0" encoding="utf-8"?>
<!-- Generator: Adobe Illustrator 19.0.0, SVG Export Plug-In . SVG Version: 6.00 Build 0)  -->
<svg version="1.1" id="Layer_1" xmlns="http://www.w3.org/2000/svg" xmlns:xlink="http://www.w3.org/1999/xlink" x="0px" y="0px"
	 viewBox="272 -45 600 185.7" style="enable-background:new 272 -45 600 185.7;" xml:space="preserve">
<style type="text/css">
	.st0{fill:#FFFFFF;}
	.st1{fill:#494949;}
	.st2{fill:url(#XMLID_15_);}
	.st3{fill:url(#XMLID_17_);}
	.st4{fill:url(#XMLID_18_);}
	.st5{fill:url(#XMLID_19_);}
	.st6{fill:url(#XMLID_20_);}
</style>
<g id="XMLID_16_">
	<path id="wing_3_" class="st0" d="M471.7-44.6c-76,2-148.1,55.2-199.7,4.2c0,0,24.9,64.2,152.5,22.6c46-15,76.6-16.3,96.9-11.6
		C495.1-28.6,460.7-20.2,418,3c-79.6,43.4-116.5,9-116.5,9C338,47.9,404.2,50.1,461.9,43.1c-8.7,8.9-27.4,21.8-63.8,24
		c0,0,59.5,5,108.1-31.1c-11.8,21.7-37.2,58.9-68.4,48.6c0,0,31.1,25.3,80.9-12.6c-6.5,51-59,63.2-59,63.2
		C534.5,150,577.5,96.4,577.3,30.4c-0.1-42.2,16.7-36.2,23-32C600.4-1.6,562.9-46.9,471.7-44.6z"/>
</g>
<g id="XMLID_292_">
	<g id="XMLID_291_">
		<g id="XMLID_345_">
			<g id="XMLID_136_">
				<path id="XMLID_152_" class="st0" d="M610.7,118.7c-1.6,0.3-3.1,0.5-4.4,0.5c-1.3,0-2.3-0.2-3.1-0.5c-0.8-0.4-1.4-0.9-1.8-1.7
					c-0.4-0.7-0.7-1.6-0.9-2.6c-0.2-1-0.2-2.2-0.2-3.6c0-1.5,0.1-2.7,0.2-3.7c0.2-1,0.5-1.9,0.9-2.6c0.4-0.8,1-1.3,1.8-1.7
					s1.8-0.5,3.1-0.5c1.3,0,2.7,0.2,4.4,0.5l-0.1,1.5c-1.6-0.3-3-0.4-4.3-0.4c-1.7,0-2.9,0.5-3.4,1.5c-0.6,1-0.8,2.8-0.8,5.3
					c0,1.2,0.1,2.2,0.2,3s0.3,1.4,0.6,2c0.3,0.6,0.7,1,1.3,1.3s1.4,0.4,2.5,0.4c1.1,0,2.4-0.1,3.9-0.4L610.7,118.7z"/>
				<path id="XMLID_149_" class="st0" d="M654.1,110.9c0,2.9-0.5,5-1.4,6.3s-2.6,2-5.1,2s-4.1-0.7-5.1-2c-0.9-1.3-1.4-3.4-1.4-6.3
					c0-2.9,0.5-5,1.4-6.4s2.6-2.1,5-2.1s4.1,0.7,5.1,2.1C653.6,105.8,654.1,108,654.1,110.9z M643,110.8c0,2.4,0.3,4.1,0.9,5.2
					c0.6,1,1.8,1.6,3.7,1.6c1.8,0,3-0.5,3.6-1.5s0.9-2.7,0.9-5.2c0-2.4-0.3-4.2-1-5.3c-0.6-1.1-1.9-1.7-3.6-1.7
					c-1.8,0-3,0.5-3.6,1.6C643.3,106.7,643,108.4,643,110.8z"/>
				<path id="XMLID_147_" class="st0" d="M690.3,103.9c-2.4,0-3.5,0.9-3.5,2.7c0,1,0.3,1.7,0.8,2c0.5,0.4,1.6,0.7,3.3,1.1
					c1.7,0.4,2.8,0.9,3.5,1.4c0.7,0.6,1,1.6,1,2.9c0,3.4-1.7,5-5.2,5c-1.2,0-2.6-0.1-4.3-0.4l-0.9-0.1l0.2-1.5
					c2.1,0.3,3.8,0.4,4.9,0.4c2.3,0,3.5-1.1,3.5-3.3c0-0.9-0.3-1.5-0.8-1.9s-1.5-0.7-2.9-1c-1.8-0.4-3.2-0.9-3.9-1.5
					c-0.8-0.6-1.2-1.7-1.2-3.1c0-2.9,1.8-4.4,5.3-4.4c1.2,0,2.5,0.1,4.1,0.4l0.8,0.1l-0.2,1.5C692.8,104.1,691.2,103.9,690.3,103.9z
					"/>
				<path id="XMLID_144_" class="st0" d="M733,113.4h-4.2v5.5H727v-16.4h6c1.8,0,3.1,0.4,4,1.3c0.9,0.9,1.3,2.2,1.3,4
					C738.2,111.6,736.5,113.4,733,113.4z M728.8,111.8h4.1c2.3,0,3.4-1.3,3.4-4c0-1.3-0.3-2.2-0.8-2.8s-1.4-0.9-2.6-0.9h-4.1V111.8z
					"/>
				<path id="XMLID_142_" class="st0" d="M778.4,119h-9v-16.4h1.8v14.7h7.2V119z"/>
				<path id="XMLID_139_" class="st0" d="M807.7,119l4.5-16.4h4l4.5,16.4h-1.8l-1.2-4.2h-7l-1.2,4.2H807.7z M813.5,104.1l-2.5,9h6.2
					l-2.5-9H813.5z"/>
				<path id="XMLID_137_" class="st0" d="M855.7,119h-1.8v-6.9l-5.2-9.5h2.1l4.1,7.7l4.1-7.7h2.1l-5.2,9.5v6.9H855.7z"/>
			</g>
			<g id="XMLID_108_">
				<path id="XMLID_134_" class="st0" d="M643.9,14.1v71.6h-18.6V55.6h-5.6v30.1h-18.6V14.1h18.6v25.6h5.6V14.1H643.9z"/>
				<path id="XMLID_131_" class="st0" d="M693.9,56.1c0,7.2-0.2,12.3-0.5,15.3c-0.3,3-1.4,5.7-3.2,8.2c-1.8,2.5-4.2,4.4-7.2,5.7
					s-6.6,2-10.6,2c-3.8,0-7.3-0.6-10.3-1.9c-3.1-1.3-5.5-3.1-7.4-5.6c-1.9-2.5-3-5.2-3.3-8.2c-0.4-2.9-0.5-8.1-0.5-15.5V43.8
					c0-7.2,0.2-12.3,0.5-15.3c0.3-3,1.4-5.7,3.2-8.2c1.8-2.5,4.2-4.4,7.2-5.7s6.6-2,10.6-2c3.8,0,7.3,0.6,10.3,1.9
					c3.1,1.3,5.5,3.1,7.4,5.6c1.9,2.5,3,5.2,3.3,8.2c0.4,2.9,0.5,8.1,0.5,15.5V56.1z M675.3,32.5c0-3.3-0.2-5.5-0.6-6.4
					c-0.4-0.9-1.1-1.4-2.3-1.4c-1,0-1.7,0.4-2.2,1.1c-0.5,0.8-0.8,3-0.8,6.7V66c0,4.2,0.2,6.7,0.5,7.7c0.3,1,1.1,1.5,2.4,1.5
					s2.1-0.6,2.4-1.7c0.4-1.1,0.5-3.8,0.5-8v-33H675.3z"/>
				<path id="XMLID_129_" class="st0" d="M742.5,14.1v71.6h-16.3l-9.7-32.6v32.6h-15.6V14.1h15.6l10.4,32.3V14.1H742.5z"/>
				<path id="XMLID_127_" class="st0" d="M750,14.1h31v14.3h-12.4V42h11.6v13.6h-11.6v15.8h13.7v14.3H750V14.1z"/>
				<path id="XMLID_125_" class="st0" d="M827.1,35.8h-17.3v-5.3c0-2.5-0.2-4.1-0.7-4.7c-0.4-0.7-1.2-1-2.2-1c-1.1,0-2,0.5-2.5,1.4
					c-0.6,0.9-0.9,2.3-0.9,4.2c0,2.4,0.3,4.2,1,5.4c0.6,1.2,2.4,2.7,5.3,4.4c8.3,4.9,13.5,9,15.7,12.1c2.2,3.2,3.2,8.2,3.2,15.3
					c0,5.1-0.6,8.9-1.8,11.3s-3.5,4.4-6.9,6.1c-3.4,1.6-7.4,2.5-11.9,2.5c-5,0-9.2-0.9-12.8-2.8c-3.5-1.9-5.8-4.3-6.9-7.2
					c-1.1-2.9-1.6-7.1-1.6-12.4v-4.7h17.3v8.7c0,2.7,0.2,4.4,0.7,5.2c0.5,0.8,1.3,1.2,2.6,1.2c1.2,0,2.2-0.5,2.8-1.5
					s0.9-2.4,0.9-4.3c0-4.2-0.6-7-1.7-8.3c-1.2-1.3-4.1-3.5-8.7-6.5c-4.6-3.1-7.7-5.3-9.2-6.7c-1.5-1.4-2.8-3.3-3.7-5.8
					c-1-2.4-1.5-5.6-1.5-9.4c0-5.5,0.7-9.5,2.1-12c1.4-2.5,3.7-4.5,6.8-6c3.1-1.4,6.9-2.1,11.3-2.1c4.8,0,9,0.8,12.4,2.3
					c3.4,1.6,5.7,3.5,6.8,5.9c1.1,2.4,1.7,6.4,1.7,12.1v2.6H827.1z"/>
				<path id="XMLID_109_" class="st0" d="M872,14.1v14.3h-11.1v57.3h-18.6V28.5h-11V14.1H872z"/>
			</g>
		</g>
		<path id="wing_1_" class="st0" d="M471.7-44.6c-76,2-148.1,55.2-199.7,4.2c0,0,24.9,64.2,152.5,22.6c46-15,76.6-16.3,96.9-11.6
			C495.1-28.6,460.7-20.2,418,3c-79.6,43.4-116.5,9-116.5,9C338,47.9,404.2,50.1,461.9,43.1c-8.7,8.9-27.4,21.8-63.8,24
			c0,0,59.5,5,108.1-31.1c-11.8,21.7-37.2,58.9-68.4,48.6c0,0,31.1,25.3,80.9-12.6c-6.5,51-59,63.2-59,63.2
			C534.5,150,577.5,96.4,577.3,30.4c-0.1-42.2,16.7-36.2,23-32C600.4-1.6,562.9-46.9,471.7-44.6z"/>
	</g>
	<g id="XMLID_39_">
		<g id="XMLID_1_">
			<g id="XMLID_2_">
				<g id="XMLID_11_">
					<path id="XMLID_13_" class="st1" d="M306.8-7.7c47.9,14.9,107.5-21,169.7-22.6c57.5-1.5,93.7,16,112.5,29.2
						c4.3-1.3,8.8,0.8,11.4,2.6c0,0-37.5-45.4-128.7-43c-76,1.9-148.1,55.1-199.7,4.2C272-37.3,279.4-18.3,306.8-7.7z"/>
				</g>
				<g id="XMLID_9_">
					<path id="XMLID_10_" class="st1" d="M422.7,17.4C465.4-5.9,499.8-14.2,526-14.9c-16.9-3.9-40.8-3.7-74.8,5.1
						c-10.5,4.3-21.5,9.5-33.3,15.9C338.4,49.4,301.5,15,301.5,15c11,10.9,24.8,18.6,40.2,24C360.7,40.5,387.6,36.5,422.7,17.4z"/>
				</g>
				<g id="XMLID_7_">
					<path id="XMLID_8_" class="st1" d="M485.8,140.7c15.4-8.8,34-25.2,37.7-54.3c-3.2,2.4-6.3,4.6-9.3,6.5
						c-14.5,36.1-54.4,45.4-54.4,45.4C469,140,477.6,140.8,485.8,140.7z"/>
				</g>
				<g id="XMLID_5_">
					<path id="XMLID_6_" class="st1" d="M471.9,95.6c17.5-9.7,31.3-30.9,39.1-45.2c-6.6,4.9-13.4,9-20.2,12.5
						c-13.4,17-31.8,31.7-52.9,24.7C437.9,87.6,450.3,97.6,471.9,95.6z"/>
				</g>
				<g id="XMLID_3_">
					<path id="XMLID_4_" class="st1" d="M462.4,61.3c1.6-1.4,3.1-2.7,4.3-3.9c-8,1-16.1,1.8-24.3,2.3c-10.5,5-24.8,9.2-44.1,10.4
						C398.2,70.1,427.8,72.6,462.4,61.3z"/>
				</g>
			</g>
		</g>
		<g id="XMLID_159_">
			<g id="XMLID_188_">
				<g id="XMLID_197_">
					
						<linearGradient id="XMLID_15_" gradientUnits="userSpaceOnUse" x1="272" y1="117.046" x2="600.4" y2="117.046" gradientTransform="matrix(1 0 0 -1 0 94)">
						<stop  offset="0" style="stop-color:#F9ED32"/>
						<stop  offset="1" style="stop-color:#F15A29"/>
					</linearGradient>
					<path id="XMLID_198_" class="st2" d="M306.8-10.7c47.9,14.9,107.5-21,169.7-22.6c57.5-1.5,93.7,16,112.5,29.2
						c4.3-1.3,8.8,0.8,11.4,2.6c0,0-37.5-45.4-128.7-43c-76,1.9-148.1,55.1-199.7,4.2C272-40.3,279.4-21.3,306.8-10.7z"/>
				</g>
				<g id="XMLID_195_">
					
						<linearGradient id="XMLID_17_" gradientUnits="userSpaceOnUse" x1="301.5" y1="86.0196" x2="526" y2="86.0196" gradientTransform="matrix(1 0 0 -1 0 94)">
						<stop  offset="0" style="stop-color:#F9ED32"/>
						<stop  offset="1" style="stop-color:#F15A29"/>
					</linearGradient>
					<path id="XMLID_196_" class="st3" d="M422.7,14.4C465.4-8.9,499.8-17.2,526-17.9c-16.9-3.9-40.8-3.7-74.8,5.1
						c-10.5,4.3-21.5,9.5-33.3,15.9C338.4,46.4,301.5,12,301.5,12c11,10.9,24.8,18.6,40.2,24C360.7,37.5,387.6,33.5,422.7,14.4z"/>
				</g>
				<g id="XMLID_193_">
					
						<linearGradient id="XMLID_18_" gradientUnits="userSpaceOnUse" x1="459.8" y1="-16.5542" x2="523.5" y2="-16.5542" gradientTransform="matrix(1 0 0 -1 0 94)">
						<stop  offset="0" style="stop-color:#F9ED32"/>
						<stop  offset="1" style="stop-color:#F15A29"/>
					</linearGradient>
					<path id="XMLID_194_" class="st4" d="M485.8,137.7c15.4-8.8,34-25.2,37.7-54.3c-3.2,2.4-6.3,4.6-9.3,6.5
						c-14.5,36.1-54.4,45.4-54.4,45.4C469,137,477.6,137.8,485.8,137.7z"/>
				</g>
				<g id="XMLID_191_">
					
						<linearGradient id="XMLID_19_" gradientUnits="userSpaceOnUse" x1="437.9" y1="23.8678" x2="511" y2="23.8678" gradientTransform="matrix(1 0 0 -1 0 94)">
						<stop  offset="0" style="stop-color:#F9ED32"/>
						<stop  offset="1" style="stop-color:#F15A29"/>
					</linearGradient>
					<path id="XMLID_192_" class="st5" d="M471.9,92.6c17.5-9.7,31.3-30.9,39.1-45.2c-6.6,4.9-13.4,9-20.2,12.5
						c-13.4,17-31.8,31.7-52.9,24.7C437.9,84.6,450.3,94.6,471.9,92.6z"/>
				</g>
				<g id="XMLID_189_">
					
						<linearGradient id="XMLID_20_" gradientUnits="userSpaceOnUse" x1="398.1684" y1="33.1324" x2="466.6571" y2="33.1324" gradientTransform="matrix(1 0 0 -1 0 94)">
						<stop  offset="0" style="stop-color:#F9ED32"/>
						<stop  offset="1" style="stop-color:#F15A29"/>
					</linearGradient>
					<path id="XMLID_190_" class="st6" d="M462.4,58.3c1.6-1.4,3.1-2.7,4.3-3.9c-8,1-16.1,1.8-24.3,2.3c-10.5,5-24.8,9.2-44.1,10.4
						C398.2,67.1,427.8,69.6,462.4,58.3z"/>
				</g>
			</g>
		</g>
	</g>
</g>
</svg>
