<?xml version="1.0" encoding="utf-8"?>
<!-- Generator: Adobe Illustrator 19.0.0, SVG Export Plug-In . SVG Version: 6.00 Build 0)  -->
<svg version="1.1" id="Layer_1" xmlns="http://www.w3.org/2000/svg" xmlns:xlink="http://www.w3.org/1999/xlink" x="0px" y="0px"
	 viewBox="0 0 270 92" style="enable-background:new 0 0 270 92;" xml:space="preserve">
<style type="text/css">
	.st0{fill:#E6E6E6;}
	.st1{fill:url(#XMLID_33_);}
	.st2{fill:url(#XMLID_34_);}
	.st3{fill:url(#XMLID_35_);}
	.st4{fill:#6E8898;}
</style>
<g id="XMLID_2_">
	<g id="XMLID_125_">
		<path id="XMLID_172_" class="st0" d="M69.3,8.5h5.4v47.7h-5.4V8.5z"/>
		<path id="XMLID_170_" class="st0" d="M269.3,14.1V9.5h-27.5V57h27.5v-4.9h-22.1V35.5h22.1V31h-22.1V14.1H269.3z"/>
		<path id="XMLID_165_" class="st0" d="M82,8.5h7.2l19.1,42v-42h4.9v47.7h-7.3L87,14.1v42.1h-5V8.5z"/>
		<path id="XMLID_134_" class="st0" d="M118.9,44.8l5-1.5c0.7,6.5,5.8,9.5,11.5,9.5c5.7,0,9.7-2.8,9.7-8.5c0-12.3-23-9.1-23-23.6
			c0-7.3,5.8-12.1,12.9-12.1c5.6,0,10.3,2.4,13.2,7.4l-4,2.7c-1.9-3.7-5.5-5.5-9.3-5.5c-4,0-7.7,2.6-7.7,7c0,10.7,23,8.2,23,23.6
			c0,8.4-6.4,13.7-14.9,13.7C127.6,57.6,120.3,53.4,118.9,44.8z"/>
		<path id="XMLID_131_" class="st0" d="M156.8,9.3h13.4c9.3,0,15.3,5,15.3,13.2c0,8.4-6,13-15.3,13h-8V57h-5.3V9.3z M170.2,30.7
			c6.4,0,10-2.7,10-8.2c0-5.3-3.6-8.4-10-8.4h-8v16.6H170.2z"/>
		<linearGradient id="XMLID_33_" gradientUnits="userSpaceOnUse" x1="193.8108" y1="57.0415" x2="193.8108" y2="9.3224">
			<stop  offset="9.914436e-008" style="stop-color:#9260A7"/>
			<stop  offset="0.2" style="stop-color:#8455A2"/>
			<stop  offset="0.6" style="stop-color:#C5528B"/>
			<stop  offset="0.9307" style="stop-color:#F15B27"/>
		</linearGradient>
		<path id="XMLID_129_" class="st1" d="M191.1,9.3h5.4V57h-5.4V9.3z"/>
		<path id="XMLID_126_" class="st0" d="M203.9,9.4h13.6c8.4,0,15,5,15,13.2c0,6.4-4.1,11.1-10.2,12.4l12.9,22.1H229l-11.9-21.4h-7.8
			v21.4h-5.4V9.4z M218.4,30.8c5.1-0.3,8.8-3,8.8-8.1c0-5.4-4-8.5-9.7-8.5h-8.3v16.6H218.4z"/>
	</g>
	<linearGradient id="XMLID_34_" gradientUnits="userSpaceOnUse" x1="69.2729" y1="67.2031" x2="269.2729" y2="67.2031">
		<stop  offset="9.914436e-008" style="stop-color:#9260A7"/>
		<stop  offset="0.2" style="stop-color:#8455A2"/>
		<stop  offset="0.6" style="stop-color:#C5528B"/>
		<stop  offset="0.9307" style="stop-color:#F15B27"/>
	</linearGradient>
	<rect id="XMLID_124_" x="69.3" y="66.2" class="st2" width="200" height="2"/>
	<g id="XMLID_117_">
		<g id="XMLID_72_">
			<linearGradient id="XMLID_35_" gradientUnits="userSpaceOnUse" x1="27.5" y1="91" x2="27.5" y2="1">
				<stop  offset="9.914436e-008" style="stop-color:#9260A7"/>
				<stop  offset="0.2" style="stop-color:#8455A2"/>
				<stop  offset="0.6" style="stop-color:#C5528B"/>
				<stop  offset="0.9307" style="stop-color:#F15B27"/>
			</linearGradient>
			<path id="XMLID_73_" class="st3" d="M53.8,57.1c-1.4-6.8-4.7-12.9-9-18.3c-4.4-5.4-9.5-10-14.4-14.9c-2.1-2.1-4.3-4.4-5.4-7.1
				c-1-2.3-1.2-4.8-1.2-7.2c0-2.9,0.3-5.9,1.6-8.6c-1.8,2.3-3.5,4.7-5.3,7c-2.7,3.5-5.4,7.3-5.8,11.7c-0.5,5.5,2.7,10.6,6.3,14.9
				c0.9,1,1.8,2.1,2.6,3.2c0.2,0.2,0.3,0.4,0.5,0.6c1.2,1.7,2.1,3.6,2.3,5.6c0.3,3-1.1,5.9-2.5,8.6c1-4.2-0.8-9.5-2.9-13.6
				c-0.1-0.2-0.2-0.4-0.3-0.6c-0.3-0.5-0.5-1-0.8-1.4c-1.1-1.8-4.6-6.2-9.6-5.5c1.5,1.2,4.2,4.6,4.8,9.3c0,0.2,0.1,0.4,0.1,0.6
				c0.2,1.6,0.1,3.2-0.3,5c-0.7,3.3-2.5,6.3-3.6,9.5c-2.2,6.6,1.4,14.5,7.8,17.2c-3.8,0.8-9.1-2.5-11.4-8
				c-3.1-7.5,1.1-14.8,3.3-18.9c-2.5,1.4-4.6,3.3-6.3,5.5C2,55.6,0.8,59.9,0.7,64.5C0.9,79.2,12.8,91,27.5,91c1.9,0,3.7-0.2,5.5-0.6
				c3.8-1,7.4-2.7,10.6-5c1.8-1.3,4.1-3.4,5.9-5.9c0,0,0,0,0-0.1c0.7-0.9,1.3-1.9,1.8-2.9c0-0.1,0.1-0.2,0.1-0.2
				c2.3-4.7,2.9-9.8,2.9-13.8C54.3,60.3,54,58.4,53.8,57.1z M47.5,72.2c-0.4,1.1-1,2.2-1.6,3.3c-0.6,1-1.4,2-2.2,2.9
				c-0.8,0.9-1.7,1.7-2.7,2.5c-1,0.7-2,1.4-3.1,1.9c-2.2,1.1-4.5,1.8-6.9,2.2c2.3-0.8,4.4-1.7,6.4-2.9c2-1.2,3.8-2.7,5.4-4.4
				c1.6-1.7,2.8-3.7,3.8-5.8c1-2.1,1.8-4.4,2.4-6.7C48.9,67.6,48.4,69.9,47.5,72.2z"/>
		</g>
	</g>
	<g id="XMLID_16_">
		<path id="XMLID_18_" class="st4" d="M69.2,78.4h3.4c2,0,4,0.8,4,3.1c0,1.4-0.7,2.2-1.6,2.8c1.3,0.6,2.2,1.5,2.2,3.3
			c0,2.5-2,3.3-3.9,3.3h-4.1V78.4z M72.7,83.9c1.4,0,2.5-0.7,2.5-2.2c0-1.6-1.2-2-2.5-2h-2.1v4.2H72.7z M73.3,89.5
			c1.3,0,2.5-0.4,2.5-2.1c0-1.8-1.2-2.3-2.5-2.3h-2.8v4.4H73.3z"/>
		<path id="XMLID_37_" class="st4" d="M96.9,86.3v-7.9h1.4v7.5c0,2.1,0.7,3.8,2.9,3.8c2.3,0,3-1.7,3-3.8v-7.5h1.4v7.8
			c0,2.6-1.3,4.8-4.4,4.8S96.9,88.8,96.9,86.3z"/>
		<path id="XMLID_57_" class="st4" d="M126,78.4h1.4v11.1h5.3v1.3H126V78.4z"/>
		<path id="XMLID_59_" class="st4" d="M150.8,84.6c0-3.5,1.8-6.4,5.6-6.4c2.3,0,4.1,1.2,5,3.3l-1.3,0.6c-0.7-1.6-2-2.5-3.8-2.5
			c-2.9,0-4.2,2.4-4.2,5c0,2.8,1.2,5.2,4.2,5.2c2.1,0,3.9-1.4,3.9-4.1h-2.8v-1.1h4.2v6.3h-1.2l0-2.3c-0.5,1.3-2,2.4-4.1,2.4
			C152.6,91,150.8,88.1,150.8,84.6z"/>
		<path id="XMLID_62_" class="st4" d="M185.2,78.4h1.1l4.6,12.4h-1.5l-0.9-2.7H183l-0.9,2.7h-1.5L185.2,78.4z M188,86.9l-2.2-6.4
			l-2.3,6.4H188z"/>
		<path id="XMLID_66_" class="st4" d="M210.3,78.4h3.6c2.2,0,3.9,1.3,3.9,3.4c0,1.7-1.1,2.9-2.6,3.2l3.4,5.8h-1.6l-3.1-5.6h-2v5.6
			h-1.4V78.4z M214.1,84c1.3-0.1,2.3-0.8,2.3-2.1c0-1.4-1-2.2-2.5-2.2h-2.2V84H214.1z"/>
		<path id="XMLID_74_" class="st4" d="M238.1,78.4h1.4v12.4h-1.4V78.4z"/>
		<path id="XMLID_135_" class="st4" d="M263.5,78.4h1.1l4.6,12.4h-1.5l-0.9-2.7h-5.5l-0.9,2.7h-1.5L263.5,78.4z M266.3,86.9
			l-2.2-6.4l-2.3,6.4H266.3z"/>
	</g>
</g>
</svg>
