<?xml version="1.0" encoding="utf-8"?>
<!-- Generator: Adobe Illustrator 19.0.0, SVG Export Plug-In . SVG Version: 6.00 Build 0)  -->
<svg version="1.1" id="logo" xmlns="http://www.w3.org/2000/svg" xmlns:xlink="http://www.w3.org/1999/xlink" x="0px" y="0px"
	 viewBox="-49 51 400 400" style="enable-background:new -49 51 400 400;" xml:space="preserve">
<style type="text/css">
	.st0{fill:#4EC626;}
	.st1{fill:#12A0C6;}
	.st2{fill:#E8132D;}
	.st3{fill:url(#main_1_);}
</style>
<path id="green" class="st0" d="M116.2,181.8c-5.9,3-11.3,6.7-16.2,11c-3.3,2.9-8.2,3-11.4,0L11,120.4c-3.5-3.3-3.6-8.8-0.1-12.1
	c17.3-17,37.7-30.9,60.3-40.8c4.4-1.9,9.5,0.2,11.2,4.7l38,99C121.9,175.3,120,179.8,116.2,181.8z"/>
<path id="blue" class="st1" d="M291.1,120.6l-77.4,72c-3.2,3-8.1,2.9-11.4,0c-4.9-4.3-10.4-8-16.3-11c-3.9-2-5.8-6.5-4.2-10.6
	l38.1-98.7c1.7-4.5,6.8-6.6,11.2-4.7c22.5,9.9,42.9,23.8,60.2,40.8C294.7,111.8,294.6,117.4,291.1,120.6z"/>
<path id="red" class="st2" d="M131.8,167.7L108.2,64.4c-1.1-4.7,2-9.3,6.7-10.1c11.8-2.2,24-3.3,36.4-3.3h0.4
	c12.3,0,24.5,1.2,36.3,3.4c4.7,0.9,7.7,5.5,6.6,10.2l-24.2,103.2c-1,4.1-4.9,6.9-9.1,6.4c-3.3-0.4-6.7-0.7-10.1-0.7
	c-3.5,0-6.9,0.2-10.3,0.7C136.7,174.6,132.8,171.8,131.8,167.7z"/>
<radialGradient id="main_1_" cx="151" cy="253.1541" r="200.1271" gradientTransform="matrix(1 0 0 -1 0 504)" gradientUnits="userSpaceOnUse">
	<stop  offset="0" style="stop-color:#F9CB25"/>
	<stop  offset="0.3398" style="stop-color:#F9C823"/>
	<stop  offset="0.6127" style="stop-color:#F8BE1B"/>
	<stop  offset="0.8615" style="stop-color:#F7AD0F"/>
	<stop  offset="1" style="stop-color:#F6A006"/>
</radialGradient>
<path id="main" class="st3" d="M191.4,269c-2.2-4-5.2-7.2-9-9.5s-8-3.5-12.8-3.5c-4.7,0-8.9,1.1-12.7,3.5c-3.8,2.3-6.9,5.5-9.1,9.5
	c-2.2,4-3.3,8.6-3.3,13.7c0,5,1.1,9.7,3.4,13.8c2.2,4,5.2,7.2,9.1,9.6c3.8,2.3,8,3.4,12.7,3.4c4.8,0,9-1.1,12.8-3.4s6.8-5.5,9-9.6
	s3.3-8.7,3.3-13.8C194.7,277.6,193.6,273,191.4,269z M268.1,359.9c-1.6-1.6-3.8-2.4-6.4-2.4c-2.9,0-5.3,0.8-7.1,2.4
	c-1.8,1.6-3,3.7-3.5,6.4h20C270.8,363.6,269.8,361.5,268.1,359.9z M268.1,359.9c-1.6-1.6-3.8-2.4-6.4-2.4c-2.9,0-5.3,0.8-7.1,2.4
	c-1.8,1.6-3,3.7-3.5,6.4h20C270.8,363.6,269.8,361.5,268.1,359.9z M183.3,363.2c-0.9-1.7-2.2-3-3.8-4c-1.6-0.9-3.5-1.4-5.5-1.4
	s-3.9,0.5-5.5,1.4c-1.6,1-2.9,2.3-3.8,4c-0.9,1.7-1.4,3.7-1.4,5.8c0,2.2,0.4,4.1,1.4,5.8c0.9,1.7,2.2,3,3.8,4s3.5,1.4,5.5,1.4
	s3.9-0.5,5.5-1.4s2.9-2.3,3.8-4c0.9-1.7,1.4-3.6,1.4-5.8C184.6,366.9,184.2,364.9,183.3,363.2z M268.1,359.9
	c-1.6-1.6-3.8-2.4-6.4-2.4c-2.9,0-5.3,0.8-7.1,2.4c-1.8,1.6-3,3.7-3.5,6.4h20C270.8,363.6,269.8,361.5,268.1,359.9z M268.1,359.9
	c-1.6-1.6-3.8-2.4-6.4-2.4c-2.9,0-5.3,0.8-7.1,2.4c-1.8,1.6-3,3.7-3.5,6.4h20C270.8,363.6,269.8,361.5,268.1,359.9z M183.3,363.2
	c-0.9-1.7-2.2-3-3.8-4c-1.6-0.9-3.5-1.4-5.5-1.4s-3.9,0.5-5.5,1.4c-1.6,1-2.9,2.3-3.8,4c-0.9,1.7-1.4,3.7-1.4,5.8
	c0,2.2,0.4,4.1,1.4,5.8c0.9,1.7,2.2,3,3.8,4s3.5,1.4,5.5,1.4s3.9-0.5,5.5-1.4s2.9-2.3,3.8-4c0.9-1.7,1.4-3.6,1.4-5.8
	C184.6,366.9,184.2,364.9,183.3,363.2z M93.1,359.9c-1.6-1.6-3.8-2.4-6.4-2.4c-2.9,0-5.3,0.8-7.1,2.4s-3,3.7-3.5,6.4h20
	C95.8,363.6,94.8,361.5,93.1,359.9z M183.3,363.2c-0.9-1.7-2.2-3-3.8-4c-1.6-0.9-3.5-1.4-5.5-1.4s-3.9,0.5-5.5,1.4
	c-1.6,1-2.9,2.3-3.8,4c-0.9,1.7-1.4,3.7-1.4,5.8c0,2.2,0.4,4.1,1.4,5.8c0.9,1.7,2.2,3,3.8,4s3.5,1.4,5.5,1.4s3.9-0.5,5.5-1.4
	s2.9-2.3,3.8-4c0.9-1.7,1.4-3.6,1.4-5.8C184.6,366.9,184.2,364.9,183.3,363.2z M268.1,359.9c-1.6-1.6-3.8-2.4-6.4-2.4
	c-2.9,0-5.3,0.8-7.1,2.4c-1.8,1.6-3,3.7-3.5,6.4h20C270.8,363.6,269.8,361.5,268.1,359.9z M268.1,359.9c-1.6-1.6-3.8-2.4-6.4-2.4
	c-2.9,0-5.3,0.8-7.1,2.4c-1.8,1.6-3,3.7-3.5,6.4h20C270.8,363.6,269.8,361.5,268.1,359.9z M183.3,363.2c-0.9-1.7-2.2-3-3.8-4
	c-1.6-0.9-3.5-1.4-5.5-1.4s-3.9,0.5-5.5,1.4c-1.6,1-2.9,2.3-3.8,4c-0.9,1.7-1.4,3.7-1.4,5.8c0,2.2,0.4,4.1,1.4,5.8
	c0.9,1.7,2.2,3,3.8,4s3.5,1.4,5.5,1.4s3.9-0.5,5.5-1.4s2.9-2.3,3.8-4c0.9-1.7,1.4-3.6,1.4-5.8C184.6,366.9,184.2,364.9,183.3,363.2z
	 M93.1,359.9c-1.6-1.6-3.8-2.4-6.4-2.4c-2.9,0-5.3,0.8-7.1,2.4s-3,3.7-3.5,6.4h20C95.8,363.6,94.8,361.5,93.1,359.9z M351,247.5
	c-5,0.1-9.9-0.4-14.7-1.6c-5-1.1-11.3-2.6-18.4-4.3c-1.8-5.9-5-11.2-9.2-15.6l31.5-5c4.7-0.7,7.8-5.3,6.9-10
	c-4.9-24.4-14.3-47.2-27.2-67.4c-2.6-4-8-5.1-11.9-2.4l-86.6,60.5c-3.6,2.5-4.6,11.3-4.6,19.4v61.4c0,8.8-2.1,16.9-6.2,24.1
	c-4.2,7.2-9.8,12.9-16.9,17.1c-7.1,4.1-15.1,6.3-23.9,6.3c-8.7,0-16.8-2.1-24-6.3c-7.2-4.1-12.9-9.9-17-17.1s-6.1-15.3-6.1-24.1
	s1.9-16.9,5.7-24c3.8-7.3,9.1-13,15.8-17.1s14.3-6.2,22.5-6.2c6.6,0,12.9,1.4,18.5,4.1c3.3,1.6,6.3,3.5,9,5.8v-25.7
	c0-0.4,0-0.9,0.1-1.3c-15.5-1.9-30.4-3-43.9-3c-16.7,0-39.6,2.8-63.9,6.7c-2.5,0.4-1.7-17.3-5.2-19.8l-87-60.9
	c-3.9-2.7-9.3-1.7-11.9,2.4c-13.1,20.4-22.5,43.2-27.4,67.6c-0.9,4.7,2.2,9.2,6.9,10l30.1,4.8c-4,4.6-7,10.2-8.4,16.4
	c-6.8,1.5-12.8,2.8-17.8,3.9c-4.5,0.9-9,1.4-13.6,1.4H-49c0,1.2,0,2.3,0,3.5c0,110.5,89.5,200,200,200s200-89.5,200-200
	C351,249.9,351,248.7,351,247.5z M89.6,247.3c0-3.3,1.1-6,3.3-8.1s4.9-3.1,8-3.1c3.3,0,6,1.1,8.2,3.2c2.1,2.1,3.1,4.9,3.1,8.1v70.9
	c0,3.2-1,5.9-3.1,8c-2.1,2.2-4.9,3.3-8.2,3.3c-3.2,0-5.9-1.1-8.1-3.2c-2.1-2.2-3.2-4.9-3.2-8.1C89.6,318.3,89.6,247.3,89.6,247.3z
	 M22.5,316c0,3.2-1,5.8-3.1,7.9c-2.2,2.1-4.8,3.2-8.1,3.2c-3.1,0-5.8-1.1-7.7-3.2c-1.9-2-2.9-4.7-2.9-7.9v-68.7
	c0-3.2,0.9-5.8,2.9-7.9c1.9-2.1,4.6-3.2,7.7-3.2c3.2,0,5.9,1.1,8.1,3.2c2.1,2.1,3.1,4.7,3.1,7.9v22.6h7.1l27-30.1
	c2.2-2.3,5.1-3.5,8.8-3.5c3,0,5.3,0.8,7,2.5c2.4,2.3,3.6,5,3.6,7.8c0,2.2-0.8,4.3-2.6,6.3l-25.9,27.7l27.7,29.6
	c1.9,2.2,2.8,4.4,2.8,6.7c0,2.7-1.2,5.1-3.5,7.3c-1.9,1.8-4.5,2.7-7.7,2.7s-5.9-1-8-3.2l-30.8-33h-5.5C22.5,290.7,22.5,316,22.5,316
	z M66.8,356.8l-8.9,26.6c-0.2,0.6-0.6,1-1.1,1.4s-1.1,0.6-1.7,0.6c-0.7,0-1.3-0.2-1.8-0.6s-0.9-0.9-1.1-1.4l-5.9-21.8l-6.2,21.8
	c-0.2,0.6-0.6,1-1.1,1.4c-0.6,0.4-1.2,0.6-1.8,0.6s-1.2-0.2-1.8-0.6s-0.9-0.9-1.1-1.4l-8.9-26.6c-0.1-0.5-0.2-1.1-0.2-1.7
	c0-1.7,0.8-2.5,2.5-2.5c0.7,0,1.4,0.2,1.9,0.7c0.5,0.4,0.9,1.1,1.2,2.1l6.5,20.2l6.1-20.7c0.2-0.7,0.6-1.2,1.1-1.7
	c0.5-0.4,1.2-0.6,1.9-0.6c0.8,0,1.4,0.2,1.9,0.6s0.9,1,1.1,1.7l5.4,21.1l6.6-20.6c0.6-1.8,1.6-2.8,3.1-2.8c0.9,0,1.5,0.2,1.9,0.7
	c0.4,0.4,0.6,1,0.6,1.8C67.1,355.7,67,356.3,66.8,356.8z M100.9,370.4c-0.5,0.5-1.2,0.8-2,0.8H76.1c0.4,2.8,1.7,5,3.8,6.8
	c2.1,1.7,4.7,2.6,7.7,2.6c1.2,0,2.4-0.2,3.7-0.6s2.4-1,3.2-1.6c0.6-0.4,1.2-0.7,2-0.7s1.4,0.2,1.8,0.6c0.7,0.6,1.1,1.3,1.1,2
	s-0.3,1.3-1,1.8c-1.4,1.1-3,1.9-5,2.6s-4,1-5.8,1c-3.3,0-6.2-0.7-8.8-2.1c-2.6-1.4-4.6-3.4-6.1-5.9s-2.2-5.4-2.2-8.6
	s0.7-6.1,2.1-8.6s3.3-4.5,5.8-6c2.4-1.4,5.2-2.1,8.4-2.1c3.1,0,5.7,0.7,8,2c2.2,1.4,4,3.3,5.2,5.7c1.2,2.4,1.8,5.2,1.8,8.4
	C101.7,369.2,101.4,369.9,100.9,370.4z M120.3,384.5c-0.8,0.6-1.7,0.9-2.9,0.9h-0.1c-1.7,0-3.3-0.5-4.7-1.4s-2.4-2.2-3.2-4
	c-0.8-1.7-1.2-3.6-1.2-5.7v-32.8c0-0.9,0.3-1.6,0.8-2.2c0.6-0.6,1.3-0.9,2.2-0.9s1.6,0.3,2.2,0.9s0.8,1.3,0.8,2.2v32.8
	c0,1.5,0.3,2.7,0.9,3.7c0.6,0.9,1.3,1.4,2.2,1.4h1.5c0.8,0,1.4,0.3,1.9,0.8c0.5,0.6,0.7,1.3,0.7,2.2
	C121.5,383.3,121.1,384,120.3,384.5z M131.2,374.8c0.9,1.7,2.2,3,3.8,4s3.5,1.4,5.5,1.4c2.7,0,4.9-0.7,6.6-2.1
	c0.8-0.6,1.5-0.9,2.2-0.9c0.6,0,1.1,0.2,1.6,0.6c0.8,0.6,1.2,1.4,1.2,2.2c0,0.6-0.3,1.1-0.7,1.6c-2.9,2.7-6.5,4-10.8,4
	c-3.2,0-6-0.7-8.5-2.2c-2.5-1.4-4.5-3.4-5.9-6c-1.4-2.5-2.1-5.4-2.1-8.5c0-3.2,0.7-6.1,2.1-8.6s3.3-4.5,5.8-6
	c2.5-1.4,5.3-2.1,8.4-2.1c4.7,0,8.6,1.8,11.8,5.4c0.4,0.4,0.6,1,0.6,1.6c0,0.9-0.4,1.6-1.3,2.2c-0.4,0.3-0.9,0.4-1.4,0.4
	c-0.9,0-1.7-0.4-2.3-1.1c-1-1.1-2.1-1.9-3.3-2.4s-2.5-0.8-4-0.8c-3.1,0-5.6,1-7.5,3.1s-2.9,4.8-2.9,8.2
	C129.9,371.2,130.3,373.1,131.2,374.8z M188.4,377.6c-1.4,2.5-3.4,4.5-5.8,5.9c-2.5,1.4-5.4,2.1-8.6,2.1c-3.2,0-6.1-0.7-8.6-2.1
	s-4.5-3.4-5.9-5.9s-2.1-5.4-2.1-8.6s0.7-6.1,2.1-8.6c1.4-2.5,3.4-4.5,5.9-5.9s5.4-2.1,8.6-2.1c3.2,0,6,0.7,8.5,2.1s4.5,3.4,5.9,5.9
	s2.1,5.4,2.1,8.6C190.5,372.2,189.8,375.1,188.4,377.6z M239.6,382.4c0,0.9-0.3,1.6-0.8,2.2c-0.6,0.6-1.3,0.9-2.2,0.9
	s-1.6-0.3-2.2-0.9s-0.9-1.3-0.9-2.2v-17.1c0-2.4-0.6-4.3-1.8-5.6c-1.2-1.2-2.9-1.9-4.9-1.9c-2.1,0-3.8,0.7-5.1,2.2
	c-1.3,1.4-2,3.3-2,5.5v16.9c0,0.9-0.3,1.6-0.8,2.2c-0.6,0.6-1.3,0.9-2.2,0.9s-1.6-0.3-2.2-0.9s-0.9-1.3-0.9-2.2v-17.1
	c0-2.4-0.6-4.3-1.9-5.6c-1.2-1.2-2.8-1.9-4.9-1.9s-3.9,0.7-5.2,2.2c-1.4,1.4-2,3.3-2,5.5v16.9c0,0.9-0.3,1.6-0.9,2.2
	c-0.6,0.6-1.3,0.9-2.2,0.9s-1.6-0.3-2.2-0.9c-0.6-0.6-0.9-1.3-0.9-2.2v-26.7c0-0.9,0.3-1.7,0.9-2.2c0.6-0.6,1.3-0.9,2.2-0.9
	s1.6,0.3,2.2,0.8c0.6,0.5,0.9,1.2,0.9,2.1c1-1,2.3-1.9,3.7-2.4c1.4-0.6,3-0.9,4.7-0.9c2.1,0,3.9,0.4,5.5,1.2c1.6,0.8,2.9,2,4,3.5
	c1.2-1.5,2.7-2.7,4.5-3.5c1.8-0.9,3.8-1.3,6-1.3c3.5,0,6.3,1.1,8.4,3.4c2.2,2.3,3.2,5.5,3.2,9.6L239.6,382.4L239.6,382.4z
	 M275.9,370.4c-0.5,0.5-1.2,0.8-2,0.8h-22.8c0.4,2.8,1.7,5,3.8,6.8c2.1,1.7,4.7,2.6,7.7,2.6c1.2,0,2.4-0.2,3.7-0.6
	c1.3-0.4,2.4-1,3.2-1.6c0.6-0.4,1.2-0.7,2-0.7s1.4,0.2,1.8,0.6c0.7,0.6,1.1,1.3,1.1,2s-0.3,1.3-1,1.8c-1.4,1.1-3,1.9-5.1,2.6
	c-2,0.7-4,1-5.8,1c-3.3,0-6.2-0.7-8.8-2.1c-2.6-1.4-4.6-3.4-6.1-5.9s-2.2-5.4-2.2-8.6s0.7-6.1,2.1-8.6s3.3-4.5,5.8-6
	c2.4-1.4,5.2-2.1,8.4-2.1c3.1,0,5.7,0.7,8,2c2.2,1.4,4,3.3,5.2,5.7c1.2,2.4,1.8,5.2,1.8,8.4C276.7,369.2,276.4,369.9,275.9,370.4z
	 M290.6,329.5h-54.3c-6.8,0-10.7-3.9-10.7-10.7c0-2.8,0.7-5.2,2.1-7l41.2-54.5h-34.2c-6.8,0-10.7-3.9-10.7-10.7s3.9-10.6,10.7-10.6
	H289c6.8,0,10.7,3.9,10.7,10.6c0,2.8-0.7,5.2-2.1,7l-41.1,54.5h34.1c6.8,0,10.6,3.9,10.6,10.7S297.4,329.5,290.6,329.5z
	 M261.7,357.5c-2.9,0-5.3,0.8-7.1,2.4c-1.8,1.6-3,3.7-3.5,6.4h20c-0.4-2.7-1.4-4.8-3-6.4S264.4,357.5,261.7,357.5z M179.5,359.2
	c-1.6-0.9-3.5-1.4-5.5-1.4s-3.9,0.5-5.5,1.4c-1.6,1-2.9,2.3-3.8,4c-0.9,1.7-1.4,3.7-1.4,5.8c0,2.2,0.4,4.1,1.4,5.8
	c0.9,1.7,2.2,3,3.8,4s3.5,1.4,5.5,1.4s3.9-0.5,5.5-1.4s2.9-2.3,3.8-4c0.9-1.7,1.4-3.6,1.4-5.8c0-2.2-0.4-4.1-1.4-5.8
	C182.3,361.5,181.1,360.2,179.5,359.2z M86.7,357.5c-2.9,0-5.3,0.8-7.1,2.4s-3,3.7-3.5,6.4h20c-0.4-2.7-1.4-4.8-3-6.4
	S89.4,357.5,86.7,357.5z M183.3,363.2c-0.9-1.7-2.2-3-3.8-4c-1.6-0.9-3.5-1.4-5.5-1.4s-3.9,0.5-5.5,1.4c-1.6,1-2.9,2.3-3.8,4
	c-0.9,1.7-1.4,3.7-1.4,5.8c0,2.2,0.4,4.1,1.4,5.8c0.9,1.7,2.2,3,3.8,4s3.5,1.4,5.5,1.4s3.9-0.5,5.5-1.4s2.9-2.3,3.8-4
	c0.9-1.7,1.4-3.6,1.4-5.8C184.6,366.9,184.2,364.9,183.3,363.2z M268.1,359.9c-1.6-1.6-3.8-2.4-6.4-2.4c-2.9,0-5.3,0.8-7.1,2.4
	c-1.8,1.6-3,3.7-3.5,6.4h20C270.8,363.6,269.8,361.5,268.1,359.9z M268.1,359.9c-1.6-1.6-3.8-2.4-6.4-2.4c-2.9,0-5.3,0.8-7.1,2.4
	c-1.8,1.6-3,3.7-3.5,6.4h20C270.8,363.6,269.8,361.5,268.1,359.9z M183.3,363.2c-0.9-1.7-2.2-3-3.8-4c-1.6-0.9-3.5-1.4-5.5-1.4
	s-3.9,0.5-5.5,1.4c-1.6,1-2.9,2.3-3.8,4c-0.9,1.7-1.4,3.7-1.4,5.8c0,2.2,0.4,4.1,1.4,5.8c0.9,1.7,2.2,3,3.8,4s3.5,1.4,5.5,1.4
	s3.9-0.5,5.5-1.4s2.9-2.3,3.8-4c0.9-1.7,1.4-3.6,1.4-5.8C184.6,366.9,184.2,364.9,183.3,363.2z M183.3,363.2c-0.9-1.7-2.2-3-3.8-4
	c-1.6-0.9-3.5-1.4-5.5-1.4s-3.9,0.5-5.5,1.4c-1.6,1-2.9,2.3-3.8,4c-0.9,1.7-1.4,3.7-1.4,5.8c0,2.2,0.4,4.1,1.4,5.8
	c0.9,1.7,2.2,3,3.8,4s3.5,1.4,5.5,1.4s3.9-0.5,5.5-1.4s2.9-2.3,3.8-4c0.9-1.7,1.4-3.6,1.4-5.8C184.6,366.9,184.2,364.9,183.3,363.2z
	 M268.1,359.9c-1.6-1.6-3.8-2.4-6.4-2.4c-2.9,0-5.3,0.8-7.1,2.4c-1.8,1.6-3,3.7-3.5,6.4h20C270.8,363.6,269.8,361.5,268.1,359.9z
	 M268.1,359.9c-1.6-1.6-3.8-2.4-6.4-2.4c-2.9,0-5.3,0.8-7.1,2.4c-1.8,1.6-3,3.7-3.5,6.4h20C270.8,363.6,269.8,361.5,268.1,359.9z
	 M183.3,363.2c-0.9-1.7-2.2-3-3.8-4c-1.6-0.9-3.5-1.4-5.5-1.4s-3.9,0.5-5.5,1.4c-1.6,1-2.9,2.3-3.8,4c-0.9,1.7-1.4,3.7-1.4,5.8
	c0,2.2,0.4,4.1,1.4,5.8c0.9,1.7,2.2,3,3.8,4s3.5,1.4,5.5,1.4s3.9-0.5,5.5-1.4s2.9-2.3,3.8-4c0.9-1.7,1.4-3.6,1.4-5.8
	C184.6,366.9,184.2,364.9,183.3,363.2z M268.1,359.9c-1.6-1.6-3.8-2.4-6.4-2.4c-2.9,0-5.3,0.8-7.1,2.4c-1.8,1.6-3,3.7-3.5,6.4h20
	C270.8,363.6,269.8,361.5,268.1,359.9z M268.1,359.9c-1.6-1.6-3.8-2.4-6.4-2.4c-2.9,0-5.3,0.8-7.1,2.4c-1.8,1.6-3,3.7-3.5,6.4h20
	C270.8,363.6,269.8,361.5,268.1,359.9z M191.4,269c-2.2-4-5.2-7.2-9-9.5s-8-3.5-12.8-3.5c-4.7,0-8.9,1.1-12.7,3.5
	c-3.8,2.3-6.9,5.5-9.1,9.5c-2.2,4-3.3,8.6-3.3,13.7c0,5,1.1,9.7,3.4,13.8c2.2,4,5.2,7.2,9.1,9.6c3.8,2.3,8,3.4,12.7,3.4
	c4.8,0,9-1.1,12.8-3.4s6.8-5.5,9-9.6s3.3-8.7,3.3-13.8C194.7,277.6,193.6,273,191.4,269z"/>
</svg>
