<?xml version="1.0" encoding="utf-8"?>
<!-- Generator: Adobe Illustrator 19.0.0, SVG Export Plug-In . SVG Version: 6.00 Build 0)  -->
<svg version="1.1" xmlns="http://www.w3.org/2000/svg" xmlns:xlink="http://www.w3.org/1999/xlink" x="0px" y="0px"
	 viewBox="0 0 1500 450" style="enable-background:new 0 0 1500 450;" xml:space="preserve">
<style type="text/css">
	.st0{fill:none;stroke:#FFFFFF;stroke-width:5;stroke-miterlimit:10;}
	.st1{fill:none;stroke:#BE1E2D;stroke-width:10;stroke-miterlimit:10;}
	.st2{fill:#FFFFFF;}
	.st3{fill:#BE1E2D;}
</style>
<g id="logo_dark">
</g>
<g id="logo_white">
	<g id="Full_1_">
		<g id="XMLID_546_">
			<g id="lines_2_">
				<line id="XMLID_566_" class="st0" x1="73.2" y1="107.4" x2="296.9" y2="415.2"/>
				<line id="XMLID_565_" class="st0" x1="173.3" y1="415.2" x2="396.7" y2="342.5"/>
				<line id="XMLID_564_" class="st0" x1="273" y1="67.2" x2="396.7" y2="107.4"/>
				<line id="XMLID_563_" class="st0" x1="227.3" y1="109.2" x2="173.3" y2="34.8"/>
				<line id="XMLID_562_" class="st1" x1="296.9" y1="415.2" x2="73.2" y2="342.5"/>
				<line id="XMLID_561_" class="st0" x1="396.7" y1="107.4" x2="173.3" y2="415.2"/>
				<line id="XMLID_560_" class="st1" x1="296.6" y1="34.8" x2="72.9" y2="107.4"/>
				<line id="XMLID_559_" class="st0" x1="173.3" y1="34.8" x2="273" y2="67.2"/>
				<line id="XMLID_558_" class="st1" x1="72.9" y1="342.5" x2="296.6" y2="34.8"/>
				<line id="XMLID_557_" class="st0" x1="396.7" y1="342.5" x2="227.3" y2="109.2"/>
			</g>
			<g id="dots_2_">
				<circle id="XMLID_556_" class="st2" cx="73.2" cy="342.5" r="10"/>
				<circle id="XMLID_555_" class="st2" cx="173.3" cy="415.2" r="10"/>
				<circle id="XMLID_554_" class="st2" cx="296.9" cy="415.2" r="10"/>
				<circle id="XMLID_553_" class="st2" cx="396.7" cy="342.5" r="10"/>
				<circle id="XMLID_552_" class="st3" cx="435" cy="225" r="10"/>
				<circle id="XMLID_551_" class="st2" cx="396.7" cy="107.4" r="10"/>
				<circle id="XMLID_550_" class="st2" cx="296.9" cy="34.8" r="10"/>
				<circle id="XMLID_549_" class="st2" cx="173.3" cy="34.8" r="10"/>
				<circle id="XMLID_548_" class="st2" cx="73.2" cy="107.4" r="10"/>
				<circle id="XMLID_547_" class="st2" cx="35" cy="225" r="10"/>
			</g>
		</g>
		<g id="type_1_">
			<g id="Z_3_">
				<polygon id="XMLID_47_" class="st2" points="504.5,406.2 645.4,406.2 645.4,425.7 485,425.7 485,406.1 625.8,45.2 485,45.2 
					485,25.7 645.4,25.7 645.4,45.8 				"/>
			</g>
			<g id="w_3_">
				<polygon id="XMLID_40_" class="st2" points="937.7,129.3 871.4,425.7 842.4,425.7 800.4,189 758.4,425.7 728.8,425.7 
					663.1,129.3 683.2,129.3 743,399.1 790.3,129.3 809.9,129.3 810.4,129.3 857.8,399.1 917.5,129.3 				"/>
			</g>
			<g id="e_3_">
				<path id="XMLID_72_" class="st2" d="M1002.2,289.6c9.1-3.5,18.4-7.1,28.1-10.6c9.7-3.5,18.6-7,26.9-10.4
					c8.3-3.3,14.2-5.6,17.7-6.8c30-11,45-28.8,45-53.3V208c0-10.6-2.1-20.8-6.2-30.5c-4.1-9.7-9.8-18.1-16.9-25.2
					c-7.1-7.1-15.5-12.7-25.1-16.9c-9.7-4.1-20-6.2-31.1-6.2c-11,0-21.4,2.1-31.1,6.2c-9.7,4.1-18.1,9.8-25.2,16.9
					c-7.1,7.1-12.7,15.5-16.9,25.2c-4.1,9.7-6.2,20-6.2,31.1v137.9c0,11.1,2.1,21.4,6.2,31.1c4.1,9.7,9.8,18,16.9,25.1
					c7.1,7.1,15.5,12.7,25.2,16.9c9.7,4.1,20,6.2,31.1,6.2c11,0,21.4-2.1,31.1-6.2c9.7-4.1,18-9.8,25.1-16.9
					c7.1-7.1,12.7-15.5,16.9-25.1c4.1-9.7,6.2-20,6.2-31.1h-19.5c0,8.3-1.6,16.1-4.7,23.4c-3.2,7.3-7.4,13.6-12.7,18.9
					s-11.6,9.6-18.9,12.7c-7.3,3.2-15.1,4.7-23.4,4.7c-8.3,0-16.1-1.6-23.4-4.7c-7.3-3.2-13.6-7.4-18.9-12.7s-9.6-11.6-12.7-18.9
					c-3.2-7.3-4.7-15.1-4.7-23.4v-49.1C986,295.7,993.1,293.2,1002.2,289.6z M980.9,208.5c0-8.3,1.6-16.1,4.7-23.4
					c3.2-7.3,7.4-13.6,12.7-18.9c5.3-5.3,11.6-9.6,18.9-12.7c7.3-3.2,15.1-4.7,23.4-4.7c8.3,0,16.1,1.6,23.4,4.7
					c7.3,3.2,13.6,7.4,18.9,12.7c5.3,5.3,9.6,11.5,12.7,18.6c3.2,7.1,4.7,14.8,4.7,23.1c0,9.9-3.5,17.6-10.6,23.1
					c-7.1,5.5-14.2,9.7-21.3,12.4c-3.2,1.2-8.4,3.2-15.7,5.9c-7.3,2.8-15.3,5.7-24,8.9c-8.7,3.2-17.4,6.4-26,9.8
					c-8.7,3.4-16,6.2-21.9,8.6V208.5z"/>
			</g>
			<g id="r_3_">
				<path id="XMLID_33_" class="st2" d="M1243.6,129.3c-23.7,0.8-43,9.9-58,27.2v-27.2h-39.1v19.5h19.5v276.9h19.5V208.5
					c0-8.3,1.6-16.1,4.7-23.4c3.2-7.3,7.5-13.6,13-18.9c5.5-5.3,11.8-9.6,18.9-12.7c7.1-3.2,14.8-4.7,23.1-4.7h23.1v-19.5H1243.6z"
					/>
			</g>
			<g id="i_3_">
				<path id="XMLID_75_" class="st2" d="M1331.7,129.3v296.4h-19.5V148.8h-19.5v-19.5H1331.7z M1328.8,62c2-1.8,2.9-4.2,2.9-7
					c0-2.9-1-5.2-2.9-7c-2-1.8-4.2-2.7-6.8-2.7c-2.9,0-5.2,0.9-7,2.7c-1.8,1.8-2.7,4.2-2.7,7c0,2.9,0.9,5.2,2.7,7
					c1.8,1.8,4.2,2.7,7,2.7C1324.6,64.8,1326.9,63.8,1328.8,62z"/>
			</g>
			<g id="t_3_">
				<path id="XMLID_31_" class="st2" d="M1474.3,148.8v-19.5h-63.9v-84h-19.5v301.2c0,11.1,1.9,21.4,5.6,31.1
					c3.7,9.7,8.9,18,15.4,25.1c6.5,7.1,14.1,12.7,22.8,16.9c8.7,4.1,17.9,6.2,27.8,6.2v-19.5c-7.1,0-13.8-1.6-20.1-4.7
					c-6.3-3.2-11.8-7.4-16.6-12.7c-4.7-5.3-8.5-11.6-11.2-18.9c-2.8-7.3-4.1-15.1-4.1-23.4V148.8H1474.3z"/>
			</g>
		</g>
	</g>
</g>
</svg>
