<?xml version="1.0" encoding="utf-8"?>
<!-- Generator: Adobe Illustrator 19.0.0, SVG Export Plug-In . SVG Version: 6.00 Build 0)  -->
<svg version="1.1" id="Layer_1" xmlns="http://www.w3.org/2000/svg" xmlns:xlink="http://www.w3.org/1999/xlink" x="0px" y="0px"
	 viewBox="344 72 1700 650" style="enable-background:new 344 72 1700 650;" xml:space="preserve">
<style type="text/css">
	.st0{fill:#20242C;}
	.st1{fill:none;stroke:#FFFFFF;stroke-width:5;stroke-miterlimit:10;}
	.st2{fill:none;stroke:#BE1E2D;stroke-width:10;stroke-miterlimit:10;}
	.st3{fill:#FFFFFF;}
	.st4{fill:#BE1E2D;}
</style>
<rect x="344" y="72" class="st0" width="1700" height="650"/>
<g id="logo_dark">
</g>
<g id="logo_white">
	<g id="Full_1_">
		<g id="XMLID_546_">
			<g id="lines_2_">
				<line id="XMLID_566_" class="st1" x1="517.2" y1="279.4" x2="740.9" y2="587.2"/>
				<line id="XMLID_565_" class="st1" x1="617.3" y1="587.2" x2="840.7" y2="514.5"/>
				<line id="XMLID_564_" class="st1" x1="717" y1="239.2" x2="840.7" y2="279.4"/>
				<line id="XMLID_563_" class="st1" x1="671.3" y1="281.2" x2="617.3" y2="206.8"/>
				<line id="XMLID_562_" class="st2" x1="740.9" y1="587.2" x2="517.2" y2="514.5"/>
				<line id="XMLID_561_" class="st1" x1="840.7" y1="279.4" x2="617.3" y2="587.2"/>
				<line id="XMLID_560_" class="st2" x1="740.6" y1="206.8" x2="516.9" y2="279.4"/>
				<line id="XMLID_559_" class="st1" x1="617.3" y1="206.8" x2="717" y2="239.2"/>
				<line id="XMLID_558_" class="st2" x1="516.9" y1="514.5" x2="740.6" y2="206.8"/>
				<line id="XMLID_557_" class="st1" x1="840.7" y1="514.5" x2="671.3" y2="281.2"/>
			</g>
			<g id="dots_2_">
				<circle id="XMLID_556_" class="st3" cx="517.2" cy="514.5" r="10"/>
				<circle id="XMLID_555_" class="st3" cx="617.3" cy="587.2" r="10"/>
				<circle id="XMLID_554_" class="st3" cx="740.9" cy="587.2" r="10"/>
				<circle id="XMLID_553_" class="st3" cx="840.7" cy="514.5" r="10"/>
				<circle id="XMLID_552_" class="st4" cx="879" cy="397" r="10"/>
				<circle id="XMLID_551_" class="st3" cx="840.7" cy="279.4" r="10"/>
				<circle id="XMLID_550_" class="st3" cx="740.9" cy="206.8" r="10"/>
				<circle id="XMLID_549_" class="st3" cx="617.3" cy="206.8" r="10"/>
				<circle id="XMLID_548_" class="st3" cx="517.2" cy="279.4" r="10"/>
				<circle id="XMLID_547_" class="st3" cx="479" cy="397" r="10"/>
			</g>
		</g>
		<g id="type_1_">
			<g id="Z_3_">
				<polygon id="XMLID_47_" class="st3" points="948.5,578.2 1089.4,578.2 1089.4,597.7 929,597.7 929,578.1 1069.8,217.2 
					929,217.2 929,197.7 1089.4,197.7 1089.4,217.8 				"/>
			</g>
			<g id="w_3_">
				<polygon id="XMLID_40_" class="st3" points="1381.7,301.3 1315.4,597.7 1286.4,597.7 1244.4,361 1202.4,597.7 1172.8,597.7 
					1107.1,301.3 1127.2,301.3 1187,571.1 1234.3,301.3 1253.9,301.3 1254.4,301.3 1301.8,571.1 1361.5,301.3 				"/>
			</g>
			<g id="e_3_">
				<path id="XMLID_72_" class="st3" d="M1446.2,461.6c9.1-3.5,18.4-7.1,28.1-10.6s18.6-7,26.9-10.4c8.3-3.3,14.2-5.6,17.7-6.8
					c30-11,45-28.8,45-53.3V380c0-10.6-2.1-20.8-6.2-30.5s-9.8-18.1-16.9-25.2c-7.1-7.1-15.5-12.7-25.1-16.9
					c-9.7-4.1-20-6.2-31.1-6.2c-11,0-21.4,2.1-31.1,6.2c-9.7,4.1-18.1,9.8-25.2,16.9c-7.1,7.1-12.7,15.5-16.9,25.2
					c-4.1,9.7-6.2,20-6.2,31.1v137.9c0,11.1,2.1,21.4,6.2,31.1c4.1,9.7,9.8,18,16.9,25.1c7.1,7.1,15.5,12.7,25.2,16.9
					c9.7,4.1,20,6.2,31.1,6.2c11,0,21.4-2.1,31.1-6.2c9.7-4.1,18-9.8,25.1-16.9s12.7-15.5,16.9-25.1c4.1-9.7,6.2-20,6.2-31.1h-19.5
					c0,8.3-1.6,16.1-4.7,23.4c-3.2,7.3-7.4,13.6-12.7,18.9s-11.6,9.6-18.9,12.7c-7.3,3.2-15.1,4.7-23.4,4.7s-16.1-1.6-23.4-4.7
					c-7.3-3.2-13.6-7.4-18.9-12.7s-9.6-11.6-12.7-18.9c-3.2-7.3-4.7-15.1-4.7-23.4v-49.1C1430,467.7,1437.1,465.2,1446.2,461.6z
					 M1424.9,380.5c0-8.3,1.6-16.1,4.7-23.4c3.2-7.3,7.4-13.6,12.7-18.9s11.6-9.6,18.9-12.7c7.3-3.2,15.1-4.7,23.4-4.7
					s16.1,1.6,23.4,4.7c7.3,3.2,13.6,7.4,18.9,12.7s9.6,11.5,12.7,18.6c3.2,7.1,4.7,14.8,4.7,23.1c0,9.9-3.5,17.6-10.6,23.1
					s-14.2,9.7-21.3,12.4c-3.2,1.2-8.4,3.2-15.7,5.9c-7.3,2.8-15.3,5.7-24,8.9c-8.7,3.2-17.4,6.4-26,9.8c-8.7,3.4-16,6.2-21.9,8.6
					L1424.9,380.5L1424.9,380.5z"/>
			</g>
			<g id="r_3_">
				<path id="XMLID_33_" class="st3" d="M1687.6,301.3c-23.7,0.8-43,9.9-58,27.2v-27.2h-39.1v19.5h19.5v276.9h19.5V380.5
					c0-8.3,1.6-16.1,4.7-23.4c3.2-7.3,7.5-13.6,13-18.9s11.8-9.6,18.9-12.7c7.1-3.2,14.8-4.7,23.1-4.7h23.1v-19.5L1687.6,301.3
					L1687.6,301.3z"/>
			</g>
			<g id="i_3_">
				<path id="XMLID_75_" class="st3" d="M1775.7,301.3v296.4h-19.5V320.8h-19.5v-19.5H1775.7z M1772.8,234c2-1.8,2.9-4.2,2.9-7
					c0-2.9-1-5.2-2.9-7c-2-1.8-4.2-2.7-6.8-2.7c-2.9,0-5.2,0.9-7,2.7s-2.7,4.2-2.7,7c0,2.9,0.9,5.2,2.7,7c1.8,1.8,4.2,2.7,7,2.7
					C1768.6,236.8,1770.9,235.8,1772.8,234z"/>
			</g>
			<g id="t_3_">
				<path id="XMLID_31_" class="st3" d="M1918.3,320.8v-19.5h-63.9v-84h-19.5v301.2c0,11.1,1.9,21.4,5.6,31.1
					c3.7,9.7,8.9,18,15.4,25.1s14.1,12.7,22.8,16.9c8.7,4.1,17.9,6.2,27.8,6.2v-19.5c-7.1,0-13.8-1.6-20.1-4.7
					c-6.3-3.2-11.8-7.4-16.6-12.7c-4.7-5.3-8.5-11.6-11.2-18.9c-2.8-7.3-4.1-15.1-4.1-23.4V320.8H1918.3z"/>
			</g>
		</g>
	</g>
</g>
</svg>
