<?xml version="1.0" encoding="utf-8"?>
<!-- Generator: Adobe Illustrator 19.0.0, SVG Export Plug-In . SVG Version: 6.00 Build 0)  -->
<svg version="1.1" id="Layer_1" xmlns="http://www.w3.org/2000/svg" xmlns:xlink="http://www.w3.org/1999/xlink" x="0px" y="0px"
	 viewBox="-49 141 512 512" style="enable-background:new -49 141 512 512;" xml:space="preserve">
<style type="text/css">
	.st0{fill:#F05E25;}
</style>
<g id="Layer_2_1_">
	<g id="Outlined_Mnemonics_Logos">
		<g id="Ae">
			<path id="XMLID_19_" class="st0" d="M144.7,476.8h-108l-22.1,68.5c-0.6,2.6-2.9,4.4-5.5,4.1h-54.6c-3.2,0-4.1-1.7-3.2-5.2
				l93.5-267.9c0.9-2.9,1.7-5.5,2.9-9c1.2-6.1,1.7-12.5,1.7-18.9c-0.3-1.5,0.9-2.9,2.3-3.2c0.3,0,0.6,0,0.9,0h74.3
				c2,0,3.5,0.9,3.8,2.3l105.9,297.6c0.9,3.2,0,4.7-2.9,4.7h-60.8c-2,0.3-4.1-1.2-4.7-3.2L144.7,476.8z M53.6,419.1h73.7
				c-1.7-6.1-4.1-13.4-6.7-20.9c-2.6-7.8-5.2-16.3-7.8-25c-2.9-9-5.5-17.7-8.4-26.7s-5.5-17.4-7.8-25.9c-2.3-8.1-4.4-15.7-6.4-22.7
				h-0.6c-2.6,12.5-5.8,25-9.9,37.4c-4.4,14-8.7,28.5-13.4,42.9C62.6,393.2,57.9,406.9,53.6,419.1z"/>
			<path id="XMLID_16_" class="st0" d="M408.9,450.1h-92.1c1.2,9,4.1,18,9,25.9c5.2,7.8,12.5,14,21.2,17.4
				c11.6,4.9,24.4,7.6,37.1,7.3c10.2-0.3,20.4-1.2,30.2-3.2c9-1.2,17.7-3.5,25.9-6.7c1.5-1.2,2.3-0.6,2.3,2.3v44.4
				c0,1.2-0.3,2.3-0.6,3.5c-0.6,0.9-1.2,1.5-2,2c-9.3,4.1-18.9,7-29.1,8.7c-13.7,2.6-27.3,3.8-41.2,3.5c-22.1,0-40.6-3.5-55.7-10.2
				c-14.1-6-26.6-15.6-36.4-27.6c-9.3-11.3-16-24.1-20.1-38c-4.1-13.7-6.1-27.9-6.1-42.3c0-15.7,2.3-31.1,7.3-46.1
				c4.7-14.5,11.9-27.9,21.8-39.7c9.6-11.6,21.5-20.9,35.1-27.6s29.9-9,48.5-9c15.4-0.3,30.8,2.6,45,9c11.9,5.2,22.4,13.1,30.5,23.3
				c7.6,9.9,13.7,20.9,17.4,33.1c3.8,11.6,5.5,23.5,5.5,35.4c0,7-0.3,13.1-0.6,18.6c-0.6,5.5-0.9,9.6-1.2,12.2c-0.3,2-2,3.8-4.1,3.8
				c-1.7,0-4.9,0.3-9.6,0.6c-4.7,0.6-10.2,0.9-16.9,0.9C423.4,451.3,416.5,450.1,408.9,450.1z M316.8,407.7H378
				c7.6,0,13.1,0,16.6-0.3c2.3-0.3,4.7-0.9,6.7-2.3v-2.9c0-3.8-0.6-7.3-1.7-10.8c-5.2-16.3-20.6-27.3-37.7-26.7
				c-16-0.9-31.1,7.6-38.6,22.1C319.8,393.5,317.7,400.5,316.8,407.7z"/>
		</g>
	</g>
</g>
</svg>
