<?xml version="1.0" encoding="utf-8"?>
<!-- Generator: Adobe Illustrator 19.0.0, SVG Export Plug-In . SVG Version: 6.00 Build 0)  -->
<svg version="1.1" id="Layer_1" xmlns="http://www.w3.org/2000/svg" xmlns:xlink="http://www.w3.org/1999/xlink" x="0px" y="0px"
	 viewBox="-49 141 512 512" style="enable-background:new -49 141 512 512;" xml:space="preserve">
<style type="text/css">
	.st0{fill:#F95C1E;}
</style>
<g>
	<path class="st0" d="M63.6,509.6c-4.5,0-9.1-1.7-12.6-5.2l-94.8-94.8c-6.9-6.9-6.9-18.2,0-25.1L51,289.6c6.9-6.9,18.2-6.9,25.1,0
		c6.9,6.9,6.9,18.2,0,25.1L-6.1,397l82.2,82.2c6.9,6.9,6.9,18.2,0,25.1C72.7,507.9,68.1,509.6,63.6,509.6z"/>
</g>
<g>
	<path class="st0" d="M350.4,509.6c-4.5,0-9.1-1.7-12.6-5.2c-6.9-6.9-6.9-18.2,0-25.1l82.2-82.2l-82.2-82.2
		c-6.9-6.9-6.9-18.2,0-25.1c6.9-6.9,18.2-6.9,25.1,0l94.8,94.8c6.9,6.9,6.9,18.2,0,25.1L363,504.4
		C359.5,507.9,355,509.6,350.4,509.6z"/>
</g>
<g>
	<path class="st0" d="M159.4,509.6c-2.7,0-5.4-0.6-8-1.9c-8.8-4.4-12.3-15.1-7.9-23.9l95.1-189.6c4.4-8.8,15.1-12.3,23.9-7.9
		c8.8,4.4,12.3,15.1,7.9,23.9l-95.1,189.6C172.2,506,166,509.6,159.4,509.6z"/>
</g>
</svg>
