<?xml version="1.0" encoding="utf-8"?>
<!-- Generator: Adobe Illustrator 19.0.0, SVG Export Plug-In . SVG Version: 6.00 Build 0)  -->
<svg version="1.1" id="Layer_1" xmlns="http://www.w3.org/2000/svg" xmlns:xlink="http://www.w3.org/1999/xlink" x="0px" y="0px"
	 viewBox="-49 141 512 512" style="enable-background:new -49 141 512 512;" xml:space="preserve">
<style type="text/css">
	.st0{fill:#F95C1E;}
</style>
<path class="st0" d="M459.5,226l-76-76c-9.1-9.1-16.5-8.9-21.3-4.1L27.7,480.4c0,0-74.4,151-76.1,154.7c-1.7,3.7,0.4,10.6,2.4,12.7
	c2.2,2.2,9.4,4.7,13.1,2.9c3.7-1.7,157.3-73.5,157.3-73.5l334.6-334.5C463.9,238,464.5,231,459.5,226z M96,571.8
	c-21.4,10-63.4,29.6-96.6,45.1c-8.6,4-17.4-5-13.2-13.5c14.9-30.3,33.9-68.8,46.7-94.8l0,0c5.8-5.8,15.2-5.8,21.1,0
	c5.7,5.7,5.8,15,0.2,20.8c5.8-5.6,15.1-5.5,20.8,0.2c5.7,5.7,5.8,15,0.2,20.8c5.8-5.6,15.1-5.5,20.8,0.2
	C101.8,556.6,101.8,566,96,571.8z M426,247.6l-44.2,44.2l-68.6-68.6c20-20,35.7-35.7,44.2-44.2c3.9-3.9,10.2-3.9,14.1,0l54.4,54.4
	C429.9,237.3,429.9,243.6,426,247.6z"/>
<g>
	<path class="st0" d="M-38.3,651.5c-5.5,0-10-4.5-10-10s4.5-10,10-10c94.2,0,140-20,188.4-41.2c12.1-5.3,24.5-10.7,37.8-15.9
		c48.1-18.7,78.9-3.8,106.1,9.3c32.5,15.7,58.2,28.1,111.3-20.2c4.1-3.7,10.4-3.4,14.1,0.7c3.7,4.1,3.4,10.4-0.7,14.1
		c-63.2,57.4-98.9,40.1-133.5,23.4c-25.8-12.4-50.2-24.2-90.1-8.7c-12.9,5-25.2,10.4-37.1,15.6C110,629.7,60.1,651.5-38.3,651.5z"/>
</g>
</svg>
