<?xml version="1.0" encoding="utf-8"?>
<!-- Generator: Adobe Illustrator 19.0.0, SVG Export Plug-In . SVG Version: 6.00 Build 0)  -->
<svg version="1.1" id="Layer_1" xmlns="http://www.w3.org/2000/svg" xmlns:xlink="http://www.w3.org/1999/xlink" x="0px" y="0px"
	 viewBox="-49 141 512 512" style="enable-background:new -49 141 512 512;" xml:space="preserve">
<style type="text/css">
	.st0{fill:#F05E25;}
</style>
<g id="Layer_2_2_">
	<g id="Outlined_Mnemonics_Logos_1_">
		<g id="Ai">
			<path id="XMLID_13_" class="st0" d="M143.9,476.9H36.4l-22,67.9c-0.6,2.6-3,4.3-5.5,4h-54.4c-3.2,0-4-1.7-3.2-5.2l93-268
				c1-3,1.7-6,3-9.5c1.2-6,1.7-12.5,1.7-18.8c-0.3-1.4,1-3,2.3-3.2c0.3,0,0.6,0,1,0h74c2.3,0,3.5,1,3.7,2.3l105.4,297.6
				c1,3.2,0,4.7-3,4.7H172c-2,0.3-4-1.2-4.7-3.2L143.9,476.9z M53.1,418.2h73.5c-1.7-6-4-13.2-6.7-20.9c-2.6-7.8-5.2-16.2-7.8-24.9
				c-3-9-5.5-17.6-8.4-26.6c-2.9-9-5.5-17.4-7.8-25.7c-2.3-8.1-4.3-15.6-6.4-22.5h-0.6c-2.6,12.5-5.8,24.9-9.8,37.3
				c-4.3,13.9-8.7,28.4-13.2,42.9C61.8,392.5,57.5,406.1,53.1,418.2L53.1,418.2z"/>
			<path id="XMLID_10_" class="st0" d="M298.5,293.7c-9.5,0.3-18.8-3.5-25.7-10.2c-6.7-7.2-10.2-16.8-9.8-26.6
				c-0.3-9.8,3.5-19.1,10.4-25.7c7-6.7,16.2-10.2,25.7-10.2c11.2,0,19.9,3.5,26.4,10.2c6.4,7,9.8,16.2,9.5,25.7
				c0.3,9.8-3.2,19.4-10.2,26.6C318.1,290.4,308.3,294.3,298.5,293.7z M266.1,544.6V322.1c0-3,1.2-4,3.7-4H327c2.6,0,3.7,1.4,3.7,4
				v222.6c0,3.2-1.2,4.7-3.7,4.7h-56.6C267.6,549.2,266.1,547.5,266.1,544.6z"/>
		</g>
	</g>
</g>
</svg>
