<?xml version="1.0" encoding="utf-8"?>
<!-- Generator: Adobe Illustrator 19.0.0, SVG Export Plug-In . SVG Version: 6.00 Build 0)  -->
<svg version="1.1" id="Logo" xmlns="http://www.w3.org/2000/svg" xmlns:xlink="http://www.w3.org/1999/xlink" x="0px" y="0px"
	 viewBox="-49 141 512 512" style="enable-background:new -49 141 512 512;" xml:space="preserve">
<style type="text/css">
	.st0{fill:#E2E2E2;}
</style>
<g>
	<path class="st0" d="M207,187.1c68.4,0,76.5,0.3,103.4,1.5c25,1.1,38.5,5.3,47.5,8.8c11.9,4.6,20.5,10.2,29.4,19.1
		c9,9,14.5,17.5,19.2,29.4c3.5,9,7.7,22.6,8.8,47.5c1.2,27,1.5,35.1,1.5,103.4s-0.3,76.5-1.5,103.4c-1.1,25-5.3,38.5-8.8,47.5
		c-4.6,11.9-10.2,20.5-19.1,29.4c-9,9-17.5,14.5-29.4,19.2c-9,3.5-22.6,7.7-47.5,8.8c-27,1.2-35.1,1.5-103.4,1.5
		s-76.5-0.3-103.4-1.5c-25-1.1-38.5-5.3-47.5-8.8c-11.9-4.6-20.5-10.2-29.4-19.1c-9-9-14.5-17.5-19.2-29.4c-3.5-9-7.7-22.6-8.8-47.5
		c-1.2-27-1.5-35.1-1.5-103.4s0.3-76.5,1.5-103.4c1.1-25,5.3-38.5,8.8-47.5c4.6-11.9,10.2-20.5,19.1-29.4c9-9,17.5-14.5,29.4-19.2
		c9-3.5,22.6-7.7,47.5-8.8C130.5,187.4,138.6,187.1,207,187.1 M207,141c-69.5,0-78.2,0.3-105.5,1.5c-27.2,1.2-45.9,5.6-62.1,11.9
		C22.5,161,8.2,169.7-6,184c-14.3,14.2-23,28.5-29.6,45.3c-6.3,16.3-10.7,34.9-11.9,62.1C-48.7,318.8-49,327.5-49,397
		s0.3,78.2,1.5,105.5c1.2,27.2,5.6,45.9,11.9,62.1C-29,581.5-20.3,595.8-6,610c14.2,14.2,28.5,23,45.3,29.5
		c16.3,6.3,34.9,10.7,62.1,11.9c27.3,1.2,36,1.5,105.5,1.5s78.2-0.3,105.5-1.5c27.2-1.2,45.9-5.6,62.1-11.9
		c16.8-6.5,31.1-15.3,45.3-29.5c14.2-14.2,23-28.5,29.5-45.3c6.3-16.3,10.7-34.9,11.9-62.1c1.2-27.3,1.5-36,1.5-105.5
		s-0.3-78.2-1.5-105.5c-1.2-27.2-5.6-45.9-11.9-62.1c-6.3-17-15-31.3-29.3-45.5c-14.2-14.2-28.5-23-45.3-29.5
		c-16.3-6.3-34.9-10.7-62.1-11.9C285.2,141.3,276.5,141,207,141L207,141z"/>
	<path class="st0" d="M207,265.5c-72.6,0-131.5,58.9-131.5,131.5S134.4,528.5,207,528.5S338.5,469.6,338.5,397
		S279.6,265.5,207,265.5z M207,482.3c-47.1,0-85.3-38.2-85.3-85.3s38.2-85.3,85.3-85.3s85.3,38.2,85.3,85.3S254.1,482.3,207,482.3z"
		/>
	<circle class="st0" cx="343.7" cy="260.3" r="30.7"/>
</g>
</svg>
