<?xml version="1.0" encoding="utf-8"?>
<!-- Generator: Adobe Illustrator 19.0.0, SVG Export Plug-In . SVG Version: 6.00 Build 0)  -->
<svg version="1.1" id="Layer_1" xmlns="http://www.w3.org/2000/svg" xmlns:xlink="http://www.w3.org/1999/xlink" x="0px" y="0px"
	 viewBox="-41 164.9 512 512" style="enable-background:new -41 164.9 512 512;" xml:space="preserve">
<style type="text/css">
	.st0{fill:#E2E2E2;}
</style>
<g>
	<path class="st0" d="M-32.6,335.1H73.6v341.4H-32.6V335.1z M20.6,165.4c33.9,0,61.5,27.6,61.5,61.5c0,34-27.6,61.5-61.5,61.5
		c-34.1,0-61.6-27.6-61.6-61.5C-41,192.9-13.5,165.4,20.6,165.4"/>
	<path class="st0" d="M140.2,335.1h101.7v46.7h1.5c14.1-26.8,48.8-55.1,100.4-55.1c107.4,0,127.3,70.7,127.3,162.6v187.2H364.9v-166
		c0-39.6-0.7-90.5-55.1-90.5c-55.2,0-63.6,43.1-63.6,87.7v168.8h-106V335.1z"/>
</g>
</svg>
