<?xml version="1.0" encoding="utf-8"?>
<!-- Generator: Adobe Illustrator 19.0.0, SVG Export Plug-In . SVG Version: 6.00 Build 0)  -->
<svg version="1.1" id="Layer_1" xmlns="http://www.w3.org/2000/svg" xmlns:xlink="http://www.w3.org/1999/xlink" x="0px" y="0px"
	 viewBox="-49 141 512 512" style="enable-background:new -49 141 512 512;" xml:space="preserve">
<style type="text/css">
	.st0{fill:#F05E25;}
</style>
<g id="Layer_2_3_">
	<g id="Outlined_Mnemonics_Logos_2_">
		<g id="Ps">
			<path id="XMLID_7_" class="st0" d="M-49,545.7V249.6c0-2,0.9-3.2,2.8-3.2c4.9,0,9.5,0,16.2-0.3c6.9-0.3,14.1-0.3,21.8-0.6
				c7.8-0.3,16.2-0.3,25-0.6c8.9-0.3,17.5-0.3,26.2-0.3c23.6,0,43.2,2.8,59.3,8.9c14.4,4.9,27.6,13,38.6,23.6
				c9.2,9.2,16.4,20.5,21,32.8c4.3,12.1,6.7,24.4,6.7,37.4c0,24.8-5.8,45.2-17.3,61.3c-11.5,16.2-27.6,28.2-46.3,35.1
				c-19.6,7.2-41.2,9.8-64.8,9.8c-6.9,0-11.5,0-14.4-0.3s-6.9-0.3-12.3-0.3v92.4c0.3,2-1.1,3.7-3.2,4.1c-0.3,0-0.6,0-1.1,0h-54.7
				C-47.9,549.5-49,548.3-49,545.7z M13.7,302v96.7c4.1,0.3,7.8,0.6,11.2,0.6h15.3c11.2,0,22.5-1.7,33.1-5.2
				c9.2-2.6,17.3-8,23.6-15.3c6-7.2,8.9-17,8.9-29.6c0.3-8.9-2-17.9-6.7-25.6c-4.9-7.5-11.8-13.2-20.1-16.4
				c-10.6-4.3-22.2-6-33.9-5.8c-7.5,0-14.1,0-19.6,0.3C19.8,301.4,15.8,301.7,13.7,302L13.7,302z"/>
			<path id="XMLID_6_" class="st0" d="M348.2,381.1c-8.6-4.6-17.9-7.8-27.6-9.8c-10.6-2.3-21.3-3.7-32.2-3.7
				c-5.8-0.3-11.8,0.6-17.3,2c-3.7,0.9-6.9,2.8-8.9,5.8c-1.5,2.3-2.3,5.2-2.3,7.8c0,2.6,1.1,5.2,2.8,7.5c2.6,3.2,6,5.8,9.8,7.8
				c6.7,3.5,13.6,6.7,20.5,9.5c15.5,5.2,30.5,12.3,44.3,21c9.5,6,17.3,14.1,22.7,23.9c4.6,9.2,6.9,19.3,6.7,29.6
				c0.3,13.6-3.7,27-11.2,38.3c-8,11.5-19.3,20.5-32.2,25.6c-14.1,6-31.3,9.2-52.1,9.2c-13.3,0-26.3-1.2-39.3-3.8
				c-10.1-1.7-20.1-4.9-29.4-9.2c-2-1.1-3.5-3.2-3.2-5.4v-50.1c0-0.9,0.3-2,1.1-2.6c0.9-0.6,1.7-0.3,2.6,0.3
				c11.2,6.7,23.1,11.2,35.7,14.1c11,2.8,22.5,4.3,33.9,4.3c11,0,18.7-1.5,23.9-4.1c4.6-2,7.8-6.9,7.8-12.1c0-4.1-2.3-7.8-6.9-11.5
				c-4.6-3.7-14.1-8-28.2-13.6c-14.7-5.2-28.2-12.1-40.8-20.7c-8.9-6.3-16.4-14.7-21.8-24.4c-4.6-9.2-6.9-19.3-6.7-29.4
				c0-12.3,3.5-24.2,9.8-34.8c7.2-11.5,17.9-20.7,30.2-26.5c13.6-6.9,30.5-10.1,51-10.1c11.8,0,23.9,0.9,35.7,2.6
				c8.6,1.1,17,3.5,24.8,6.7c1.1,0.3,2.3,1.5,2.8,2.6c0.3,1.1,0.6,2.3,0.6,3.5v46.9c0,1.1-0.6,2.3-1.5,2.8
				C350.8,381.7,349.3,381.7,348.2,381.1z"/>
		</g>
	</g>
</g>
</svg>
