<?xml version="1.0" encoding="utf-8"?>
<!-- Generator: Adobe Illustrator 19.0.0, SVG Export Plug-In . SVG Version: 6.00 Build 0)  -->
<svg version="1.1" id="Layer_1" xmlns="http://www.w3.org/2000/svg" xmlns:xlink="http://www.w3.org/1999/xlink" x="0px" y="0px"
	 viewBox="-49 141 512 512" style="enable-background:new -49 141 512 512;" xml:space="preserve">
<style type="text/css">
	.st0{fill:#F05E25;}
</style>
<g id="Layer_2_4_">
	<g id="Outlined_Mnemonics_Logos_3_">
		<g id="Pr">
			<path id="XMLID_3_" class="st0" d="M-49,545.5v-296c0-2,0.9-3.2,2.9-3.2c4.9,0,9.5,0,16.1-0.3c6.9-0.3,14.1-0.3,21.8-0.5
				c7.7-0.3,16.1-0.3,25-0.5c8.9-0.3,17.6-0.3,26.2-0.3c23.6,0,43.1,2.9,59.2,8.9c14.4,4.9,27.6,12.9,38.6,23.6
				c9.2,9.2,16.4,20.4,21,32.8c4.3,12.1,6.6,24.5,6.6,37.4c0,24.8-5.7,45.1-17.3,61.2c-11.5,16.1-27.6,28.2-46.3,35.1
				c-19.6,7.2-41.1,9.8-64.7,9.8c-6.9,0-11.5,0-14.4-0.3c-2.9-0.3-6.9-0.3-12.4-0.3v92.4c0.3,2-1.2,3.7-3.2,4c-0.3,0-0.5,0-1.2,0
				h-54.7C-47.8,549.2-49,548.1-49,545.5z M13.7,301.9v96.6c4,0.3,7.7,0.5,11.2,0.5h15.3c11.2,0,22.5-1.7,33.1-5.2
				c9.2-2.6,17.3-8.1,23.6-15.3c6-7.2,8.9-17,8.9-29.6c0.3-8.9-2-17.8-6.6-25.6c-4.9-7.5-11.8-13.2-20.1-16.4
				c-10.6-4.3-22.1-6-33.9-5.7c-7.5,0-14.1,0-19.6,0.3C19.7,301.3,15.7,301.6,13.7,301.9L13.7,301.9z"/>
			<path id="XMLID_2_" class="st0" d="M208.7,318.5H259c2.9,0,5.2,2,6,4.6c0.9,2.3,1.5,4.6,1.7,7.2c0.5,2.9,1.2,6,1.5,8.9
				c0.3,3.2,0.5,6.6,0.5,10.4c8.6-10.1,19-18.4,30.8-24.8c13.2-7.5,28.5-11.2,43.7-11.2c2-0.3,3.7,1.2,4,3.2c0,0.3,0,0.5,0,1.2V374
				c0,2.3-1.5,3.2-4.6,3.2c-10.4-0.3-21,0.5-31,2.9c-8.4,1.7-16.4,4.3-24.2,7.7c-5.5,2.6-10.6,6-14.6,10.6v146.7c0,2.9-1.2,4-3.7,4
				h-56.8c-2.3,0.3-4.3-1.2-4.6-3.5c0-0.3,0-0.9,0-1.2V385.3c0-6.9,0-14.1-0.3-21.6c-0.3-7.5-0.3-14.9-0.5-22.5
				c0-6.6-0.5-12.9-1.2-19.6c-0.3-1.5,0.5-2.9,2-3.2C207.9,318.3,208.4,318.3,208.7,318.5L208.7,318.5z"/>
		</g>
	</g>
</g>
</svg>
