<?xml version="1.0" encoding="utf-8"?>
<!-- Generator: Adobe Illustrator 19.0.0, SVG Export Plug-In . SVG Version: 6.00 Build 0)  -->
<svg version="1.1" id="Layer_1" xmlns="http://www.w3.org/2000/svg" xmlns:xlink="http://www.w3.org/1999/xlink" x="0px" y="0px"
	 viewBox="0 0 500 79" style="enable-background:new 0 0 500 79;" xml:space="preserve">
<style type="text/css">
	.st0{fill:#E1E1E1;}
	.st1{fill:#7EC044;}
</style>
<g id="logo_5_">
	<g id="XMLID_4_">
		<g id="shadow_5_">
			<path id="XMLID_36_" class="st0" d="M122.4,0c11.7,0,17.7,7,17.7,19.2v2.4h-11.4v-3.2c0-5.5-2.2-7.5-6-7.5c-3.8,0-6,2.1-6,7.5
				c0,15.7,23.5,18.7,23.5,40.6c0,12.2-6.1,19.2-17.9,19.2c-11.8,0-17.9-7-17.9-19.2v-4.7h11.4v5.5c0,5.5,2.4,7.4,6.2,7.4
				s6.2-2,6.2-7.4c0-15.7-23.5-18.7-23.5-40.6C104.7,7,110.7,0,122.4,0z"/>
			<path id="XMLID_34_" class="st0" d="M159.1,77.5h-12V0.9h12v32.8h13.7V0.9H185v76.5h-12.2V44.7h-13.7V77.5z"/>
			<polygon id="XMLID_33_" class="st0" points="220.4,0.9 202.8,0.9 190.6,77.5 201.6,77.5 211,14.5 220.5,77.5 232.7,77.5 			"/>
			<path id="XMLID_30_" class="st0" d="M238.3,0.9h19c12,0,17.9,6.7,17.9,18.9v38.7c0,12.2-5.9,18.9-17.9,18.9h-19V0.9z M250.3,11.9
				v54.7h6.8c3.8,0,6.1-2,6.1-7.4V19.3c0-5.5-2.3-7.4-6.1-7.4H250.3z"/>
			<path id="XMLID_15_" class="st0" d="M281.9,19.3C281.9,7,288.3,0,300.1,0c11.8,0,18.3,7,18.3,19.2v39.8
				c0,12.2-6.5,19.2-18.3,19.2c-11.8,0-18.3-7-18.3-19.2V19.3z M293.9,59.9c0,5.5,2.4,7.5,6.2,7.5s6.2-2.1,6.2-7.5V18.5
				c0-5.5-2.4-7.5-6.2-7.5s-6.2,2.1-6.2,7.5V59.9z"/>
			<path id="XMLID_12_" class="st0" d="M352.8,36.7l-4.4,40.8H332l-8.5-76.5h11.7l6.5,60.3l5.8-60.3H359l6,60.8l6.2-60.8h10.5
				l-8.5,76.5h-16L352.8,36.7z"/>
		</g>
		<g id="ops_5_">
			<path id="XMLID_9_" class="st1" d="M385,19.5C385,8.3,390.2,0,401.8,0c11.9,0,17,8.2,17,19.5v39.4c0,11.2-5.2,19.5-17,19.5
				c-11.7,0-16.8-8.2-16.8-19.5V19.5z M390.1,59.2c0,8.4,3.3,14.5,11.8,14.5c8.6,0,12-6.2,12-14.5v-40c0-8.4-3.4-14.5-12-14.5
				c-8.5,0-11.8,6.2-11.8,14.5V59.2z"/>
			<path id="XMLID_6_" class="st1" d="M443.2,0.7c11.9,0,16.5,7.5,16.5,18.7v8.4c0,12.2-5.6,18.3-17.8,18.3h-9.6v31.7h-5.1v-77
				H443.2z M441.8,41.4c8.9,0,12.8-4,12.8-13.3v-9c0-8.4-2.9-13.7-11.4-13.7h-10.9v36.1H441.8z"/>
			<path id="XMLID_5_" class="st1" d="M499.7,19.3v1.6h-4.8v-2c0-8.1-3.1-14.3-11.4-14.3c-8.4,0-11.4,6-11.4,14.2
				c0,18.7,27.8,19,27.8,40.2c0,11.1-4.8,19.2-16.6,19.2c-11.8,0-16.6-8.1-16.6-19.2v-4h4.8v4.3c0,8.2,3.2,14.2,11.7,14.2
				s11.7-5.9,11.7-14.2c0-18.5-27.8-18.8-27.8-40.2c0-11.5,5.1-19,16.4-19.1C495,0,499.7,8.2,499.7,19.3z"/>
		</g>
	</g>
	<g id="XMLID_3_">
		<path id="XMLID_38_" class="st1" d="M18.7,45.7c-3,2-5.1,3.9-5.1,3.9c0-19.4,15.7-35.1,35.1-35.1c14.8,0,27.4,9.1,32.6,22
			C79,16.3,61.8,0.7,41,0.7C18.6,0.7,0.4,18.8,0.4,41.3c0,14.5,7.6,27.2,19,34.4c-1.7-4.8-2.7-10.2-2.7-16.1
			C16.8,54.6,17.5,49.9,18.7,45.7z"/>
		<path id="XMLID_90_" class="st0" d="M65.5,47c2.2-1.4,3.6-2.8,3.6-2.8C69.1,58,58,69.1,44.2,69.1c-10.5,0-19.4-6.5-23.1-15.6
			C22.7,67.8,34.9,79,49.7,79C65.6,79,78.5,66,78.5,50.1c0-10.3-5.4-19.3-13.5-24.4c1.2,3.4,1.9,7.3,1.9,11.4
			C66.9,40.7,66.4,44,65.5,47z"/>
	</g>
</g>
</svg>
