<?xml version="1.0" encoding="utf-8"?>
<!-- Generator: Adobe Illustrator 19.0.0, SVG Export Plug-In . SVG Version: 6.00 Build 0)  -->
<svg version="1.1" id="Layer_1" xmlns="http://www.w3.org/2000/svg" xmlns:xlink="http://www.w3.org/1999/xlink" x="0px" y="0px"
	 viewBox="-185 277 240 240" style="enable-background:new -185 277 240 240;" xml:space="preserve">
<style type="text/css">
	.st0{fill:#C8DAEA;}
	.st1{fill:#A9C9DD;}
	.st2{fill:url(#SVGID_1_);}
</style>
<g>
	<path class="st0" d="M-94.7,485.5c-7.2,0-5.9-2.7-8.4-9.5l-21-69.2l161.8-96"/>
	<path class="st1" d="M-94.7,485.5c5.5,0,8-2.5,11-5.5l29.4-28.6L-91,429.2"/>
	
		<linearGradient id="SVGID_1_" gradientUnits="userSpaceOnUse" x1="-367.8364" y1="791.1177" x2="-367.4851" y2="790.4464" gradientTransform="matrix(130.4927 0 0 -109.4498 47961.2188 86977.3516)">
		<stop  offset="0" style="stop-color:#EFF7FC"/>
		<stop  offset="1" style="stop-color:#FFFFFF"/>
	</linearGradient>
	<path class="st2" d="M-91,429.2L-2,494.9c10.2,5.6,17.5,2.7,20-9.4l36.2-170.6c3.7-14.9-5.7-21.6-15.4-17.2l-212.6,82
		c-14.5,5.8-14.4,13.9-2.6,17.5l54.6,17L4.4,334.5c6-3.6,11.4-1.7,6.9,2.3"/>
</g>
</svg>
