<?xml version="1.0" encoding="utf-8"?>
<!-- Generator: Adobe Illustrator 19.0.0, SVG Export Plug-In . SVG Version: 6.00 Build 0)  -->
<svg version="1.1" id="Layer_1" xmlns="http://www.w3.org/2000/svg" xmlns:xlink="http://www.w3.org/1999/xlink" x="0px" y="0px"
	 viewBox="0 0 1164 100" style="enable-background:new 0 0 1164 100;" xml:space="preserve">
<style type="text/css">
	.st0{fill:#E2E2E2;}
	.st1{fill:#F95C1E;}
	.st2{opacity:0.75;fill:url(#XMLID_28_);}
</style>
<g id="XMLID_251_">
	<path id="XMLID_256_" class="st0" d="M23,0C38,0,45.7,8.9,45.7,24.6v3.1H31.1v-4.1c0-7-2.8-9.6-7.7-9.6c-4.9,0-7.7,2.7-7.7,9.6
		c0,7.1,3.1,12.4,13.1,21.2c12.8,11.3,16.9,19.4,16.9,30.6c0,15.6-7.8,24.6-22.9,24.6S0,91.1,0,75.4v-6h14.5v7c0,7,3.1,9.5,8,9.5
		c4.9,0,8-2.5,8-9.5c0-7.1-3.1-12.4-13.1-21.2C4.5,43.9,0.4,35.8,0.4,24.6C0.4,8.9,8.1,0,23,0z"/>
	<path id="XMLID_250_" class="st0" d="M139.8,98.9h-15.4V1.1h15.4V43h17.5V1.1h15.6v97.8h-15.6V57h-17.5V98.9z"/>
	<path id="XMLID_242_" class="st0" d="M380.6,1.1h24.3c15.4,0,22.9,8.5,22.9,24.2v49.4c0,15.6-7.5,24.2-22.9,24.2h-24.3V1.1z
		 M395.9,15.1v69.8h8.7c4.9,0,7.8-2.5,7.8-9.5V24.6c0-7-2.9-9.5-7.8-9.5H395.9z"/>
	<path id="XMLID_234_" class="st0" d="M506.1,24.6c0-15.6,8.2-24.6,23.3-24.6c15.1,0,23.3,8.9,23.3,24.6v50.8
		c0,15.6-8.2,24.6-23.3,24.6c-15.1,0-23.3-8.9-23.3-24.6V24.6z M521.5,76.4c0,7,3.1,9.6,8,9.6c4.9,0,8-2.7,8-9.6V23.6
		c0-7-3.1-9.6-8-9.6c-4.9,0-8,2.7-8,9.6V76.4z"/>
	<path id="XMLID_228_" class="st0" d="M666.7,46.8h-0.3L661,98.9h-21.1L629,1.1H644l8.1,77.1h0.3l7.3-77.1h14.8l7.5,77.7h0.3
		L690,1.1h13.4l-10.9,97.8h-20.4L666.7,46.8z"/>
	<path id="XMLID_220_" class="st0" d="M871.2,24.6c0-15.6,8.2-24.6,23.3-24.6c15.1,0,23.3,8.9,23.3,24.6v50.8
		c0,15.6-8.2,24.6-23.3,24.6c-15.1,0-23.3-8.9-23.3-24.6V24.6z M886.5,76.4c0,7,3.1,9.6,8,9.6c4.9,0,8-2.7,8-9.6V23.6
		c0-7-3.1-9.6-8-9.6c-4.9,0-8,2.7-8,9.6V76.4z"/>
	<path id="XMLID_176_" class="st0" d="M1043.1,25.3V38c0,15.6-7.5,24.2-22.9,24.2h-7.3v36.7h-15.4V1.1h22.6
		C1035.6,1.1,1043.1,9.6,1043.1,25.3z M1012.9,15.1v33.1h7.3c4.9,0,7.5-2.2,7.5-9.2V24.3c0-7-2.7-9.2-7.5-9.2H1012.9z"/>
	<path id="XMLID_168_" class="st0" d="M1140.7,0c14.9,0,22.6,8.9,22.6,24.6v3.1h-14.5v-4.1c0-7-2.8-9.6-7.7-9.6
		c-4.9,0-7.7,2.7-7.7,9.6c0,7.1,3.1,12.4,13.1,21.2c12.9,11.3,16.9,19.4,16.9,30.6c0,15.6-7.8,24.6-22.9,24.6
		c-15.1,0-22.9-8.9-22.9-24.6v-6h14.5v7c0,7,3.1,9.5,8,9.5c4.9,0,8-2.5,8-9.5c0-7.1-3.1-12.4-13.1-21.2
		c-12.9-11.3-16.9-19.4-16.9-30.6C1118.1,8.9,1125.8,0,1140.7,0z"/>
	<g id="XMLID_315_">
		<polygon id="XMLID_167_" class="st1" points="288,1.1 265.5,1.1 249.8,98.9 263.9,98.9 276,18.4 276,18.4 288.1,98.9 303.6,98.9 
					"/>
		<polygon id="XMLID_164_" class="st0" points="265.5,1.1 249.8,98.9 263.9,98.9 276,18.4 288,1.1 		"/>
		
			<linearGradient id="XMLID_28_" gradientUnits="userSpaceOnUse" x1="277.9703" y1="-15606.1035" x2="298.7335" y2="-15650.6299" gradientTransform="matrix(1 0 0 -1 0 -15590)">
			<stop  offset="0" style="stop-color:#20242C"/>
			<stop  offset="0.75" style="stop-color:#000000;stop-opacity:0"/>
		</linearGradient>
		<polygon id="XMLID_163_" class="st2" points="288,1.1 276,18.4 282.6,62.5 297.8,62.5 		"/>
	</g>
</g>
</svg>
