<?xml version="1.0" encoding="utf-8"?>
<!-- Generator: Adobe Illustrator 19.0.0, SVG Export Plug-In . SVG Version: 6.00 Build 0)  -->
<svg version="1.1" id="Layer_1" xmlns="http://www.w3.org/2000/svg" xmlns:xlink="http://www.w3.org/1999/xlink" x="0px" y="0px"
	 viewBox="-517 141 512 512" style="enable-background:new -517 141 512 512;" xml:space="preserve">
<style type="text/css">
	.st0{fill:#F95C1E;}
</style>
<path class="st0" d="M-39.9,199.7h-442.2c-19.8,0-34.9,15.1-34.9,32.6v283.9c0,18.6,15.1,32.6,34.9,32.6h162.9V571h-34.9
	c-7,0-11.6,4.7-11.6,11.6c0,7,4.7,11.6,11.6,11.6h186.2c7,0,11.6-4.7,11.6-11.6c0-7-4.7-11.6-11.6-11.6h-34.9v-22.3h162.9
	c19.8,0,34.9-15.1,34.9-32.6V232.3C-5,213.6-20.1,199.7-39.9,199.7z M-16.6,516.2h-488.7V232.3h488.7V516.2z"/>
</svg>
