<?xml version="1.0" encoding="utf-8"?>
<!-- Generator: Adobe Illustrator 19.0.0, SVG Export Plug-In . SVG Version: 6.00 Build 0)  -->
<svg version="1.1" id="Layer_1" xmlns="http://www.w3.org/2000/svg" xmlns:xlink="http://www.w3.org/1999/xlink" x="0px" y="0px"
	 viewBox="-49 141 512 512" style="enable-background:new -49 141 512 512;" xml:space="preserve">
<style type="text/css">
	.st0{fill:#F95C1E;}
</style>
<path class="st0" d="M184.9,167h79c2.3,9,10.4,15.6,20.1,15.6c11.5,0,20.8-9.3,20.8-20.8c0-11.5-9.3-20.8-20.8-20.8
	c-9.7,0-17.8,6.6-20.1,15.6H148.7V141h-41.6v15.6H-8.1c-2.3-9-10.4-15.6-20.1-15.6c-11.5,0-20.8,9.3-20.8,20.8
	c0,11.5,9.3,20.8,20.8,20.8c9.7,0,17.8-6.6,20.1-15.6h79c-54.7,20.7-95.2,70.3-103,130.1H-49v41.6h41.6v-41.6h-14.2
	c9.2-66.6,62.1-119.4,128.6-128.6v14.2h4.4L-5.1,462.9c-1.9,3.7-1.4,8.3,1.3,11.4L83.8,601H34.3c-5.7,0-10.4,4.7-10.4,10.4v31.2
	c0,5.7,4.7,10.4,10.4,10.4h187.3c5.7,0,10.4-4.7,10.4-10.4v-31.2c0-5.7-4.7-10.4-10.4-10.4h-49.5l87.5-126.7
	c2.7-3.2,3.2-7.7,1.3-11.4L144.3,182.6h4.4v-14.2c66.6,9.2,119.4,62.1,128.6,128.6h-14.2v41.6h41.6v-41.6h-16.9
	C280.1,237.3,239.6,187.7,184.9,167z M166.9,469.4c0,21.6-17.5,39-39,39s-39-17.5-39-39c0-16.1,9.8-30,23.7-35.9l9.3-250.9H134
	l9.3,250.9C157.2,439.5,166.9,453.3,166.9,469.4z"/>
</svg>
